<?xml version="1.0" encoding="utf-8"?>
<!-- Generator: Adobe Illustrator 25.4.1, SVG Export Plug-In . SVG Version: 6.00 Build 0)  -->
<svg version="1.1" id="Capa_1" xmlns="http://www.w3.org/2000/svg" xmlns:xlink="http://www.w3.org/1999/xlink" x="0px" y="0px"
	 viewBox="0 0 96.9 90.2" style="enable-background:new 0 0 96.9 90.2;" xml:space="preserve">
<style type="text/css">
	.st0{fill:url(#SVGID_1_);}
	.st1{fill:#7A1A26;}
	.st2{fill:url(#SVGID_00000150816834380730778780000013712117835838392252_);}
	.st3{fill:url(#SVGID_00000159462745346238671820000013848736580404939676_);}
	.st4{fill:url(#SVGID_00000031183040437900240610000005327288856644244643_);}
	.st5{fill:url(#SVGID_00000021834659282947485150000009785365417319545008_);}
	.st6{fill:url(#SVGID_00000088091223266596660130000007067027673295305124_);}
	.st7{fill:#F6F6F6;}
	.st8{fill:#1D1D1B;}
	.st9{fill:url(#SVGID_00000036934963298908539170000012125419531688408200_);}
	.st10{fill:url(#SVGID_00000091711092888125645670000005944962233978796430_);}
	.st11{fill:url(#SVGID_00000152976979929354799390000010329947942445589174_);}
	.st12{fill:url(#SVGID_00000132780666197632995250000017904135566984246963_);}
	.st13{fill:url(#SVGID_00000049942412387576861220000015421960508196539319_);}
	.st14{fill:url(#SVGID_00000059292414354429560940000018231740212975059368_);}
	.st15{fill:url(#SVGID_00000014607156531101469930000004174166288487668108_);}
	.st16{fill:url(#SVGID_00000054988840655827835510000007522632605533778080_);}
	.st17{fill:url(#SVGID_00000163047605662582385080000001384370259685073851_);}
</style>
<g>
	
		<linearGradient id="SVGID_1_" gradientUnits="userSpaceOnUse" x1="7.1" y1="715.1" x2="7.1" y2="715.1" gradientTransform="matrix(1 0 0 1 0 -664)">
		<stop  offset="0.5" style="stop-color:#BC181A"/>
		<stop  offset="0.57" style="stop-color:#B41819"/>
		<stop  offset="0.67" style="stop-color:#9D1716"/>
		<stop  offset="0.8" style="stop-color:#781512"/>
		<stop  offset="0.87" style="stop-color:#61140F"/>
		<stop  offset="0.95" style="stop-color:#220B0C"/>
	</linearGradient>
	<path class="st0" d="M7.1,51.1L7.1,51.1L7.1,51.1z"/>
	<path class="st1" d="M38.7,0C17.4,0,0,14.5,0,32.5c0,1.8,0.2,3.6,0.5,5.4C0.5,36.6-2.9,4.3,38.7,0z"/>
	
		<linearGradient id="SVGID_00000180325336783963729270000002614308966842481812_" gradientUnits="userSpaceOnUse" x1="8.000183e-02" y1="708.5" x2="77.39" y2="708.5" gradientTransform="matrix(1 0 0 1 0 -664)">
		<stop  offset="0.5" style="stop-color:#BC181A"/>
		<stop  offset="0.57" style="stop-color:#B41819"/>
		<stop  offset="0.67" style="stop-color:#9D1716"/>
		<stop  offset="0.8" style="stop-color:#781512"/>
		<stop  offset="0.87" style="stop-color:#61140F"/>
		<stop  offset="0.95" style="stop-color:#220B0C"/>
	</linearGradient>
	<path style="fill:url(#SVGID_00000180325336783963729270000002614308966842481812_);" d="M77.4,32.5C77.4,14.6,60.1,0,38.7,0
		C-2.9,4.3,0.5,36.6,0.6,37.8c1,4.9,3.2,9.5,6.5,13.3L38.8,89L70,51.7l0.6-0.7l0,0C74.9,45.7,77.3,39.2,77.4,32.5z"/>
	<polygon class="st1" points="7.1,51.1 7.1,51.1 38.7,90.2 69.9,51.6 38.7,89 	"/>
	
		<linearGradient id="SVGID_00000080920305888223311230000016425074490648106118_" gradientUnits="userSpaceOnUse" x1="35.83" y1="742.4" x2="41.64" y2="742.4" gradientTransform="matrix(1 0 0 1 0 -664)">
		<stop  offset="1.000000e-02" style="stop-color:#C6C4C2"/>
		<stop  offset="1" style="stop-color:#FCFCFC"/>
	</linearGradient>
	<circle style="fill:url(#SVGID_00000080920305888223311230000016425074490648106118_);" cx="38.7" cy="78.4" r="2.9"/>
	
		<linearGradient id="SVGID_00000087405033360102660420000015603848052107388324_" gradientUnits="userSpaceOnUse" x1="29.966" y1="735.3563" x2="47.4995" y2="735.3563" gradientTransform="matrix(1 0 0 1 0 -664)">
		<stop  offset="1.000000e-02" style="stop-color:#C6C4C2"/>
		<stop  offset="1" style="stop-color:#FCFCFC"/>
	</linearGradient>
	<path style="fill:url(#SVGID_00000087405033360102660420000015603848052107388324_);" d="M46,74.2c-0.5,0-0.9-0.2-1.2-0.6
		c0-0.1-1.6-2-6.1-2s-6,1.9-6,2c-0.5,0.7-1.4,0.8-2.1,0.3c-0.7-0.5-0.8-1.4-0.4-2.1c0.2-0.3,2.5-3.3,8.5-3.3s8.3,2.9,8.5,3.2
		c0.5,0.7,0.3,1.6-0.4,2.1C46.6,74.1,46.3,74.2,46,74.2L46,74.2z"/>
	
		<linearGradient id="SVGID_00000005969147183720753750000008276901038246960015_" gradientUnits="userSpaceOnUse" x1="24.8799" y1="730.86" x2="52.6062" y2="730.86" gradientTransform="matrix(1 0 0 1 0 -664)">
		<stop  offset="1.000000e-02" style="stop-color:#C6C4C2"/>
		<stop  offset="1" style="stop-color:#FCFCFC"/>
	</linearGradient>
	<path style="fill:url(#SVGID_00000005969147183720753750000008276901038246960015_);" d="M51.1,70.8c-0.4,0-0.9-0.2-1.2-0.5
		c-0.2-0.2-3.8-4.4-11.2-4.4s-11,4.2-11.2,4.4C27,70.9,26,71,25.4,70.5s-0.7-1.5-0.2-2.1l0,0c0.2-0.2,4.6-5.5,13.5-5.5
		s13.3,5.2,13.5,5.5c0.5,0.6,0.5,1.6-0.2,2.1l0,0C51.8,70.7,51.5,70.8,51.1,70.8z"/>
	
		<linearGradient id="SVGID_00000070828725717532187680000009007166592865232541_" gradientUnits="userSpaceOnUse" x1="20.59" y1="726.1516" x2="56.32" y2="726.1516" gradientTransform="matrix(1 0 0 1 0 -664)">
		<stop  offset="1.000000e-02" style="stop-color:#C6C4C2"/>
		<stop  offset="1" style="stop-color:#FCFCFC"/>
	</linearGradient>
	<path style="fill:url(#SVGID_00000070828725717532187680000009007166592865232541_);" d="M54.8,66.6c-0.5,0-0.9-0.2-1.2-0.6
		c-0.2-0.2-4.3-5.3-14.7-5.3s-15.7,5.4-15.8,5.4c-0.5,0.6-1.5,0.7-2.1,0.1s-0.7-1.5-0.1-2.1l0,0c0.2-0.3,6.1-6.4,18-6.4
		s16.9,6.2,17.1,6.5c0.5,0.7,0.4,1.6-0.3,2.1C55.5,66.5,55.2,66.6,54.8,66.6z"/>
	<ellipse class="st7" cx="38.7" cy="31.9" rx="26.5" ry="22.3"/>
	<path class="st8" d="M7.1,51.1c0,0,19.2,13.1,73.4-5.5l-0.4-1.5c0,0-49.8,18.9-74.9,4.5L7.1,51.1z"/>
	
		<linearGradient id="SVGID_00000007411609033500941320000006877903037999296642_" gradientUnits="userSpaceOnUse" x1="6.875741e-02" y1="713.6235" x2="91.9688" y2="696.0035" gradientTransform="matrix(1 0 0 1 0 -664)">
		<stop  offset="1.000000e-02" style="stop-color:#C6C4C2"/>
		<stop  offset="0.27" style="stop-color:#D8D7D6"/>
		<stop  offset="0.69" style="stop-color:#FCFCFC"/>
	</linearGradient>
	<path style="fill:url(#SVGID_00000007411609033500941320000006877903037999296642_);" d="M5.7,49.4c0,0,20.2,13.7,74.2-5.1l3.4,9.4
		l12.6-27.3l-33.3-8.8l7.3,9.7c0,0-26.1,19-69.3,10.5C1.2,42,3,46,5.7,49.4z"/>
	
		<linearGradient id="SVGID_00000118372881538415175470000009308636968371476865_" gradientUnits="userSpaceOnUse" x1="14.3388" y1="692.3326" x2="78.3788" y2="704.2726" gradientTransform="matrix(1 0 0 1 0 -664)">
		<stop  offset="0.4" style="stop-color:#BC181A"/>
		<stop  offset="0.48" style="stop-color:#B41819"/>
		<stop  offset="0.59" style="stop-color:#9D1716"/>
		<stop  offset="0.74" style="stop-color:#781512"/>
		<stop  offset="0.82" style="stop-color:#61140F"/>
		<stop  offset="0.95" style="stop-color:#220B0C"/>
	</linearGradient>
	<path style="fill:url(#SVGID_00000118372881538415175470000009308636968371476865_);" d="M26.9,36.8c-0.2-0.1-0.4-0.1-0.7-0.2
		c-0.5-0.2-1-0.5-1.4-0.9s-0.9-0.6-1.5-0.7c-1.1-0.3-2.2-0.4-3.3-0.6c-0.8-0.1-1.4-0.4-1.7-1.1c-0.1-0.3-0.5-0.5-0.9-0.8l-0.2,0.6
		H17c-0.5-0.8-1.4-1.3-1.3-2.3c0-0.2-0.1-0.3-0.2-0.5c-0.5-0.5-0.7-1.2-0.6-1.8c0.2-2,0.8-3.9,1.8-5.6c2.6-4.3,6.6-7.4,11.9-9.5
		c0.3-0.1,0.6-0.2,0.9-0.2c0.4,0.2,0.9,0.4,1.3,0.6s0.8,0.5,1.3,0.8l-0.6,0.2c0.4,0.2,1,0.3,1.1,0.5s-0.2,0.6-0.3,0.9l-1.2-0.9
		c-0.1,0.5-0.3,0.8,0.3,0.9c0.1,0,0.2,0.4,0.2,0.7l0.1-0.1l-0.8-0.4l0.4,0.8l-0.2,0.1c-0.4-0.3-0.8-0.5-1.2-0.7
		c-0.5-0.1-1-0.2-1.6-0.1c1-0.4,2.1-0.8,0.8-2c-0.2,0.2-0.4,0.4-0.6,0.6c-0.3,0.4-0.7,0.8-1.2,1.1c-1.1,0.6-2,1.3-3.1,1.9
		c-0.2,0.1-0.4,0.2-0.7,0.4s-0.4,0.3-0.7,0.5l0.8,0.1l0.1,0.4h0.2c0.2,0,0.4-0.1,0.5,0c0.3,0.3,0.8,0.4,1.2,0.2
		c0.5,0.4,0.4,1.1,1.3,1.5c-0.1-0.3-0.1-0.5-0.2-0.7c-0.1-0.4-0.2-0.7,0.4-1c0.2-0.1,0.3-0.2,0.4-0.3c0.1-0.7,0.2-1.4,0.3-2.1
		c1-0.4,2.2,0,2.6,1c0,0,0,0.1,0.1,0.1l1.1-1c0.4,0.3,1.1,0.6,0.9,1.2c0,0.1,0.1,0.2,0.2,0.3s0.5,0.4,0.7,0.7c0.2,0,0.4,0,0.5,0
		c0.2,0.1,0.3,0.2,0.3,0.3c0,0.3,0.1,0.6,0.1,0.9c0,0.1,0,0.2,0.1,0.2c1,0.3,0.4,1,0.8,1.5L35,22.4L34.8,22c-1.3,0.2-2-0.1-2-0.8
		c-0.4,0.2-0.9,0.4-1.3,0.6c-0.2,0.1-0.2,0.3-0.3,0.5c0.3,0.1,0.6,0.2,0.9,0.2c0.1,0,0.3-0.1,0.5-0.1c-0.3,0.7-1,1-1.8,1.3l0.3-0.6
		L31,23c-0.4,0.2-0.8,0.4-1.2,0.7s-0.7,0.4-0.4,0.9c0,0-0.2,0.3-0.3,0.2c-0.7,0-0.9,0.4-1.2,0.8s-0.3,0.5-0.5,0.8s-0.2,0.3-0.2,0.4
		c0.3,0.7-0.2,0.9-0.8,1.2c-0.6,0.3-1,1-0.7,1.7l0,0c0.2,0.4,0.5,0.9-0.1,1.4c-0.5-0.1-0.5-0.5-0.5-0.8c0-0.7,0-0.7-0.8-0.5
		c-0.5,0-1,0-1.4,0l0.2,0.3c-0.3,0-0.6,0-0.8,0c-0.6,0-1.2,0.2-1.7,0.7c-0.2,0.3-0.4,0.6,0.3,0.7c-0.1,0.2-0.2,0.4-0.3,0.6
		c0,0.7,0.4,1.5,1.1,1.7c0.1,0,0.1,0,0.2,0c0.6,0.1,1.1-0.2,1-0.7s0.2-0.5,0.6-0.6c0.2,0,0.4,0,0.5-0.1c0.1,0,0.3-0.1,0.4-0.1
		c-0.1,0.3-0.2,0.6-0.3,0.9s-0.2,0.6-0.4,1l1.8-0.2c0,0.3,0,0.5,0,0.8c0,0.5,0.2,0.9,0.9,0.9c0.2,0,0.4,0.1,0.5,0.1
		c0.5,0.1,1,0.1,1.3-0.3C29,35,30,34.7,31,34.9c0.5,0.1,0.9,0.2,1.4,0.2c0.3,0,0.6,0.1,0.8,0.2c0.6,0.3,1.1,0.7,1.8,1
		c0.3,0,0.7,0,1,0c0.2,0,0.3,0,0.4,0.1c0.7,0.5,1.3,1.1,2,1.7c0.3,0.2,0.7,0.3,1.1,0.3c0.4-0.1,0.8,0.1,1.1,0.4
		c0.1,0.2,0.5,0.2,0.7,0.3c0.3,0.1,0.6,0.2,0.8,0.4c0.3,0.2,0.3,0.4,0,0.7c-1.1,0.7-1.5,2-1.2,3.2L40,42.9L39.7,44c0,0,0,0-0.1,0
		c-0.9,0-0.9,0-1.1,0.8c-0.2,0.8-0.7,1.6-1.4,2.1c-0.3,0.3-0.5,0.5-0.7,0.8c0,0.1,0,0.2,0,0.3c0.2,0.5,0.5,0.9,0.7,1.3
		c0.1,0.2,0.2,0.4,0.2,0.6l0.8,0.7c-0.6,0.1-1.3-0.1-1.8-0.5c-0.9-0.7-1.7-1.5-2.2-2.5c-0.7-0.9-1.2-2-1.3-3.2
		c0-0.7-0.3-1.4-0.8-1.8c-0.5-0.3-1.1-0.5-1.6-0.7c-0.7-0.2-1.2-0.6-1.6-1.2c-0.1-0.1-0.3-0.2-0.5-0.3c-0.3-0.3-0.6-0.5-0.9-0.8
		c-0.5-0.5,0.2-1,0.2-1.5s0.1-0.8,0.1-1.1c0-0.2-0.2-0.4-0.4-0.5C27.5,36.5,27.2,36.7,26.9,36.8z"/>
	
		<linearGradient id="SVGID_00000163051772334786194940000003801149991084446856_" gradientUnits="userSpaceOnUse" x1="14.9893" y1="688.8302" x2="79.0393" y2="700.7702" gradientTransform="matrix(1 0 0 1 0 -664)">
		<stop  offset="0.4" style="stop-color:#BC181A"/>
		<stop  offset="0.48" style="stop-color:#B41819"/>
		<stop  offset="0.59" style="stop-color:#9D1716"/>
		<stop  offset="0.74" style="stop-color:#781512"/>
		<stop  offset="0.82" style="stop-color:#61140F"/>
		<stop  offset="0.95" style="stop-color:#220B0C"/>
	</linearGradient>
	<path style="fill:url(#SVGID_00000163051772334786194940000003801149991084446856_);" d="M51.6,14.8c3.2,1.6,5.9,4,7.9,7
		c2.1,3,3.1,6.7,2.8,10.3c-0.3,5.6-3,10.2-8.2,13.9c-1.1,0.8-2.4,1.5-3.7,2c-0.3,0.1-0.7,0.1-1,0.1c0.1-0.2,0.2-0.3,0.2-0.4
		c0.5-0.6,0.9-1.2,1.5-1.7c0.4-0.4,0.9-0.6,1.2-1c0.2-0.3,0.2-0.6,0.2-0.9c0-0.4,0-0.7,0.4-0.9c0.1-0.1,0.3-0.2,0.3-0.3
		c0.2-0.4,0.6-0.8,1-1c0.7-0.6,1-1.6,0.8-2.5c0-0.1,0-0.2,0-0.2c0.1-0.4,0.2-0.7,0.3-1.1c0.2-0.8,0-1-1-0.8v-0.1
		c0-0.2,0.1-0.5,0.2-0.7c-0.4,0-0.8,0-1.2,0c-0.2,0.1-0.5,0.1-0.7,0.2c-0.9,0.3-1.8,0-2.3-0.7c-0.4-0.4-0.6-0.9-1-1.2
		c-0.5-0.5-0.4-0.9-0.3-1.4s0-1.1-0.2-1.5c-0.3-0.4-0.2-1,0.2-1.2l0,0c0.7-0.5,1.3-1,1.9-1.6c0.3-0.3,0.6-0.7,0.2-1.2l1.3-0.6
		c-0.8-1-0.8-1-1.5-0.8l-0.1-0.1l0.6-0.2c0-0.1-0.1-0.2-0.1-0.3c-0.6-1.2-0.4-1.5,1.1-2l0.3-0.1c0.7-0.3,0.7-0.3,0.2-0.7
		c-0.1-0.1-0.2-0.2-0.2-0.3l-0.8-1c0.3,0,0.6-0.1,0.8-0.3c0.3-0.3,0.8-0.7,0.7-0.9c-0.1-0.5,0-0.7,0.7-0.7c-0.2-0.6-0.6-1.2-1.1-1.6
		c-0.4-0.3-0.7-0.7-1-1.1c-0.1-0.1-0.1-0.2,0-0.2c0.7-0.6,0-1-0.3-1.5C51.7,14.9,51.6,14.8,51.6,14.8L51.6,14.8z M55.8,26.3l0.2,0.1
		c0.6,0.2,1.2,0,1.6-0.4c0.1-0.2-0.1-0.7-0.3-1c-0.3-0.4-0.7-0.8-1.1-1.1c-0.1-0.1-0.3-0.1-0.4-0.1c-0.2,0.1-0.6,0.2-0.6,0.4
		c-0.1,0.4-0.2,0.7-0.8,0.7c0.4,1.1-1.1,0.9-1.6,1.5C53.8,26.4,54.7,26.9,55.8,26.3L55.8,26.3z M57.7,27.6c0.5,0.4,0.8,0.8,1.5,0.8
		c0.4,0,0.7,0.2,1.1,0.4c0.3,0.1,0.6,0.3,0.9,0.5l0.2-0.1l-0.6-1l-0.6,0.2l-1.5-1.6l-0.2,0.7L57.7,27.6z"/>
	
		<linearGradient id="SVGID_00000081642454311245189140000003421083203214256269_" gradientUnits="userSpaceOnUse" x1="17.69" y1="674.3775" x2="81.73" y2="686.3076" gradientTransform="matrix(1 0 0 1 0 -664)">
		<stop  offset="0.4" style="stop-color:#BC181A"/>
		<stop  offset="0.48" style="stop-color:#B41819"/>
		<stop  offset="0.59" style="stop-color:#9D1716"/>
		<stop  offset="0.74" style="stop-color:#781512"/>
		<stop  offset="0.82" style="stop-color:#61140F"/>
		<stop  offset="0.95" style="stop-color:#220B0C"/>
	</linearGradient>
	<path style="fill:url(#SVGID_00000081642454311245189140000003421083203214256269_);" d="M42.7,13.7c-0.6,0.2-1.2,0.4-1.8,0.7
		c-0.2,0.1-0.4,0.2-0.6,0.4c-0.2,0.1-0.3,0.3-0.5,0.4c-0.5,0.1-1,0.1-1,0.8c0,0.3-0.3,0.7-0.4,1.1c-0.8-0.4-1.8-0.1-2.5-0.9
		c-0.5-0.6-1-1.1-0.4-1.9c-0.6,0-0.7-0.3-0.6-0.6s-0.1-0.7-0.5-0.9c-0.3-0.1-0.5-0.3-1-0.6c0.5-0.1,0.8-0.2,1.1-0.2
		c2.1-0.3,4.2-0.4,6.2-0.2c0.6,0.1,1.2,0.5,1.5,1C42.2,13,42.5,13.3,42.7,13.7z"/>
	
		<linearGradient id="SVGID_00000016795658939113314890000006022363083116262536_" gradientUnits="userSpaceOnUse" x1="17.2153" y1="676.8851" x2="81.2653" y2="688.8251" gradientTransform="matrix(1 0 0 1 0 -664)">
		<stop  offset="0.4" style="stop-color:#BC181A"/>
		<stop  offset="0.48" style="stop-color:#B41819"/>
		<stop  offset="0.59" style="stop-color:#9D1716"/>
		<stop  offset="0.74" style="stop-color:#781512"/>
		<stop  offset="0.82" style="stop-color:#61140F"/>
		<stop  offset="0.95" style="stop-color:#220B0C"/>
	</linearGradient>
	<path style="fill:url(#SVGID_00000016795658939113314890000006022363083116262536_);" d="M51.9,20.8h-1.1l0.6-0.8h-0.7
		c-0.1-0.5,0.2-1.1-0.6-1.4c-0.1,0-0.1-0.3-0.2-0.5l-0.6,0.2l-0.2-1.1c0.5,0,1.2,0.3,1.3,0.7c0.2,0.5,0.8,0.7,1.3,1
		c0.9,0.4,1,1.1,0.3,1.7C52,20.7,51.9,20.7,51.9,20.8z"/>
	
		<linearGradient id="SVGID_00000088841407855829152080000007172423475265150377_" gradientUnits="userSpaceOnUse" x1="17.7337" y1="674.14" x2="81.7737" y2="686.08" gradientTransform="matrix(1 0 0 1 0 -664)">
		<stop  offset="0.4" style="stop-color:#BC181A"/>
		<stop  offset="0.48" style="stop-color:#B41819"/>
		<stop  offset="0.59" style="stop-color:#9D1716"/>
		<stop  offset="0.74" style="stop-color:#781512"/>
		<stop  offset="0.82" style="stop-color:#61140F"/>
		<stop  offset="0.95" style="stop-color:#220B0C"/>
	</linearGradient>
	<path style="fill:url(#SVGID_00000088841407855829152080000007172423475265150377_);" d="M46.2,15.1c-0.6,0.3-1.2,0.5-1.9,0.6
		c-0.6-0.1-1.3-0.3-1.8-0.6c0.2-0.3,0.3-0.4,0.7-0.3c0.3,0.1,0.6,0.1,0.9,0c0.4-0.1,0.8-0.4,1.2,0c0.2,0.1,0.6,0.1,0.9,0.1
		L46.2,15.1z"/>
	
		<linearGradient id="SVGID_00000020366715076713612590000001142415261720307344_" gradientUnits="userSpaceOnUse" x1="17.1088" y1="677.5106" x2="81.1487" y2="689.4505" gradientTransform="matrix(1 0 0 1 0 -664)">
		<stop  offset="0.4" style="stop-color:#BC181A"/>
		<stop  offset="0.48" style="stop-color:#B41819"/>
		<stop  offset="0.59" style="stop-color:#9D1716"/>
		<stop  offset="0.74" style="stop-color:#781512"/>
		<stop  offset="0.82" style="stop-color:#61140F"/>
		<stop  offset="0.95" style="stop-color:#220B0C"/>
	</linearGradient>
	<path style="fill:url(#SVGID_00000020366715076713612590000001142415261720307344_);" d="M48.7,18.6c0.9,0,1.2,0.4,1.1,0.9
		c-0.1,0.3-0.5,0.5-0.8,0.8l-0.2-0.1L48.7,18.6z"/>
	
		<linearGradient id="SVGID_00000130607619079232790660000012402496529521076916_" gradientUnits="userSpaceOnUse" x1="13.9711" y1="694.2979" x2="78.0211" y2="706.2279" gradientTransform="matrix(1 0 0 1 0 -664)">
		<stop  offset="0.4" style="stop-color:#BC181A"/>
		<stop  offset="0.48" style="stop-color:#B41819"/>
		<stop  offset="0.59" style="stop-color:#9D1716"/>
		<stop  offset="0.74" style="stop-color:#781512"/>
		<stop  offset="0.82" style="stop-color:#61140F"/>
		<stop  offset="0.95" style="stop-color:#220B0C"/>
	</linearGradient>
	<path style="fill:url(#SVGID_00000130607619079232790660000012402496529521076916_);" d="M25.4,32.1c0.8-0.4,1-0.4,1.5,0.3
		c0.2,0.3,0.5,0.6,0.7,0.9l-1,0.1C26.7,32.7,26.3,32.3,25.4,32.1z"/>
	
		<linearGradient id="SVGID_00000137828177256308593030000007144465660599558311_" gradientUnits="userSpaceOnUse" x1="13.8569" y1="694.9464" x2="77.8969" y2="706.8864" gradientTransform="matrix(1 0 0 1 0 -664)">
		<stop  offset="0.4" style="stop-color:#BC181A"/>
		<stop  offset="0.48" style="stop-color:#B41819"/>
		<stop  offset="0.59" style="stop-color:#9D1716"/>
		<stop  offset="0.74" style="stop-color:#781512"/>
		<stop  offset="0.82" style="stop-color:#61140F"/>
		<stop  offset="0.95" style="stop-color:#220B0C"/>
	</linearGradient>
	<path style="fill:url(#SVGID_00000137828177256308593030000007144465660599558311_);" d="M27.5,33.9l0.6-0.2L28,33.1
		c0.5,0.3,1.4,0,1.7,0.8C29,33.6,28.4,34.4,27.5,33.9z"/>
	<polygon class="st8" points="83.4,53.6 83.8,55 96.9,26.6 96,26.4 	"/>
</g>
</svg>
