<svg id="Capa_1" data-name="Capa 1" xmlns="http://www.w3.org/2000/svg" viewBox="0 0 225.36 255.41"><defs><style>.cls-1{fill:#fff;}</style></defs><path class="cls-1" d="M218.83,88.76c5.62-9,7.81-18.65,5.79-29.08a39.44,39.44,0,0,0-76.17-5.36c-.64,1.86-1.3,1.87-2.94,1.24a102.82,102.82,0,0,0-63.33-3.82c-1.78.45-3.49,1.3-5.53,1.27.26-.93.45-1.64.65-2.35A39.49,39.49,0,0,0,20.68,4.71C.44,15.51-6.1,40.91,6.26,61,12,70.27,17.78,79.46,23.63,88.63a2.8,2.8,0,0,1-.12,3.69C5,119.26-.65,148.84,8.66,180.08c11.93,40,39.23,64.43,80.11,73.5,3.28.72,6.71.58,9.88,1.83h18.46c.3-.74,1-.46,1.51-.52a101.43,101.43,0,0,0,32.28-8.81c40.7-19,63.93-59.43,60-104.21a4.65,4.65,0,0,0-2.55-4.22c-4.19-.05-5.26,1.23-4.89,5.73,2.14,26.08-5.14,49.25-21.48,69.66a6,6,0,0,1-5.45,2.56c-6-.19-12,0-18-.07-7.73-.06-13.48-5.64-13.5-13s5.64-12.93,13.42-13.1c4.24-.09,8.5.14,12.7-.26,11-1.07,18.6-10.19,18.22-21.48a20.48,20.48,0,0,0-19.68-19.47,36.65,36.65,0,0,1-5.46-.29c-6.13-1.18-10.07-6-10.42-12.55-.58-10.62-6.61-18.24-16.24-20.34-1.93-.42-4-.41-5.93-.67-6.87-.91-11.46-6.49-11.23-13.58a12.71,12.71,0,0,1,12-12.37c6.23-.26,12.47,0,18.71-.11,1.53,0,1.92,1.09,2.51,2Q165,108.17,176.15,126c2.4,3.84,5.61,6,10.25,5.84a10.29,10.29,0,0,0,8.47-5c1.23-1.86,2.4-3.75,3.72-5.82,1.84,2.9,1.11,7.77,6.34,7.21,2.59-1.54,3.17-2.76,2.33-5.52s-1.78-5.53-2.86-8.22a3.36,3.36,0,0,1,.37-3.44C209.49,103.69,214.15,96.22,218.83,88.76ZM12.13,56.27A33.21,33.21,0,0,1,7.6,43.69C5,27.09,17.91,9.83,34.3,8c16.92-3.61,35.07,9.87,37,27.33a32.19,32.19,0,0,1-4.59,21C58.68,69.21,50.6,82,42.55,94.8a7.89,7.89,0,0,1-.78,1c-2.47,1.77-3.92,1.49-5.65-1.27Q24.09,75.41,12.13,56.27ZM31.2,209.42A95.89,95.89,0,0,1,27,100.4a11.59,11.59,0,0,0,.68-1c.84-1.63,1.45-1.79,2.63-.08,4.92,7.15,13.77,6.92,18.51-.42,1.9-2.93,3.8-5.85,5.54-8.88a2.77,2.77,0,0,1,3.47-1.49c5.21,1.16,8.81,4.05,10.31,9.3a12.66,12.66,0,0,1-8.41,15.95c-1.6.83-3.38.76-5.1.87a20.53,20.53,0,0,0-3,40.61c.4.09.78.25,1.18.38,4.63.08,4.58.08,4.57,4.54a39.86,39.86,0,0,0,7.19,23.31c1.3,1.89,1.82,3.26-.4,4.85-1.61,1.15-2.47,3.07-3.57,4.72a29.69,29.69,0,0,0-2.24,10.15c-.57,7.46-5.82,12.26-13.31,12.37H43.59C35.82,215.55,35.82,215.55,31.2,209.42ZM133,80.87a20.53,20.53,0,0,0-17.81,29.81,19.67,19.67,0,0,0,16.07,11.15,44.39,44.39,0,0,1,5.44.64c6,1.5,9.44,6.34,9.79,13.65a20.41,20.41,0,0,0,14.9,18.82c2.68.76,5.42.64,8.16.76a13.1,13.1,0,0,1,3.41,25.58,20.79,20.79,0,0,1-5.67.65c-4.72.13-9.49-.53-14.16.62a20.5,20.5,0,0,0-15.36,21.68c1.14,10.66,9.43,18.54,19.84,18.76,4.64.09,9.3,0,13.87,0,.39.63,0,.88-.29,1.14a95.67,95.67,0,0,1-49.56,22.79,10.55,10.55,0,0,1-1.49,0,64.26,64.26,0,0,1-16.61.87,95.14,95.14,0,0,1-57-22.26,6.41,6.41,0,0,1-2.31-2.39c1.56-.14,3-.16,4.46-.41,9.8-1.72,16.45-9.17,17.19-19.18,0-.57.18-1.14.27-1.71A11.46,11.46,0,0,1,69,194.09c.82-1.06,1.42-1.42,2.33,0,4.26,6.93,8.61,13.81,13,20.68a1.84,1.84,0,0,1-.1,2.61A19.63,19.63,0,0,0,81.64,222c-1.72,8.81,1.12,15.61,8.1,19.16,5.41,2.76,10.71,2.11,15.9-.68,6.11-4.75,8.66-10.77,6.47-18.42a7.63,7.63,0,0,0-1.45-3.14c-2.09-2.17-1.26-4,.17-6,2.12-3.1,2-4.13-.31-6.83-2.72-.72-4.54.31-5.94,2.72-1.66,2.84-3.58,5.53-5.39,8.28h0c-2.26,1.57-3.8,1.42-5.2-.81-8.5-13.51-17.35-26.82-25.29-40.65-10.43-18.15,1-42.1,21.48-46.22a14.52,14.52,0,0,1,1.48-.12h0c10.91-2.7,24.51,2.79,31.49,13.11,7.47,11,7.9,22.65,1.5,34.32-2.79,5.09-6,9.94-9.21,14.8-1.52,2.32-1.77,4.4.17,6.52,3.41.9,4.23.58,6.15-2.47,3.1-4.92,6.3-9.78,9.23-14.8a39.46,39.46,0,1,0-70.13-35.89c-1.19,2.81-2.59,3.83-5.45,3.37a11.78,11.78,0,0,1-3.16-.6,13,13,0,0,1,4-25.45A51.09,51.09,0,0,0,62.07,121,20.55,20.55,0,0,0,74.35,92.8c-.38-.83-.78-1.64-1.17-2.46-3-4.1-6.72-7.32-11.77-8.65-1.34-.36-1.21-.94-.6-1.91q4.88-7.66,9.67-15.37a3.38,3.38,0,0,1,1.6-1.48c15.66-6.15,31.79-8.45,48.51-6a87.08,87.08,0,0,1,24.69,6.58c.64.26,1.15.59,1.09,1.44a42.4,42.4,0,0,0,2.31,15.91C143.25,80.85,138.1,80.73,133,80.87ZM93.29,233.06C92,232,90.55,231,89.17,230a4.89,4.89,0,0,1-.65-2.87c-.08-3.6.61-4,3.71-2.57a10.11,10.11,0,0,0,10.42-.6c1.79-1.2,2.18-.54,2.54,1.09a8.26,8.26,0,0,1-6,10A7.83,7.83,0,0,1,93.29,233.06Zm95.65-110.81a10.25,10.25,0,0,1-.95,1.14h0c-2.35,1.47-3.79,1.28-5.2-1-8.39-13.35-17.11-26.51-25-40.14-10.81-18.66.74-42.79,21.93-46.75a10.06,10.06,0,0,1,1.24-.08h0c16.29-3.34,33.63,9,36.44,25.89a31.32,31.32,0,0,1-4.23,22.26C205.17,96.55,197,109.38,188.94,122.25Z"/><path class="cls-1" d="M42.78,57.86a3.9,3.9,0,0,0-.23-.63c-.83-2.06-2.59-2.63-4.84-2.89a14.87,14.87,0,0,1-12.95-10.2,14.65,14.65,0,0,1,3.56-16.31c4.29-4.31,9.53-5.82,15.51-3.91,10.18,2.5,14.58,15,8.38,23.93-1.12,1.61-1.94,3.14-1.1,5a5.11,5.11,0,0,0,.22.48c2.71,2.32,4.66,2.08,6.81-.84a23.14,23.14,0,0,0-7.79-34c-8.14-4.28-16.14-3.51-23.93,1.08h0l-.48.4-1,.88A23.25,23.25,0,0,0,17.23,45.4,24.36,24.36,0,0,0,25.4,57.33c.18.15.35.31.54.46,3.63,2.22,7.44,3.91,11.78,4.09C41.08,62,42.07,61.23,42.78,57.86Z"/><path class="cls-1" d="M110.56,141.33c-8.75-6.16-17.8-5.89-26.85-.46h0l-.19.17c-.31.27-.61.55-.92.81-7.23,6.1-10.09,13.79-8.27,23.09,1.06,5.42,4.12,9.69,8.18,13.29l.2.18,2.12,1.31a23.12,23.12,0,0,0,25.73-38.39Zm-9.92,33.76c-7,2.21-15.1-1.8-18.14-9a15.61,15.61,0,0,1,7-19.88c3.74-2,7.67-2.62,11.76-1.11,6.71,1.62,11.47,8.09,11.31,15.38C112.46,167.52,107.29,173.82,100.64,175.09Z"/><path class="cls-1" d="M198.83,47.2c-8.46-5.62-17.17-5.29-25.85-.31l-.52.43c-.4.33-.8.65-1.2,1-6.94,6-9.82,13.53-8.13,22.63,1,5.51,4.07,9.85,8.16,13.53l.21.19L173.62,86A23.12,23.12,0,0,0,198.83,47.2Zm-9.37,34.17c-8,2.4-17-3-18.92-11.4-2-8.89,3.84-17.82,12.62-19.11a12.5,12.5,0,0,1,6.85.49c6.82,1.55,11.6,8,11.43,15.48C201.29,73.87,196.09,80.18,189.46,81.37Z"/></svg>