<svg id="Capa_1" data-name="Capa 1" xmlns="http://www.w3.org/2000/svg" viewBox="0 0 197.17 246.37"><defs><style>.cls-1{fill:#fff;}</style></defs><path class="cls-1" d="M191.1,57.89Q165.21,32,139.29,6.08A20,20,0,0,0,124.57,0Q72.69,0,20.81,0A20.26,20.26,0,0,0,0,20.75Q0,72,0,123.23T0,225.7a20.32,20.32,0,0,0,20.62,20.65q77.88,0,155.76,0a20.32,20.32,0,0,0,20.74-20.78q0-76.47,0-152.95A20,20,0,0,0,191.1,57.89Zm-29.59,69.56c8.11.07,16.23.08,24.34,0,2.11,0,2.79.62,2.79,2.76-.06,31.43,0,62.86-.06,94.29,0,8.22-5.09,13.3-13.3,13.31q-76.74,0-153.48,0c-8.08,0-13.2-5.09-13.21-13.13-.05-31.51,0-63-.07-94.54,0-2.25.87-2.69,2.87-2.68,8.89.08,17.77,0,26.65.09,2.51,0,3.49-.59,3.38-3.27-.25-6.12.63-5.3-5.35-5.33-8.28,0-16.57-.06-24.85,0-2,0-2.7-.5-2.69-2.59.05-31.6,0-63.2.06-94.8,0-7.79,5.11-12.93,12.87-12.94q51.12-.11,102.24,0c3.16,0,3.4.31,3.4,3.6,0,12.3,0,24.6,0,36.9,0,12.14,8.88,20.94,21.06,21,7.18,0,14.35-.07,21.53,0,2.28,0,3-.73,2.9-3-.2-6.56.72-5.58-5.54-5.64-6-.05-12,0-17.93,0-8.38-.06-13.42-5.07-13.46-13.42,0-10.25,0-20.5,0-30.75,0-.65-.24-1.35.28-2,.91.21,1.35,1,1.93,1.58,15.23,15.21,30.41,30.47,45.69,45.62a16.05,16.05,0,0,1,5.06,12.11q-.13,20.63,0,41.25c0,2.36-.68,3.07-3,3-9-.13-17.94,0-26.91-.09-2.21,0-3,.63-2.94,2.9C156,128.45,155,127.4,161.51,127.45Z"/><path class="cls-1" d="M49.21,122.73A49.35,49.35,0,0,0,98,172.62c27.41.34,50.17-22.19,49.95-49.24a49.37,49.37,0,0,0-98.74-.65Zm90,.25c0,23.51-18.21,40.69-41,41-22.95-.77-40.31-18.18-40.3-40.71,0-23.67,18.5-41,41.17-40.75S139.21,100.4,139.25,123Z"/><path class="cls-1" d="M95.75,209.06c-10.58.11-21.16.05-31.75.05-10.07,0-20.14,0-30.21,0-5.69,0-5-.69-5.08,5,0,3.51,0,3.52,3.51,3.52q30.48,0,60.94,0c6.36,0,5.44.92,5.64-5.53C98.88,209.78,98.1,209,95.75,209.06Z"/><path class="cls-1" d="M57.6,57.77c7.85,0,15.7,0,23.55,0,6,0,5.12.79,5.36-5.31.11-2.64-.8-3.31-3.34-3.29-16.3.1-32.6,0-48.9.07-6.32,0-5.4-.92-5.61,5.56-.08,2.39.78,3.05,3.08,3C40.36,57.7,49,57.77,57.6,57.77Z"/><path class="cls-1" d="M115.2,187.5c.08-2.37-.74-3.06-3.06-3-10.92.1-21.85,0-32.77.06-6.34,0-5.43-1-5.6,5.81-.06,2.13.71,2.81,2.8,2.77,6-.1,11.94,0,17.92,0,5,0,10.06,0,15.1,0C115.92,193,115,194,115.2,187.5Z"/><path class="cls-1" d="M132.69,184.52c-6.37,0-5.45-1-5.62,5.79-.06,2.11.66,2.83,2.78,2.79,6-.11,11.94,0,17.92,0,5,0,10.06,0,15.1,0,6.35-.07,5.43.91,5.63-5.54.07-2.34-.7-3.08-3.05-3.06C154.53,184.56,143.61,184.46,132.69,184.52Z"/><path class="cls-1" d="M80.39,33.2c4.68-.09,9.38,0,14.07,0,3.75,0,7.5,0,11.26,0,6-.07,5.19.86,5.38-5.52.07-2.33-.67-3.11-3-3.08-8.1.13-16.2,0-24.3.07-6.69.06-5.73-1.16-5.88,6C77.84,32.53,78.49,33.23,80.39,33.2Z"/><path class="cls-1" d="M31.13,193.08c4.7-.06,9.39,0,14.08,0,3.75,0,7.5,0,11.26,0,6.12-.07,5.21.86,5.44-5.48.09-2.55-.87-3.16-3.25-3.12-8,.12-16,0-24,.07-6.75.07-5.8-1.3-5.93,6.23C28.65,192.59,29.44,193.11,31.13,193.08Z"/><path class="cls-1" d="M141.08,209.07c-8.19.09-16.37,0-24.56.05-6.64.06-5.7-1.17-5.84,6.07,0,1.91.69,2.54,2.54,2.5,4.61-.09,9.21,0,13.82,0,3.67,0,7.34.05,11,0,6.64-.1,5.67,1.05,5.85-5.82C144,209.69,143.17,209.05,141.08,209.07Z"/><path class="cls-1" d="M59.34,33.17h.26c1.45,0,2.9,0,4.34,0s2.24-.54,2-1.94c-.41-2.18,1.33-4.74-1.14-6.53-.12-.09-.34-.06-.51-.06-3.06,0-6.13,0-9.19,0-1.35,0-1.67.72-1.77,1.93C52.75,33.17,52.73,33.17,59.34,33.17Z"/><path class="cls-1" d="M109.9,49.31c-.18-.13-.5-.08-.75-.08-3,0-6,0-9,0-1.32,0-1.7.67-1.8,1.9-.59,6.65-.61,6.65,6,6.65h.51c1.37,0,2.73,0,4.09,0s2.27-.47,2-1.9C110.61,53.68,112.32,51.13,109.9,49.31Z"/><path class="cls-1" d="M166.43,209.11c-2.81,0-5.62.06-8.43,0-1.67,0-2.24.68-2.21,2.29.11,7.6-.88,6.11,6.12,6.29,7.13,0,7.09,0,6.56-6.62C168.36,209.63,167.8,209.09,166.43,209.11Z"/><path class="cls-1" d="M81.23,131.14c1.94-.82,2.45-1.66,1.87-3.84-2-7.69,1.75-15.71,8.76-18.4-.41,1.27-.66,2.17-1,3-.91,2.37,1,2.77,2.38,2.87,2,.13,4.24,3.5,5.83,0a89.23,89.23,0,0,0,3.52-10.42,4.56,4.56,0,0,0-2-5.57c-2.27-1.51-4.51-3.08-6.82-4.55-6.44-4.07-4.27-4.72-9,2.06-.94,1.33-.66,2.19.67,2.85,2.21,1.08,2,1.81,0,3.07A24.71,24.71,0,0,0,74,127.3C75.23,133.63,75.35,133.64,81.23,131.14Z"/><path class="cls-1" d="M98.08,131.59A89.23,89.23,0,0,0,94.56,142a4.54,4.54,0,0,0,2,5.56c2.28,1.51,4.51,3.08,6.82,4.54,6.46,4.09,4.28,4.75,9-2,.92-1.31.73-2.18-.64-2.86-2.11-1-2.09-1.72,0-3.07,8.8-5.69,12.46-14,11.44-24.3-.68-6.82-1.39-7.1-7.48-4.5-1.71.73-2.27,1.49-1.74,3.46,2.1,7.88-1.6,15.93-8.69,18.65.41-1.26.66-2.16,1-3,.92-2.36-1-2.8-2.36-2.9C102,131.42,99.66,128.1,98.08,131.59Z"/></svg>