<svg id="Capa_1" data-name="Capa 1" xmlns="http://www.w3.org/2000/svg" viewBox="0 0 234.53 104.04"><defs><style>.cls-1{fill:#fff;}</style></defs><path class="cls-1" d="M150.22,6.78c2.83,2.41,6.39,2.51,9.06,4.64,5.41,4.31,10.28,9.14,12.45,15.72,2.08,6.27,2.55,12.85.14,19.34-2.52,6.79-5.14,11.45-11.34,15.79-4.42,3.09-9.36,5.91-15.23,5.71-2.15-.08-4.31,0-6.47,0-8.41,0-17.21-5-22.06-12.14-2.09-3.07-4-6-5-9.73a16.12,16.12,0,0,1-.84-3.74c0-2.35,0-4.7,0-7,0-9.24,4.74-17.22,12.53-23A26.17,26.17,0,0,1,141.2,6.75C144.13,6.91,147.07,6.78,150.22,6.78Zm-4.7,15.32c-14.19-1.42-19,7.77-19.27,15.47-.18,4.61,2.2,8.32,5.19,11.31,3.85,3.85,9.08,4.06,14.24,3.75,1.41-1.58,3.74-1.57,5.25-2.92s3.06-3,4.59-4.55C159,33.2,155.8,27.26,145.52,22.1Z"/><path class="cls-1" d="M50.62,52.67c-1.79,5.19-.22,10.25-1.11,15.27H44.07v6.79H26.37V63.9l-4-2.06-7.23,7.23L5.29,59.24c2.86-1.43,5.08-4.49,7.8-6.91.87-2.49-.62-4.39-1.39-6.67h-10V31.55c3.14-.17,6.57,0,10-.08,1-1.76-.54-4.07,1.5-5.34l-7.5-7.5,9.41-9.41,5.8,5.8L26.23,9.7V0h17.5V7.84H65C61.32,14,56.26,18.4,51.53,23.25c-3.8,0-7.71.17-11.6-.05a10.15,10.15,0,0,0-8.51,3.65c-1.19,1.3-2.48,2.5-3.81,3.83,0,1.61-1.14,3-1.32,4.6a16.3,16.3,0,0,0,3.46,12c2.79,3.61,6.84,5.07,11.27,5.32C44.14,52.81,47.27,52.67,50.62,52.67Z"/><path class="cls-1" d="M75.29,36c4.71.78,8.7-.43,12.82-1.22l2.8-2.8V26.2L88,23.25H72.29V67.78H57.08V22.36A95.78,95.78,0,0,0,69.92,8H95.8c4.58,2.25,8.86,4.34,10.7,9.1,1.62,4.2,2.79,8.44,1.71,13.08-1.14,4.87-4.36,8.18-7.8,11.15,1.69,3,5.44,3.23,6.79,6.07V67.21C96.9,56.3,85.17,47.69,75.29,36Z"/><path class="cls-1" d="M232.52,51.29l2,2c0,2.37-.06,4.9,0,7.42s.09,4.9-1.61,7.15h-37V22.53c4.22-5.45,11.21-8.65,16-15.55V51.29Z"/><path class="cls-1" d="M175.84,22.48,190.19,8.13c.21.75-.26-.33.41.07.15.1.34.29.34.44,0,19.58,0,39.16,0,59H175.84Z"/><rect class="cls-1" x="1.73" y="82.06" width="230.84" height="2.35"/><path class="cls-1" d="M0,99.16,1.69,99a4.25,4.25,0,0,0,.56,1.78,3.12,3.12,0,0,0,1.37,1.12,5,5,0,0,0,2.08.43A4.67,4.67,0,0,0,7.51,102a2.51,2.51,0,0,0,1.17-.89,2.2,2.2,0,0,0,.38-1.23,1.94,1.94,0,0,0-.37-1.19,2.72,2.72,0,0,0-1.22-.85,21.27,21.27,0,0,0-2.41-.7,12,12,0,0,1-2.62-.9A3.73,3.73,0,0,1,1,94.89,3.49,3.49,0,0,1,.52,93.1a3.8,3.8,0,0,1,.58-2,3.6,3.6,0,0,1,1.7-1.44,6.12,6.12,0,0,1,2.49-.5A6.54,6.54,0,0,1,8,89.64a3.93,3.93,0,0,1,1.77,1.52,4.59,4.59,0,0,1,.66,2.27l-1.72.14a3,3,0,0,0-.93-2.07,3.56,3.56,0,0,0-2.37-.69A3.65,3.65,0,0,0,3,91.44,1.92,1.92,0,0,0,2.25,93a1.68,1.68,0,0,0,.52,1.28,7,7,0,0,0,2.71,1,17.07,17.07,0,0,1,3,.92,4.1,4.1,0,0,1,1.75,1.47,3.8,3.8,0,0,1,.56,2,4.15,4.15,0,0,1-2.4,3.75,5.82,5.82,0,0,1-2.61.57,7.33,7.33,0,0,1-3.08-.57,4.42,4.42,0,0,1-2-1.72A5,5,0,0,1,0,99.16Z"/><path class="cls-1" d="M13.28,103.79V89.37h9.8v1.7h-8v4.42h7.5v1.69h-7.5v4.91h8.32v1.7Z"/><path class="cls-1" d="M25.9,103.79V89.37h6a7.49,7.49,0,0,1,2.75.39,3.07,3.07,0,0,1,1.51,1.37,4.26,4.26,0,0,1,.56,2.17,3.76,3.76,0,0,1-.93,2.59,4.59,4.59,0,0,1-2.89,1.34A4.46,4.46,0,0,1,34,98a9.91,9.91,0,0,1,1.49,1.92l2.35,3.92H35.59l-1.8-3c-.52-.86-.95-1.53-1.29-2a4.27,4.27,0,0,0-.91-1,2.63,2.63,0,0,0-.82-.38,4.76,4.76,0,0,0-1-.07H27.69v6.4Zm1.79-8.06h3.86a5.22,5.22,0,0,0,1.92-.27,2,2,0,0,0,1.05-.86,2.47,2.47,0,0,0,.36-1.3,2.22,2.22,0,0,0-.69-1.68A3.14,3.14,0,0,0,32,91H27.69Z"/><path class="cls-1" d="M43.08,103.79,37.82,89.37h2l3.52,10.48c.28.84.52,1.62.71,2.36.21-.79.45-1.58.73-2.36l3.66-10.48h1.83l-5.3,14.42Z"/><path class="cls-1" d="M52.14,103.79V89.37h1.79v14.42Z"/><path class="cls-1" d="M66.76,98.74l1.8.48a6.53,6.53,0,0,1-2,3.58A5.35,5.35,0,0,1,62.94,104a6.16,6.16,0,0,1-3.56-1,5.84,5.84,0,0,1-2.09-2.75,10.32,10.32,0,0,1-.72-3.87,9,9,0,0,1,.81-3.93A5.74,5.74,0,0,1,59.69,90,6.39,6.39,0,0,1,63,89.12a5.28,5.28,0,0,1,3.42,1.11,5.73,5.73,0,0,1,1.94,3.09l-1.77.45a4.48,4.48,0,0,0-1.37-2.3,3.54,3.54,0,0,0-2.25-.71,4,4,0,0,0-4.09,2.93,9,9,0,0,0-.43,2.77,9.26,9.26,0,0,0,.51,3.22,4,4,0,0,0,1.56,2,4.24,4.24,0,0,0,2.31.68,3.71,3.71,0,0,0,2.55-.93A4.82,4.82,0,0,0,66.76,98.74Z"/><path class="cls-1" d="M71.07,103.79V89.37h1.79v14.42Z"/><path class="cls-1" d="M75.48,96.77a8.16,8.16,0,0,1,1.81-5.62,6,6,0,0,1,4.68-2,6.2,6.2,0,0,1,3.39,1,6,6,0,0,1,2.29,2.66,9.07,9.07,0,0,1,.79,3.87,8.92,8.92,0,0,1-.83,3.93,5.91,5.91,0,0,1-2.36,2.62A6.42,6.42,0,0,1,82,104a6.11,6.11,0,0,1-3.42-1,6.23,6.23,0,0,1-2.28-2.68A8.58,8.58,0,0,1,75.48,96.77Zm1.85,0a6,6,0,0,0,1.32,4.1,4.4,4.4,0,0,0,6.64,0,6.39,6.39,0,0,0,1.3-4.3A7.65,7.65,0,0,0,86,93.52a4.44,4.44,0,0,0-1.63-2A4.27,4.27,0,0,0,82,90.76a4.45,4.45,0,0,0-3.28,1.39Q77.34,93.54,77.33,96.8Z"/><path class="cls-1" d="M90.14,99.16l1.7-.16a4.11,4.11,0,0,0,.56,1.78,3.09,3.09,0,0,0,1.36,1.12,5,5,0,0,0,2.08.43,4.64,4.64,0,0,0,1.81-.33,2.41,2.41,0,0,0,1.17-.89,2.14,2.14,0,0,0,.39-1.23,2,2,0,0,0-.37-1.19,2.78,2.78,0,0,0-1.22-.85,21.68,21.68,0,0,0-2.42-.7,12.06,12.06,0,0,1-2.61-.9,3.73,3.73,0,0,1-1.45-1.35,3.4,3.4,0,0,1-.48-1.79,3.81,3.81,0,0,1,.59-2A3.51,3.51,0,0,1,93,89.62a6,6,0,0,1,2.48-.5,6.51,6.51,0,0,1,2.66.52,3.83,3.83,0,0,1,1.77,1.52,4.6,4.6,0,0,1,.67,2.27l-1.72.14a3.05,3.05,0,0,0-.94-2.07,3.52,3.52,0,0,0-2.36-.69,3.61,3.61,0,0,0-2.37.63A1.93,1.93,0,0,0,92.39,93a1.69,1.69,0,0,0,.53,1.28,6.85,6.85,0,0,0,2.7,1,17.07,17.07,0,0,1,3,.92,4.1,4.1,0,0,1,1.75,1.47,3.71,3.71,0,0,1,.56,2,4.12,4.12,0,0,1-2.39,3.75,5.89,5.89,0,0,1-2.62.57,7.4,7.4,0,0,1-3.08-.57,4.35,4.35,0,0,1-2-1.72A5.16,5.16,0,0,1,90.14,99.16Z"/><path class="cls-1" d="M108.68,103.79V89.37h9.8v1.7h-8v4.42H118v1.69h-7.49v4.91h8.32v1.7Z"/><path class="cls-1" d="M126.84,103.79V89.37h1.79v14.42Z"/><path class="cls-1" d="M131.78,103.79V89.37h1.84l7.12,11.32V89.37h1.72v14.42h-1.84L133.5,92.46v11.33Z"/><path class="cls-1" d="M151.81,98.14v-1.7h5.75v5.36a10.24,10.24,0,0,1-2.73,1.68,7.63,7.63,0,0,1-2.89.57,7.41,7.41,0,0,1-3.63-.91,6,6,0,0,1-2.46-2.63,8.66,8.66,0,0,1-.83-3.85,9.3,9.3,0,0,1,.83-3.93A5.67,5.67,0,0,1,148.23,90a7.06,7.06,0,0,1,3.57-.89,6.68,6.68,0,0,1,2.66.51A4.51,4.51,0,0,1,156.33,91a6.59,6.59,0,0,1,1,2.36l-1.62.48a5.46,5.46,0,0,0-.75-1.74,3.17,3.17,0,0,0-1.3-1,4.37,4.37,0,0,0-1.87-.38,5.08,5.08,0,0,0-2.12.4,4,4,0,0,0-1.45,1,5,5,0,0,0-.85,1.43,7.87,7.87,0,0,0-.52,2.9,7.38,7.38,0,0,0,.62,3.23,4.16,4.16,0,0,0,1.82,1.93,5.33,5.33,0,0,0,2.53.63,5.69,5.69,0,0,0,2.28-.48,5.8,5.8,0,0,0,1.68-1V98.14Z"/><path class="cls-1" d="M160.23,103.79V89.37H170v1.7h-8v4.42h7.5v1.69H162v4.91h8.32v1.7Z"/><path class="cls-1" d="M172.81,103.79V89.37h1.84l7.12,11.32V89.37h1.72v14.42h-1.84l-7.12-11.33v11.33Z"/><path class="cls-1" d="M186.81,103.79V89.37h1.79v14.42Z"/><path class="cls-1" d="M191.8,103.79V89.37h9.8v1.7h-8v4.42h7.5v1.69h-7.5v4.91h8.32v1.7Z"/><path class="cls-1" d="M204.42,103.79V89.37h6a7.55,7.55,0,0,1,2.76.39,3,3,0,0,1,1.5,1.37,4.26,4.26,0,0,1,.57,2.17,3.77,3.77,0,0,1-.94,2.59,4.59,4.59,0,0,1-2.88,1.34,4.57,4.57,0,0,1,1.08.72A9.91,9.91,0,0,1,214,99.87l2.36,3.92h-2.26l-1.79-3c-.53-.86-1-1.53-1.3-2a4.27,4.27,0,0,0-.91-1,2.63,2.63,0,0,0-.82-.38,4.69,4.69,0,0,0-1-.07h-2.08v6.4Zm1.79-8.06h3.86a5.22,5.22,0,0,0,1.92-.27,2.06,2.06,0,0,0,1.06-.86,2.47,2.47,0,0,0,.36-1.3,2.23,2.23,0,0,0-.7-1.68A3.14,3.14,0,0,0,210.5,91h-4.29Z"/><path class="cls-1" d="M218.37,103.79V89.37h1.8v14.42Z"/><path class="cls-1" d="M221.84,103.79l5.21-14.42H229l5.55,14.42h-2.05l-1.58-4.37h-5.67l-1.49,4.37Zm3.91-5.92h4.6l-1.42-4c-.43-1.22-.75-2.21-1-3a19.37,19.37,0,0,1-.73,2.76Z"/></svg>