<svg id="Capa_1" data-name="Capa 1" xmlns="http://www.w3.org/2000/svg" viewBox="0 0 436.71 105.34"><defs><style>.cls-1{fill:#fff;}</style></defs><path class="cls-1" d="M103.65,36.73a57,57,0,0,1-2.52,32,52.84,52.84,0,0,1-6.32,11.66c-.43.63-1.09,1.14-1,2l-4.73,5.08a18.64,18.64,0,0,0-3.82,3.86l-1.41,1.22a1.08,1.08,0,0,0-1.13.93l-1.08.73a.54.54,0,0,0-.63.48l-1,.77a1,1,0,0,0-1,.61l-1.06.72c-.8.41-1.61.78-2.38,1.23a57.91,57.91,0,0,1-16.8,6.43l-1.32.42c-1.67-.25-3.35-.61-4.9.42l-1.05.06c-.47-.44-1.06-.31-1.61-.33a49.42,49.42,0,0,1-19.16-4.43c-3.1-1.44-6.33-2.61-9.5-3.9l-2.29-1.53A4.45,4.45,0,0,0,16,92.89l-.43-.29c-.35-1.24-1.44-1.86-2.25-2.7C3.12,79.35-1,66.72.21,52.19A57.9,57.9,0,0,1,10.52,24.08,56.26,56.26,0,0,1,27.17,8.32a50.47,50.47,0,0,1,30-7.91A56.08,56.08,0,0,1,67.24,2c.67.16,1.31.57,2.05.3L71.07,3c0,.61.21.78.72.38L73.51,4l0,.31L74,4.22C81.31,7.07,88,11,93.48,16.72a99.5,99.5,0,0,1,7.72,11.89l.43,1.41a1.14,1.14,0,0,0,.38,1.37l.79,2-.12.1.22.17ZM49.12,52.93h-.21v31.8c0,.85,0,1.69,0,2.54s.23,1.27,1.05,1.32a1.36,1.36,0,0,0,1.61-1,7.92,7.92,0,0,0,.1-1.69q0-25.11,0-50.23c0-3.11,0-3.34,3.06-3.62,4.6-.43,9.21-2.35,13.87.26,1.8,1,2.58,2,2.56,4Q71,55.9,71,75.5c0,.79-.44,2,.46,2.3S73,77,73.64,76.41a37.62,37.62,0,0,0,7.48-11c6.52-14.94,6.64-29.24-5-42-3-3.23-6.29-6.38-11.11-6.83a44.26,44.26,0,0,0-13.92.53,2.2,2.2,0,0,0-2,2.47Q49.15,36.3,49.12,52.93ZM29.56,57H29.5c0-7.78,0-15.55,0-23.32,0-.65.31-1.58-.58-1.83s-1,.67-1.33,1.16c-6.9,9.56-9.67,20.15-7.59,31.82a31.78,31.78,0,0,0,7.6,16.06c.42.46.74,1.28,1.45,1.06.89-.28.51-1.2.51-1.85C29.57,72.36,29.56,64.66,29.56,57Z"/><path class="cls-1" d="M337.22,75.22c-3.65-1.13-7.45-1.35-11.21-1.78-12.84-1.47-25.75-1.83-38.63-2.71-7.39-.51-14.8-.49-22.21-.69-17.85-.46-35.72-.43-53.58-.4a5.14,5.14,0,0,0-2.49.28,105.68,105.68,0,0,0-10.68,0,49.7,49.7,0,0,0-11.88-.05,90.44,90.44,0,0,0-10.67.06,43.41,43.41,0,0,0-8.68,0c-6.59-.41-13.18,0-19.77,0l-.28-1a15.31,15.31,0,0,1,7.9-2.53c3.65,0,7.31-.25,11-.4a8,8,0,0,0,4.27,0c3.91-.14,7.84.19,11.74-.32a.76.76,0,0,0,1-.12l24.95-.4a3.3,3.3,0,0,0,1.86.25c7.54,0,15.09.07,22.64,0,5.49,0,11,.23,16.48-.18l18.88,0a.65.65,0,0,0,.95,0l13.89-.06,8.66,0q21.65.15,43.29,1.19a16.65,16.65,0,0,0,4.57.14c1.33.47,2.65.31,4.62,0a10.38,10.38,0,0,0-4-1.45c-.35-.91-.69-1.83-1-2.74-.52-1.33-.3-2.08,1.35-1.79,2.35.4,4.71.8,7.07,1.15,1.26.19,2.54.56,3.79-.34-4.73-1.1-9.35-2.67-14.23-3-.59-.43-1.05-.34-1.35.36l-3.84,2.4-.1,0,0,.1a1.48,1.48,0,0,0-.19.35,38.67,38.67,0,0,1-18.12,1.46c-4.89-.76-9.16-2.52-12.23-6.73-1.45-2-2-4.3-3.17-6.34,0-1.06-.1-2.12-.11-3.17s.39-1.67,1.48-1.65c3.88.07,7.58-1.41,11.51-1.18,2,.13,3,.61,3.43,2.76a5.73,5.73,0,0,0,8.63,4c2.08-1.29,2.12-3.23,0-4.48a17.24,17.24,0,0,0-5.58-1.9C311.92,43.42,307,41.64,303,38A13,13,0,0,1,299,28.22c.12-4.09,2.14-7.3,4.8-10.21a47.19,47.19,0,0,1,8.13-3.24,14.81,14.81,0,0,1,3.74-.43c5.53-.27,11-.3,16.17,2.23.22.91,1.1,1,1.75,1.25a6.69,6.69,0,0,1,2.82,2.44c1.77,2.55,1.75,2.53,4.24.78.91-.64,1.92-1.14,2.87-1.73,1.34-.82,2.82-1.46,3.81-2.76,3.43-1.35,6.41-3.54,9.66-5.24,5.88-3.07,11.76-6.13,17.93-8.62,9.4-3.78,18.93-3,28.53-1.12a97.68,97.68,0,0,1,10.92,2.55A9,9,0,0,1,418.06,6c-.13,1-1.14.39-1.5,1-.16.43.32.7.52.71,2.55.12,3.26,2.13,4.09,4a4.06,4.06,0,0,0,3.92,2.83c5.42.34,8.4,6.88,4.89,11.57-2.4,3.2-2.17,6.13-1.42,9.45,1.2,5.32.55,10.69.48,16,0,1.22-.82,1.81-2,2-2,.39-4.11.12-6.07.82a63.8,63.8,0,0,0-11.63.67l-2.29.23H389.6c3,2,6.29,3.25,6.83,7.28a34.17,34.17,0,0,1-10.68.11c-2.09-.32-4.21-.09-6.27-.61.13-.27,0-.4-.26-.45.17-1,.33-2.09.5-3.13a6.52,6.52,0,0,0,.23-3.31c.91-.86,2-.44,3-.37,1.33.07,2.67,0,3.91,0a11.63,11.63,0,0,1-3.39-1,2.86,2.86,0,0,1-1.93-2.36c-.19-3.15-.93-6.22-1-9.41-.17-7.41-.73-14.82-1.14-22.22-.2-3.46-.54-6.91.18-10.34l1.48-2,1.8-.59a3.36,3.36,0,0,0,1.74.51c-2.54,2.59-2,5.7-1.51,8.81a4,4,0,0,0,0,3.08,4.49,4.49,0,0,0,.06,2.92s-.11.1-.1.12a1.24,1.24,0,0,0,.17.23l.37,8.73c-.26.2-.24.38,0,.54.14,1.66.27,3.31.41,5-.24.19-.25.37,0,.54a44.5,44.5,0,0,0,1.66,10.82,3.32,3.32,0,0,0,2.95,2.66c2.1.2,4.2.56,6.29.71,9.39.67,18.79.27,28.18.16a2.64,2.64,0,0,0,2.88-2.19,14.08,14.08,0,0,0,.58-5.24c-.67-3.82-.51-7.72-1.13-11.57a93.39,93.39,0,0,0-6.3-21.43,3.86,3.86,0,0,0-3.41-2.46,103.39,103.39,0,0,0-13.5-1.1.42.42,0,0,0-.71-.07c-2.72-.6-5.49,0-8.21-.43a10.33,10.33,0,0,0-4.56-.08l-2.13-.24-.12-1L398.71,5c-1.59-.85-3.29-.74-4.93-.86a89.56,89.56,0,0,0-15.62-.31,27,27,0,0,0-9.25,2.83c-3.09,1.52-6.06,3.27-9.08,4.92a4.54,4.54,0,0,0-2.64,1.45h0a4.47,4.47,0,0,0,2.78-1,11.41,11.41,0,0,0,3.39-1.33c.17.23.25.25.21-.07l3.64-1.09c.12.22.23.19.33,0,4.29-.56,4.95-.1,6.17,4.08A44.22,44.22,0,0,1,375,23.09c.4,5.63,1.21,11.23,1.14,16.9,0,2.46.41,4.92.59,7.38.07,1-.11,2.2-1.4,1.7-5.08-2-10.75-2.87-14.47-7.43A31.77,31.77,0,0,1,357.14,35c-1.34-2.82-2-2.94-5-2.22-4,.95-7.47,2.95-11.2,4.43-1.83.73-2.66,1.67-1.43,3.65a13.82,13.82,0,0,1,1,3,1,1,0,0,0,.08,1.22l.64,1.14a1.44,1.44,0,0,0,1.54-.14l1.86-.33c4.43-.28,8.69-1.83,13.17-1.82l16.41,7.93c.17.5.57.6,1,.57a2.7,2.7,0,0,1,1.55,2.9c-.13,2.09-.05,4.19-.87,6.17l-.42.18-1.23-.43c-.05-.32-.16-.5-.47-.21l-2.52-1.94c0-.3-.18-.36-.44-.27a4.84,4.84,0,0,0-2-1.49c-1.47-1.66-3.56-2.45-5.29-3.74-.37-.28-.88-.73-1.32-.36s-.22,1,0,1.54a19.92,19.92,0,0,1,1.84,9.59,4,4,0,0,0,.14,1.46,1.29,1.29,0,0,0,2.2.39c1.64-2.19,1.64-2.19,3.61-.55l1,.7a2.66,2.66,0,0,0,1.89.55l1.5.39a1.49,1.49,0,0,0,1.47.43c3,.93,6.1.94,9.17,1.36a70.32,70.32,0,0,0,23.51-.68c2.45-.49,5.12-.86,7.56-.09,3.57,1.12,6.95.52,10.35-.39a2,2,0,0,0,1.46-2.65c-.4-1.26-1.43-.92-2.3-.73A133.83,133.83,0,0,1,407,66.71c-6.84.44-13.68.86-20.54.13-5.37-.58-10.43-2.48-15.69-3.53a1.26,1.26,0,0,1,.74-1.19,6.67,6.67,0,0,0,4,.48c.17.26.37.42.67.21a107,107,0,0,0,14.49,1.71c3.52.27,7.19.87,10.56,0a47.76,47.76,0,0,1,9.38-1.17c2.3-.15,4.6-.48,6.9.47,1.4.58,2.48.19,3-1.74A11.91,11.91,0,0,1,426.85,55c.8-.42,1.74-.79,2.55,0s.67,1.64.35,2.7c-.58,1.93-1.58,3.69-.33,6,1.52,2.89.05,5.17-3.21,5.92a37.13,37.13,0,0,1-8.59,1.19,18.45,18.45,0,0,0-4.19.55,4.18,4.18,0,0,0-2.77,4.38c.18.82.93.76,1.5,1,4.77,1.57,9.56,3.08,13.91,5.65,3.56,2.1,6.83,4.53,9,8.2a12.86,12.86,0,0,1,1.66,7.33,1.62,1.62,0,0,1-1.86,1.77q-10.08,0-20.15,0c-1.14,0-1.92-.38-2.09-1.61-.83-6.26-4.85-10.31-9.64-13.78A44.75,44.75,0,0,0,389,77.64c-4.1-1.19-8.38-.27-12.66.06,2.44.86,4.9,1.7,7.34,2.61,6.07,2.25,11.88,5,16.32,9.89a11.54,11.54,0,0,1,3.28,7.16c.09,1.58-.4,2.31-2.13,2.31-11.88,0-23.76,0-35.64,0-1.22,0-2.44-.05-1.63-1.89,4.44-10-.78-14.35-7.11-17.4a42.14,42.14,0,0,0-10.64-3.2c-1.65-.31-3.06-1.53-4.85-1.17a.78.78,0,0,0-1-.33Zm-.28-39.16c.22.76.64,1,1.38.61a13.22,13.22,0,0,1,1.85-1c1.72-.57,2.24-1.58,1.8-3.37a19.78,19.78,0,0,1-.48-4.61c0-1.82-.69-1.3-1.55-.59-1.42.51-1.37,1.52-.93,2.68l-1.14,1.4-1.26.8c-.24-1.37-1.13-1.62-2.28-1.21a4.39,4.39,0,0,0-2.48,1.7c-.46-.16-.4.2-.37.41s.14.52.51.37C333.54,34.37,334.78,36,336.94,36.06Zm21,23.06-.12-1.31c0-.86-.37-1.64-1.27-1.6-1.07,0-.95,1.09-1,1.82a35.61,35.61,0,0,0,.17,6.69c-.1.67-.21,1.34-.32,2-.36-.15-.63-.1-.74.33-.87,1.51.36,3,0,4.51A1.1,1.1,0,0,0,355.3,73c.75.4,1.23-.15,1.55-.68A8.45,8.45,0,0,0,358,68s.11-.1.11-.14a2,2,0,0,0-.11-.32l.05-1.15a9.87,9.87,0,0,0,0-4.71,3.48,3.48,0,0,0-.07-2.07s.1-.12.09-.16A2.28,2.28,0,0,0,358,59.12Zm-15.9,10.34L322.3,68.17c5,1.32,10,1.58,15.06,2.25s9.78,1.32,14.68,1.94c.68.08,1.88.67,1.64-1,.13-.46.14-.83-.49-.84a10.67,10.67,0,0,0-4.45-.52,1,1,0,0,0-1.38-.09,22.28,22.28,0,0,0-4.82-.42A.28.28,0,0,0,342.05,69.46Zm11.39-16.95c1.27-1.6,3.18-1.71,5.41-1.93-2.72-2.17-5.44-3-8.35-2.47a78.71,78.71,0,0,0-8.66,2.57c-.62.2-1.4.36-1.61,1.19-1.56,1-1.55,3-2.69,4.27-.85,1-.31,1.38.82,1.53,3,.38,5.94.84,8.9,1.28.84,1.3,2.17.84,3.17.59,1.17-.29.75-1.58.82-2.5C352.31,55.69,352.55,53.94,353.44,52.51Zm4.71-22.8c2,3.25,3.94,6.52,6,9.73a8.52,8.52,0,0,0,5,3.71c2.94.85,3.56.39,3.56-2.58a17.33,17.33,0,0,0-.06-1.91c-.23-1.85.62-4.36-2.64-4.41-.14,0-.37-.26-.39-.43-.42-2.57-2.63-2.23-4.34-2.7a.88.88,0,0,0-.45-1.18l-.33-2.87a3.84,3.84,0,0,0-.48-2.61c-.06-.64-.11-1.28-.17-1.92.39-1.4-.05-2.8,0-4.2a2.59,2.59,0,0,1,1.86-2.75c1.45-.4,1.86-1.42,2.16-2.83-3.51.29-6.32,1.92-9.23,3.28a2,2,0,0,0-.93,1.58,11.93,11.93,0,0,0-.14,5,16,16,0,0,0,.1,5.93A.88.88,0,0,0,358.15,29.71ZM318.89,16a29.39,29.39,0,0,0-4.47,0c-4.45.59-8.5,2.05-11.31,5.87-3.51,4.77-3.1,13.42,3.63,16.93,5,2.61,10.36,3.82,15.62,5.48,2,.64,3.33,1.76,3.56,3.9s-1,3.6-2.9,4.43a7.48,7.48,0,0,1-10.49-4.77c-.5-1.68-1.25-2.32-3-2.11-1.89.23-3.8.29-5.71.41-5.12.34-5.32.59-3.42,5.53,1.32,3.41,3.27,6.74,6.74,8,6.48,2.37,13.22,3.18,20.1,1.29,6.26-1.72,10.52-5.27,11.54-11.93.62-4.06.06-7.85-3-11-2.49-2.61-5.7-3.87-9-4.89-3.55-1.11-7.2-1.87-10.79-2.83a3.2,3.2,0,0,1-2.55-2.54,2.84,2.84,0,0,1,1.15-3c3.19-2.2,8.93-.28,9.54,2.85.29,1.48,1.28,2,2.78,2,3.11-.07,6.14-.91,9.26-.74.81.05,1.48-.39,1.28-1.28-.74-3.27-1.87-6.45-4.7-8.45C328.87,16.32,324.29,15.55,318.89,16Zm29.95,10.7c0,5.57,0,5.58,5,2.89a3.33,3.33,0,0,1,.4-.16c.65-.28,1.43-.54,1.41-1.39a46.12,46.12,0,0,0-.47-7.79c-.19-.92-.66-1.28-1.66-1.08-3.37.69-4.54,2-4.62,5.42C348.83,25.29,348.84,26,348.84,26.7Zm-5.79,2.72H343v2.12c0,2.94.19,3.11,2.68,1.64.91-.54,2.59-.56,2.35-2.27-.32-2.3-.73-4.59-1.12-6.87-.1-.59-.4-1.31-1.06-.89-1.24.79-2.95,1.27-2.78,3.32C343.12,27.45,343.05,28.44,343.05,29.42Zm84.52-4.79c0-2.67-1.08-5-1.33-7.4-.14-1.33-.91-1.45-1.91-1.28-1.38.23-.67,1.15-.47,1.77.72,2.35,1.54,4.67,2.27,7,.25.81-.12,2.36.88,2.24C428.19,26.84,427.4,25.35,427.57,24.63ZM374.14,73.9v-.43l-8.93-1.59a2,2,0,0,0-2.14.5c-.26.32-.57.68-.37,1.13s.57.38.92.39ZM318.41,26.15c-.28,0-.56,0-.84,0-1-.05-2,.16-2.09,1.29s.89,1.27,1.7,1.49l4.68,1.24c1.13.29,1.4-.16,1.13-1.22C322.5,27,321,26.1,318.41,26.15Zm70.47,34.51a15.62,15.62,0,0,0,1.65,0c.63-.1,1.65.42,1.73-.55.06-.63-.81-1-1.55-1.13-1.77-.38-3.52-.9-5.29-1.28-.69-.15-1.64-.51-1.87.66a1.41,1.41,0,0,0,1.33,1.78C386.41,60.37,387.94,60.53,388.88,60.66Zm-28.66-2.41c-.42-4.18-1.69-5.58-4.19-4.75C358.31,54.32,359.1,56.43,360.22,58.25Zm68.3.1c.1-.58-.12-1.12-.73-.92a5.75,5.75,0,0,0-2.94,2.85c-.27.45.33.75.76.66C427.06,60.65,428.3,60.06,428.52,58.35Zm-100-26.42c.71.26,1.26.39,1.58-.3.05-.13-.07-.48-.15-.5A1.13,1.13,0,0,0,328.48,31.93Z"/><path class="cls-1" d="M145.73,89.53a11.9,11.9,0,0,0,.45-4.38c0-3,0-6.07.09-9.11a6.92,6.92,0,0,1,.41-2.05,1.51,1.51,0,0,1,1.69-1,1.48,1.48,0,0,1,1.41,1.1,5.49,5.49,0,0,1,.28,1.65c0,6.78,0,13.56,0,20.34a2,2,0,0,1-1.76,2.36c-1.46.38-2.08-.22-2.7-1.29q-4-6.73-8-13.45c-.35-.59-.6-1.59-1.36-1.43s-.47,1.2-.48,1.84c-.09,4-.11,7.91-.18,11.86,0,1.14-.05,2.51-1.57,2.57-1.71.07-1.72-1.38-1.73-2.59q-.06-10.06-.05-20.12c0-1.11-.06-2.38,1.34-2.81s2.4.28,3.13,1.5c2.06,3.45,4.25,6.83,6,10.47A26.48,26.48,0,0,0,145.73,89.53Z"/><path class="cls-1" d="M283.05,72.48c2.08.17,4.35-.22,6.6.2,1.23.23,2,.73,1.86,2.07s-1.09,1.53-2.14,1.54c-2.69,0-5.38.1-8.06.08-1.41,0-2,.54-2.08,2-.31,4.89-.33,4.91,4.45,5,1.7,0,3.4,0,5.09.06,1.13,0,1.89.43,1.9,1.75a1.68,1.68,0,0,1-1.79,1.9c-2.26.09-4.53.15-6.79.08-1.56,0-2.42.5-2.52,2.1a8.09,8.09,0,0,1-.16.83c-.6,4.1,0,4.73,4.06,4.78,2.18,0,4.37.2,6.56.34.88.06,1.72.25,1.78,1.4s-.32,1.83-1.45,2a71.32,71.32,0,0,1-13.55-.06,1.83,1.83,0,0,1-1.68-2.09c.6-4.86,0-9.71-.08-14.56,0-2-.12-4.09-.13-6.14,0-2.56.6-3.17,3.08-3.19C279.63,72.47,281.25,72.48,283.05,72.48Z"/><path class="cls-1" d="M185.57,85.52c0-3.32,0-6.64,0-10,0-1.88.86-2.75,2.69-2.71,3.46.06,6.91.1,10.37.25A3.92,3.92,0,0,1,202,75.59c2.12,4.26,1.58,7.28-2,10.25-1,.85-1.4,1.48-.39,2.74,1.71,2.16,2.74,4.76,4,7.19.4.76.82,1.63-.16,2.25a1.87,1.87,0,0,1-2.63-.55,30,30,0,0,1-3.21-5c-.55-1-1.06-2-1.68-2.94a4.93,4.93,0,0,0-5.56-2.07c-1.21.32-1.19,1.25-1.21,2.18a51,51,0,0,1-.24,6.77c-.15.94-.32,1.88-1.58,1.85s-1.72-.89-1.73-2c0-3.6,0-7.2,0-10.8Zm7.65-1.71c.77,0,1.55,0,2.32,0,2.37-.17,4.36-2,4.29-3.83-.07-2.18-1.88-3.81-4.42-4-.84,0-1.69,0-2.53,0-3.52,0-3.52,0-3.74,3.36C188.87,83.58,189,83.75,193.22,83.81Z"/><path class="cls-1" d="M182.41,86c.66,4.35-1.75,7.73-4.56,10.72-3.42,3.66-10.14,2.68-13.63-1.69s-4-12.81-1-17.4c2.25-3.48,5.39-5.59,9.72-5.17,4.52.43,7.19,3.21,8.68,7.31A15.08,15.08,0,0,1,182.41,86Zm-3.49-.45a17.7,17.7,0,0,0-1.41-6.13,5.9,5.9,0,0,0-4.94-3.5,5.83,5.83,0,0,0-6,3.2,15.33,15.33,0,0,0-1.37,8.65A9.66,9.66,0,0,0,168,94c2,1.92,4,2,6.36.79C178.34,92.75,178.37,89,178.92,85.55Z"/><path class="cls-1" d="M238.58,80.7V93.89c0,.85,0,1.7-.06,2.54S238.15,98,237.16,98s-1.47-.68-1.59-1.61a5.92,5.92,0,0,1,0-.84c0-6.5,0-13,0-19.49,0-1-.19-2.28,1-2.79a2.31,2.31,0,0,1,3.18,1.22c2.61,4.52,5.26,9,7.91,13.51.35.6.76,1.17,1.25,1.94a4.55,4.55,0,0,0,.74-3.09c0-3.67,0-7.34,0-11a6.49,6.49,0,0,1,.25-1.87,1.49,1.49,0,0,1,1.48-1,1.27,1.27,0,0,1,1.22,1,5.91,5.91,0,0,1,.32,1.86q0,9.84-.09,19.69c0,1.07.29,2.4-1.26,2.79s-2.35-.56-3-1.73q-3.58-6.24-7.16-12.48A9.08,9.08,0,0,0,238.58,80.7Z"/><path class="cls-1" d="M215.64,85.48c0-3.18,0-6.35,0-9.53,0-2.5.53-3.07,2.92-3.1,3.47,0,6.93,0,10.39,0a7.87,7.87,0,0,1,.84,0c1,.14,1.77.59,1.72,1.75S230.67,76,229.76,76c-2.68.11-5.36.27-8,.25a2.31,2.31,0,0,0-2.67,2.51c-.05.78,0,1.56,0,2.33-.06,1.51.66,2.21,2.16,2.2q3.6,0,7.2,0c1.2,0,2.36.14,2.3,1.77s-1.06,1.83-2.32,1.84c-2.4,0-4.81.08-7.21.09-1.49,0-2.1.71-2.17,2.21-.28,5.73-.24,5.81,5.44,5.88,1.91,0,3.81,0,5.72,0,.87,0,1.78.1,1.85,1.26a1.72,1.72,0,0,1-1.62,1.89,12.69,12.69,0,0,1-2.31.14c-3.11,0-6.22,0-9.33,0-2.65,0-3.05-.34-3.1-3C215.6,92.12,215.64,88.8,215.64,85.48Z"/><path class="cls-1" d="M111.34,72.94c1.09,0,2.26-.2,2.73,1.2a8,8,0,0,0-.23,1.44c.11,4.86.18,9.73.41,14.6.2,4.32,3.58,6.35,7.54,4.72,1.92-.79,2.47-2.4,2.63-4.23.41-4.71.38-9.44.45-14.16A18.67,18.67,0,0,1,125,74.4a1.21,1.21,0,0,1,1-1.16,1.5,1.5,0,0,1,1.62.75,4,4,0,0,1,.42,2.05c0,4.73.09,9.46,0,14.19a9,9,0,0,1-2.41,6.17c-2.67,2.79-6,2.72-9.46,1.9s-4.89-3.68-5.13-6.8A87.26,87.26,0,0,1,111.34,72.94Z"/><path class="cls-1" d="M264.37,72.75c2.19,0,4.38,0,6.56,0,1.18,0,2.18.39,2.21,1.74,0,1.52-1.09,1.76-2.32,1.83-4.67.26-4.68.26-4.77,5-.07,4.23-.1,8.47-.15,12.7,0,1,0,2-.09,3s-.49,1.66-1.5,1.72-1.47-.68-1.58-1.61a5.38,5.38,0,0,1-.05-1.06c.53-5.85-1.1-11.63-.57-17.48.12-1.29-.74-1.9-2-2-.92-.08-1.83-.12-2.74-.22-1.12-.13-1.86-.67-1.79-1.92s.83-1.7,2-1.71Z"/><path class="cls-1" d="M300.74,99c-2.91,0-5.45-1.39-6.34-3.67-.36-.93-.71-2.06.44-2.61s1.62.39,2,1.29a3.23,3.23,0,0,0,2.63,1.89c1.92.33,3.51-.45,3.7-1.91.26-2-1.05-2.62-2.69-2.76a6.28,6.28,0,0,1-5.74-4,4.47,4.47,0,0,1,.84-4.91,5.07,5.07,0,0,1,5.29-1.92c1.91.46,3.62,1.3,4.14,3.47.17.71.28,1.49-.57,1.81s-1.13-.37-1.45-.92a2.8,2.8,0,0,0-2.74-1.6c-1.47.06-2.77.53-3.1,2s1,2,2.11,2.48,2.49,1,3.7,1.54c2.22,1,3.39,3.08,3,5C305.31,97.17,303.31,99,300.74,99Z"/><path class="cls-1" d="M338.32,98.81c-2.82,0-5-1.39-5.64-3.61-.23-.8-.53-1.78.47-2.26s1.26.46,1.66,1.12a4,4,0,0,0,4.5,2,2.3,2.3,0,0,0,2.15-2,2.25,2.25,0,0,0-1.36-2.6,31.73,31.73,0,0,0-3.4-1.17,5,5,0,0,1-3.64-6.2,5.29,5.29,0,0,1,6.68-3.26c1.61.61,3.13,1.41,3.52,3.34.11.54.36,1.14-.29,1.51a1.16,1.16,0,0,1-1.66-.45c-.74-1.09-1.54-2-3-2s-2.6.38-3,1.84.7,2,1.78,2.5,2.13.74,3.19,1.13c3.13,1.15,4.24,2.9,3.68,5.75A5.28,5.28,0,0,1,338.32,98.81Z"/><path class="cls-1" d="M325.68,96.93a1.08,1.08,0,0,1-.54,1.26,1.39,1.39,0,0,1-1.4-.18,2.36,2.36,0,0,1-.87-1.41c-1.29-3.29-1.8-3.53-5.2-3a2,2,0,0,0-1.94,1.6,14.36,14.36,0,0,1-.55,1.6c-.31.82-.86,1.38-1.77,1.1s-.86-1.16-.6-1.93c.93-2.74,1.88-5.47,2.81-8.21.6-1.8,1.15-3.62,1.77-5.41a1.72,1.72,0,0,1,3.32,0c1.65,4.73,3.26,9.47,4.88,14.21A1.87,1.87,0,0,1,325.68,96.93Zm-5.1-7.9c-.29-.8-.37-2.58-1.57-2.54-1.44.05-1.31,1.89-1.53,3.08-.18,1,.44,1.41,1.37,1.39S320.64,90.56,320.58,89Z"/><path class="cls-1" d="M207.41,85.44c0-3.31,0-6.62,0-9.93,0-1.27.32-2.51,1.9-2.53s1.77,1.32,1.77,2.41q0,10.23-.19,20.46c0,1.06.13,2.5-1.56,2.48s-1.88-1.47-1.9-2.74c-.06-3.38,0-6.76,0-10.15Z"/><path class="cls-1" d="M157.77,85.62c0,3.39,0,6.78,0,10.17,0,1.14-.08,2.47-1.64,2.49s-1.72-1.37-1.73-2.45c-.08-6.85-.08-13.7,0-20.55,0-1.22.5-2.34,2-2.21s1.53,1.25,1.54,2.38V85.62Z"/><path class="cls-1" d="M310.82,97.17a1,1,0,0,1-1.07,1.08.88.88,0,0,1-1-1c0-.7.31-1.29,1.14-1.23C310.53,96,310.81,96.52,310.82,97.17Z"/><path class="cls-1" d="M328.72,98.23A1.13,1.13,0,0,1,327.65,97a.91.91,0,0,1,1-.87,1.11,1.11,0,0,1,1.2,1.15C329.83,97.9,329.33,98.17,328.72,98.23Z"/><path class="cls-1" d="M318.89,16c5.4-.45,10,.32,13.95,3.13,2.83,2,4,5.18,4.7,8.45.2.89-.47,1.33-1.28,1.28-3.12-.17-6.15.67-9.26.74-1.5,0-2.49-.47-2.78-2-.61-3.13-6.35-5-9.54-2.85a2.84,2.84,0,0,0-1.15,3,3.2,3.2,0,0,0,2.55,2.54c3.59,1,7.24,1.72,10.79,2.83,3.28,1,6.49,2.28,9,4.89,3,3.16,3.58,7,3,11-1,6.66-5.28,10.21-11.54,11.93-6.88,1.89-13.62,1.08-20.1-1.29-3.47-1.27-5.42-4.6-6.74-8-1.9-4.94-1.7-5.19,3.42-5.53,1.91-.12,3.82-.18,5.71-.41,1.72-.21,2.47.43,3,2.11A7.48,7.48,0,0,0,323,52.65c1.89-.83,3.15-2.18,2.9-4.43s-1.53-3.26-3.56-3.9c-5.26-1.66-10.64-2.87-15.62-5.48-6.73-3.51-7.14-12.16-3.63-16.93,2.81-3.82,6.86-5.28,11.31-5.87A29.39,29.39,0,0,1,318.89,16Z"/><path class="cls-1" d="M97.89,20.7l.16.1-.18-.08Z"/><path class="cls-1" d="M196.88,60.93c-4.44.46-8.89.12-13.34.16-1.07,0-1.6-.65-2.06-1.53-2.17-4.12-4.39-8.22-6.57-12.33a8,8,0,0,0-4.5-4.12c-1.94-.66-2.76-.12-2.78,2,0,4.66-.06,9.33,0,14,0,1.57-.55,2.13-2.1,2.09-3.11-.08-6.22-.08-9.33,0-1.44,0-2-.54-2-2q0-20.35,0-40.71c0-1.39.55-1.83,1.9-1.82,8.2.05,16.41-.05,24.6.07a15.15,15.15,0,0,1,9.53,3c5.39,4.26,5.76,16.61-3.4,20.54-.84.36-1.71.67-2.56,1-.17.47.25.64.5.76,3.69,1.83,5.68,5.14,7.46,8.6,1.67,3.25,3.25,6.54,4.87,9.81Q196.6,60.53,196.88,60.93ZM172.48,25.3v.1c-1.13,0-2.26,0-3.38,0-1,0-1.46.4-1.46,1.38,0,2.18,0,4.36,0,6.55a1.12,1.12,0,0,0,1.11,1.28c3.1.1,6.22.31,9.19-.88a4.09,4.09,0,0,0,2.46-4.66,3.75,3.75,0,0,0-3.28-3.39C175.58,25.43,174,25.42,172.48,25.3Z"/><path class="cls-1" d="M198,60.22c.46-1.23.93-2.45,1.39-3.68l.15,0a2.58,2.58,0,0,0,0-.29c1.12-3.18,2-6.46,3.67-9.42.3-.19.13-.29-.07-.38q5.28-14.3,10.55-28.59a1.77,1.77,0,0,1,1.94-1.25c4,0,7.92.05,11.88,0,1.38,0,1.81.74,2.2,1.81q4.71,12.72,9.44,25.41c1.84,5,3.65,9.94,5.48,14.91.8,2.17.67,2.38-1.7,2.4-3.18,0-6.36-.06-9.54,0a2.22,2.22,0,0,1-2.47-1.75l-.15-.4c-1.72-5.36-1.72-5.36-7.36-5.36-2.48,0-4.95.06-7.42,0-1.55-.06-2.53.34-2.93,2-.3,1.26-1,2.49-1.3,3.7-.36,1.61-1.12,1.91-2.47,1.86-3.66-.16-7.33.29-11-.23A.46.46,0,0,0,198,60.22Zm23.54-31.9c-2.19,5.1-3.3,9.88-4.65,14.58-.31,1.06.32,1.4,1.26,1.4,2.11,0,4.22,0,6.34,0,1.36,0,1.8-.56,1.41-1.83Z"/><path class="cls-1" d="M263.07,37.14a20.31,20.31,0,0,0-.39,6.2c.2,5.14-.05,10.29.15,15.43.07,1.86-.62,2.48-2.46,2.39-2.68-.13-5.37-.07-8.06,0-1.44,0-2-.54-2-2q0-20.44,0-40.9c0-1.16.42-1.67,1.6-1.66,3.25,0,6.5,0,9.75,0A2.63,2.63,0,0,1,264,18.11q6.78,10.16,13.67,20.27c.39.58.64,1.75,1.52,1.5s.51-1.35.51-2.08c0-6.28.08-12.57,0-18.86,0-1.69.47-2.43,2.28-2.35,2.82.12,5.65.11,8.47,0,1.5-.05,2.13.33,2.12,2q-.09,20,0,40.05c0,1.8-.53,2.57-2.42,2.5-2.89-.11-5.79-.07-8.69,0a2.94,2.94,0,0,1-2.78-1.49c-4.49-6.75-9-13.46-13.55-20.2A8.75,8.75,0,0,0,263.07,37.14Z"/><path class="cls-1" d="M127.1,16.6c6.21,0,12.43,0,18.65,0,1.58,0,2.13.48,2.05,2.06-.12,2.32-.06,4.66,0,7,0,1.34-.55,1.88-1.91,1.85-3.32,0-6.65.07-10,0-1.71-.05-2.16.65-2.15,2.25.06,9.47,0,18.93,0,28.39,0,3,0,3-3.09,3-2.68,0-5.37-.1-8,0-1.89.09-2.43-.67-2.42-2.47.06-9.33,0-18.65,0-28,0-3.24,0-3.27-3.36-3.26-2.83,0-5.66-.05-8.48,0-1.42.05-2.11-.4-2.09-1.89,0-2.47,0-4.94,0-7.41,0-1.63,1-1.57,2.13-1.57Z"/></svg>