<svg id="Capa_1" data-name="Capa 1" xmlns="http://www.w3.org/2000/svg" viewBox="0 0 269.08 166.39"><defs><style>.cls-1{fill:#fff;}</style></defs><path class="cls-1" d="M64.51,162.88c-2.1-.88-.83-2.76-1.21-4.15-.28-1,1.85-.42,1.3-1.55-.27-.55-1.53-.51-1.23-1.66a.52.52,0,0,0-.31-.72c-1.88-.48-1,2.26-2.55,2.24-.28,0-.21.76.09.85,1.42.39.7,1.5.88,2.34,0,.39,0,.8,0,1.21a2.32,2.32,0,0,0,2.52,2.3.85.85,0,0,0,.58-.26C64.71,163.32,64.8,163,64.51,162.88Z"/><path class="cls-1" d="M71.16,157.15a3.65,3.65,0,0,0-4.07.77,3,3,0,0,0-.76,3.54,4.28,4.28,0,0,0,3.64,2.4c.52-.09,1-.16,1.55-.3s1.1,0,1-.71-.71-.58-1.24-.38a2.64,2.64,0,0,1-2.37-.12,1.33,1.33,0,0,1-.79-1.27c.06-.7.72-.41,1.12-.51a9.76,9.76,0,0,1,2.56-.54c1.73.06,1.08-.86.76-1.61A2.33,2.33,0,0,0,71.16,157.15Zm-1.6,2.59c-.5-.27-1.4.38-1.35-.62a1.2,1.2,0,0,1,1.36-1.05c.73,0,1.33.37,1.29,1.1C70.81,160.12,69.92,159.4,69.56,159.74Z"/><path class="cls-1" d="M82.94,158.27c.45.06,1,.32,1.14-.35.09-.5-.47-.6-.82-.75a3.62,3.62,0,0,0-4.08.67,3,3,0,0,0-.92,3.5c.69,1.64,2.1,2.25,3.8,2.5.64-.34,2,.1,1.91-1-.12-1.36-1.18-.23-1.79-.21a1.84,1.84,0,0,1-2.08-1.45C79.51,159.07,80.55,158,82.94,158.27Z"/><path class="cls-1" d="M56.91,138.54A42.45,42.45,0,0,0,53,131.28a3.11,3.11,0,0,0-3.33-1.45c-1.42.34-1.69,1.56-1.81,2.74a14.33,14.33,0,0,1-1.43,4.69c-1.18,2.52-2.15,5.16-4.47,7.28,1.8,0,3.24,0,4.69,0,1,0,.74-.44.4-1.12-.78-1.54-.15-2.51,1.57-2.58.82,0,1.65,0,2.47.06,1.91.11,2.39.85,1.64,2.59-.23.52-.41,1,.32,1,2.42.06,4.84,0,7.25,0l.15-.42C58.3,142.79,57.87,140.5,56.91,138.54Zm-6.9.76c-.95,0-2,.08-1.84-1.5.15-1.18.16-2.49,1.76-2.58,1.06-.07,1.91,1.36,1.91,2.77S51.06,139.39,50,139.3Z"/><path class="cls-1" d="M78.2,144.25c.29-.61-.6-.77-.78-1.24a12.62,12.62,0,0,1-.63-1.82,4,4,0,0,0-1.38-2.37c-1.83-1.43-1.85-2-.25-3.76a2.51,2.51,0,0,0-.3-3.92,5.47,5.47,0,0,0-3.43-1.2H67.55V130c-1.52,0-3,0-4.57,0a1.06,1.06,0,0,0-1.12.69c-.15.53.29.74.63.93a1.74,1.74,0,0,1,.87,1.78c-.08,2.12-.09,4.23-.19,6.34a5.71,5.71,0,0,1-1,3.66c-.58.7-.13,1,.52,1,1.7.06,3.4.09,5.1.08.94,0,1.09-.44.6-1.24a7.4,7.4,0,0,1-.67-3.25c-.07-.75.14-1.45,1-1.65a1.8,1.8,0,0,1,2,.69,5.32,5.32,0,0,1,.75,2c.67,3,1.92,3.92,5,3.77C77.07,144.72,77.88,144.94,78.2,144.25ZM69,136.68c-1.82-.18-1-1.78-1.36-2.63,0-1.22,0-2.46,1.58-2.51,1.32,0,1.84.83,1.9,2C71.23,135.17,70.17,136.79,69,136.68Z"/><path class="cls-1" d="M31,142.19a33.07,33.07,0,0,1,1.4-3c.36-.64.87-1.4,1.8-1.06s.83,1.08.77,1.8a10,10,0,0,1-.73,3.42c-.29.61-.25,1.11.5,1.13,1.65.06,3.29,0,4.93,0,.46,0,.82-.24.53-.81-1.43-2.8-.91-5.84-1.07-8.79a3.63,3.63,0,0,1,1-3.23c.59-.52.5-1-.16-1.41a4.26,4.26,0,0,0-5.54,1.42c-.67,1.23-1.21,2.55-1.92,3.76-.86,1.45-1.59,1.43-2.42,0-.53-.92-1-1.86-1.48-2.81-1.35-2.8-2.91-3.48-5.94-2.53-.38.12-.85.18-1,.64s.25.77.61,1a2.07,2.07,0,0,1,1,2.26q-.12,2-.21,4.05c-.09,2.14.13,4.35-1.47,6.25,1.61.67,3.1.24,4.83.25-1.27-1.61-1.22-3.33-1.3-5,0-.75.18-1.46,1.07-1.57s1.28.4,1.57,1.13c.44,1.09.9,2.16,1.39,3.23.19.42.48.87,1,.79S30.83,142.58,31,142.19Z"/><path class="cls-1" d="M59.24,156.92c-.92-.3-1.31.58-2,.89-.27-1-1-1.14-1.86-.9-.46.12-.34.55-.34.88,0,.76,0,1.52,0,2.28h.06v2.81a.71.71,0,0,0,.72.81.82.82,0,0,0,1-.56,3.83,3.83,0,0,0,.15-1.21c0-1.65,0-3.25,2.09-3.64a.69.69,0,0,0,.52-.81A.52.52,0,0,0,59.24,156.92Z"/><path class="cls-1" d="M130.12,153.31c-.83,0-1,.37-1,1.08,0,2.64,0,5.28,0,7.92,0,.62,0,1.17.91,1.13s1-.54,1-1.17c0-1.35,0-2.7,0-4.05h0c0-1.29,0-2.58,0-3.87C131.15,153.6,130.89,153.31,130.12,153.31Z"/><path class="cls-1" d="M49.57,156.84A3.61,3.61,0,0,0,46,160.19c-.08,1.69,1.82,3.54,3.65,3.57a3.81,3.81,0,0,0,3.59-3.42A3.54,3.54,0,0,0,49.57,156.84Zm-.06,5.79c-1.53-.06-1.58-1.35-1.61-2.48s.46-2,1.72-2,1.65,1.09,1.64,2C51.16,161.57,50.92,162.69,49.51,162.63Z"/><path class="cls-1" d="M40.49,157c-.69.25-1.14.49-1.92-.07-.62-.45-1.6-.26-1.5,1.06.09,1.16,0,2.34,0,3.51h0c0,1.16,0,2.33,0,3.5,0,.58-.24,1.37.84,1.37s1-.81,1-1.47c-.08-1.14-.26-2,1.46-1.32,1.39.52,2.66-.34,3.46-1.5a3.4,3.4,0,0,0-.27-4.1A2.54,2.54,0,0,0,40.49,157Zm.08,5.61c-1.51-.13-1.51-1.41-1.57-2.53a1.62,1.62,0,0,1,1.79-1.9c1.46,0,1.64,1,1.63,2.06C42.33,161.58,42.11,162.75,40.57,162.63Z"/><path class="cls-1" d="M106.33,156.87c-1.33-.73-1.4-1.38-.19-2.2.31-.21.62-.36.57-.75s-.52-.57-.94-.59a2.08,2.08,0,0,0-1.85.82c-.75.93-.08,2.57-1.56,3.15,0,0,0,.44.08.47,1.55.59.87,1.91,1,3,0,.52,0,1.05,0,1.58s.08,1.17.9,1.21,1-.53,1-1.14a25.61,25.61,0,0,0,0-2.63c-.06-.84-.3-1.62,1-1.81C106.82,157.85,107.13,157.31,106.33,156.87Z"/><path class="cls-1" d="M108.83,153.58c-.38.07-.81.16-.83.69s.53.68,1,.68,1,0,1-.71S109.35,153.6,108.83,153.58Z"/><path class="cls-1" d="M113.21,157.26c-.38.18-1,.29-.77.94s.68.25,1.08.15a5.84,5.84,0,0,1,1.37-.22c.55,0,1.07.18,1.16.84s-.45.74-.9.87c-.62.18-1.25.3-1.87.48s-1.43.59-1.45,1.52.76,1.31,1.54,1.65c1.39.6,2.69-.69,4.1-.15.28.1.34-.41.35-.69,0-.58,0-1.17,0-1.75C117.88,157.36,116,155.91,113.21,157.26Zm1.5,5.54c-.61.09-1.15-.21-1.09-.84.12-1,1.07-1.09,1.86-1.28.46-.12.66.08.63.61A1.63,1.63,0,0,1,114.71,162.8Z"/><path class="cls-1" d="M121.93,157.82v-3c0-.73.24-1.56-1-1.54s-.89.81-.9,1.46c0,2,0,4.09,0,6.14,0,1.46-.33,3,2.07,2.38.19-.05.45.12.67.19a3.24,3.24,0,0,0,4-1.4,3.58,3.58,0,0,0-.48-4.37C125,156.54,123.63,156.58,121.93,157.82Zm1.6,4.83c-1.59-.09-1.58-1.43-1.62-2.61a1.61,1.61,0,0,1,1.81-1.85c1.42,0,1.61,1.06,1.63,1.74C125.26,161.56,125,162.73,123.53,162.65Z"/><path class="cls-1" d="M97.7,143.69c-2.24-2-2.71-5-4.15-7.45-1.09-1.86-1.76-4-3.38-5.5a2.84,2.84,0,0,0-3-.86c-1.13.39-1.2,1.43-1.43,2.42a25.5,25.5,0,0,1-5.26,11.3c-.39.44-.6.94.16.94,1.49,0,3,.33,4.51-.15-1.32-2.86-.65-3.8,2.46-3.61a13.2,13.2,0,0,1,1.4.11c1.65.21,2.1,1,1.5,2.53-.19.47-.52,1,.25,1a38.1,38.1,0,0,0,6.67,0C97.82,144.38,98.05,144,97.7,143.69Zm-10-4.42c-1.39.2-1.93-.54-1.84-1.81s.51-2.34,1.9-2.21c1.24.11,1.78,1.22,1.79,2.42S89.06,139.56,87.73,139.27Z"/><path class="cls-1" d="M135.69,144.49c.33,0,.76,0,.92-.35s-.2-.61-.48-.81a4.58,4.58,0,0,1-1.41-2c-1.05-2.16-2-4.36-3.1-6.51a14.44,14.44,0,0,0-2.63-4.13,2.94,2.94,0,0,0-2.9-.85c-1.16.3-1.48,1.24-1.59,2.29a15.73,15.73,0,0,1-1.84,5.64c-1.16,2.26-1.75,4.85-4.07,6.43l.31.35h3.85c.89,0,1.34-.08.74-1.19-.85-1.55-.25-2.4,1.56-2.5a26,26,0,0,1,2.65,0c1.81.1,2.31.82,1.58,2.51-.36.82-.22,1.08.6,1.09C131.81,144.5,133.75,144.51,135.69,144.49Zm-9.21-5.18c-1.35.24-1.82-.47-1.75-1.68s.34-2.42,1.75-2.39,1.83,1.26,1.89,2.51S127.72,139.52,126.48,139.31Z"/><path class="cls-1" d="M97.76,157.1c-.61.29-.87.45-1.53-.1s-1.79-.57-1.65,1c.06.7,0,1.41,0,2.11h0c0,.82,0,1.65,0,2.47,0,.61.13,1,.87,1s.94-.36,1-1c0-1,0-2,.07-3a1.43,1.43,0,0,1,1.68-1.4c.89,0,1.14.71,1.16,1.49,0,.94,0,1.88,0,2.81,0,.64.4.93,1,.9s.76-.44.76-.95a29.29,29.29,0,0,0-.07-3.51A2.25,2.25,0,0,0,97.76,157.1Z"/><path class="cls-1" d="M102.76,144.5h1c1.26,0,2-.16.89-1.64a5.66,5.66,0,0,1-.67-3.75c.07-1.51,1-2.05,2.43-1.36a7.43,7.43,0,0,1,1.56,1.12c1.58,1.41,3.13,2.85,4.7,4.26.61.54,1.25,1.2,2.17.81s.6-1.22.62-1.87c.07-2.7.08-5.4.09-8.1,0-1,.07-1.95,1.16-2.55s.67-1.12-.25-1.38a7.92,7.92,0,0,0-3.84-.09c-.9.19-1.36.82-.44,1.42,1.43.92,1.21,2.14,1,3.42-.3,1.59-.87,1.85-2.13.83-1.72-1.4-3.39-2.89-5-4.44s-3.45-1.58-5.42-1.2a1.15,1.15,0,0,0-.94.72c-.19.55.26.72.61.91a2.49,2.49,0,0,1,1.21,2.55c0,1.87-.07,3.75-.13,5.63a5,5,0,0,1-.71,3.2c-1,1.25-.29,1.47.82,1.5h1.24Z"/><path class="cls-1" d="M25.48,156.88c-.89.15-1.66.9-2.69,0-.46-.39-1.37-.1-1.24,1a18.54,18.54,0,0,1,0,2.11h0v2.45c0,.6.16,1,.86,1.07s1-.48,1-1.1c0-.82,0-1.64,0-2.45,0-1.13.56-1.79,1.73-1.73s1.18.93,1.17,1.79-.05,1.75,0,2.62c0,.51.25.89.87.87s.95-.31.94-1c0-1.17.08-2.34,0-3.5A2.23,2.23,0,0,0,25.48,156.88Z"/><path class="cls-1" d="M108.91,156.84c-.66,0-1,.19-.93.89,0,1.64,0,3.27.06,4.9,0,.5.08.93.74,1s1-.22,1.06-.86c0-.93,0-1.87,0-2.8h.08c0-.76,0-1.52,0-2.27S109.48,156.86,108.91,156.84Z"/><path class="cls-1" d="M34.85,160.53a7.51,7.51,0,0,0-1.63-.6c-.54-.19-1.29-.24-1.16-1s.86-.78,1.53-.74c.51,0,1.29.73,1.49-.12s-.82-.77-1.35-1a3.34,3.34,0,0,0-.82-.18c-1.18.12-2.3.31-2.73,1.59-.5,1.48.93,1.47,1.62,2.05s2.17.59,1.65,1.84c-.43,1-1.51.41-2.33.16-.42-.13-.87-.15-1,.39s.34.53.65.66a4.18,4.18,0,0,0,4-.55A1.37,1.37,0,0,0,34.85,160.53Z"/><path class="cls-1" d="M138.46,111.92a7.18,7.18,0,0,0,4.11-1.83,3.56,3.56,0,0,0-.29-5.72,5.39,5.39,0,0,0-3.26-1.15h-3.87v.18c-1.53,0-3.05,0-4.58,0-.39,0-.88.07-.94.6s.35.57.66.72c.58.29,1.22.54,1.2,1.34-.06,3-.18,6-.18,9,0,.93-1.43,1.76-.53,2.44.66.5,1.91.22,2.9.28.41,0,.83,0,1.24,0,2.05,0,2.05,0,1.23-1.9C134.93,113.05,135.38,112.33,138.46,111.92Zm-2.79-5.52c-.36-1.15.58-1.66,1.67-1.69a2.24,2.24,0,0,1,2.34,2.59c-.24,1.08-.07,2.51-1.57,3.12a1.56,1.56,0,0,1-.85.18C134.63,110,136.12,107.82,135.67,106.4Z"/><path class="cls-1" d="M171.89,111.64a2.64,2.64,0,0,1,1.46,2.23c.47,3.06,2.05,4.3,5.05,4.1,1.72-.12,1.79-.3.95-1.84a11.06,11.06,0,0,1-.59-1.82,3.82,3.82,0,0,0-1.73-2.52c-1.41-.73-1.51-1.76-.44-3,2.11-2.35,1.57-4.31-1.44-5.37-1.79-.63-3.61-.19-4.74-.23-2.26,0-3.84,0-5.42,0-.58,0-1.68.57-.92,1.11,1.78,1.28,1.17,2.94,1.15,4.47,0,2.66.43,5.41-1,7.91-.39.66.23.84.69.85,1.69.07,3.4.09,5.1.08.76,0,1.12-.29.51-1.07a5.57,5.57,0,0,1-.82-3.71A1.43,1.43,0,0,1,171.89,111.64Zm-2.28-4.3c-.27-1.51-.09-2.53,1.48-2.6,1.14,0,1.93.39,2,1.68.08,2.06-.73,3.54-2.08,3.48C169,109.82,170,108.08,169.61,107.34Z"/><path class="cls-1" d="M171.19,78.75c1-3.44,2.16-6.82,3.26-10.23.18-.54.76-1.1.33-1.62s-1.11-.14-1.67-.06a153.09,153.09,0,0,0-33.37,8.57,99.21,99.21,0,0,0-14.07,6.48c2.82-.1,5.58-.56,8.41-.54,11.22.07,22.44,0,33.67.06C169.81,81.42,170.66,80.58,171.19,78.75Z"/><path class="cls-1" d="M119.3,116.33c-1.69-.21-2.66-1.37-3.51-2.67-.24-.37-.54-.69-1-.51s-.45.63-.42,1a2.91,2.91,0,0,0,.58,1.45c1.37,2,3.49,2.17,5.12,2.31a7.93,7.93,0,0,0,4.24-.84c1.64-.91,3.41-2,3.3-4.16s-1.84-3.26-3.77-3.91c-.72-.24-1.44-.52-2.17-.74a2,2,0,0,1-1.48-2.58c.35-1.21,1.56-1,2.56-.91a8.12,8.12,0,0,1,2.93,1.55c.61.37,1.55.76,1.53-.42s-.41-2.39-1.8-2.45-3-.42-4.54-.49a6.16,6.16,0,0,0-4.56,1.52c-1.92,1.72-2,3.62-.22,5.5a12.13,12.13,0,0,0,4.4,2.51c1.08.46,2.1,1.06,1.69,2.47S120.53,116.49,119.3,116.33Z"/><path class="cls-1" d="M189.9,58.24a3,3,0,0,1,1.44-2.11c.37-.25,1-.5.71-1.05s-.84-.25-1.28-.21c-3.4.28-6.79.54-10.18.88a154.48,154.48,0,0,0-30.69,6.17C136.82,66,125,72.61,113.76,80.27a56.29,56.29,0,0,0-9.53,8,2.37,2.37,0,0,0,.32-.13c.34-.24.66-.49,1-.74,9.06-6.68,18.53-12.6,29.23-16.34,4.93-1.72,9.74-3.79,14.86-5,9.7-2.34,19.36-4.78,29.4-5.23,2.64-.12,5.28-.19,7.92-.24C188.53,60.5,189.69,60,189.9,58.24Z"/><path class="cls-1" d="M104,59.16A200.92,200.92,0,0,1,151,31,247,247,0,0,1,198.63,16a3.26,3.26,0,0,0,2.92-2.54c1-3.54,2.31-7,3.38-10.53C205.22,1.93,206.6.94,206,.3s-2.08.07-3.14.32A228.59,228.59,0,0,0,152.27,18.9a211.59,211.59,0,0,0-33.22,20.54A162.64,162.64,0,0,0,86,72.64,102.43,102.43,0,0,0,75.13,90.51c.38-.51.8-1,1.15-1.53C83.84,77.49,93.32,67.78,104,59.16Z"/><path class="cls-1" d="M19.43,160.94c0-3.48-1.22-4.68-3.93-3.92-.63.17-1.71.29-1.49,1.11s1.07,0,1.64.05a4.67,4.67,0,0,0,.52-.08c.63,0,1.25.07,1.41.76s-.55.9-1.09,1.06a12.88,12.88,0,0,0-2.19.63,1.34,1.34,0,0,0-.5,2.3c.72.84,3.78,1.1,5.14.36C19.91,162.68,19.24,161.6,19.43,160.94ZM16.2,162.8c-.6,0-1.1-.25-1-.91.16-1.06,1.14-1,1.91-1.21.48-.11.6.22.56.71A1.57,1.57,0,0,1,16.2,162.8Z"/><path class="cls-1" d="M216.14,116.4a7.11,7.11,0,0,0,4.75,1.56,8,8,0,0,0,6.75-3.14,3.24,3.24,0,0,0-.73-4.54,8.24,8.24,0,0,0-2.84-1.34,7.39,7.39,0,0,1-2.61-1,1.86,1.86,0,0,1-.81-2.15,1.69,1.69,0,0,1,1.88-1,5.07,5.07,0,0,1,3.05,1.21c.66.52,1.54,1.46,2.19.46.51-.81-.08-1.91-.93-2.6a1.72,1.72,0,0,0-1.32-.38,10.41,10.41,0,0,1-3.14-.34,6.69,6.69,0,0,0-4.44.66c-3.06,1.53-3.36,4.34-.87,6.62,1.31,1.2,3,1.64,4.46,2.41a1.86,1.86,0,0,1,1.27,2.07c-.22,1.13-1,1.46-2.08,1.51a3.81,3.81,0,0,1-2.91-1,14.39,14.39,0,0,1-1.47-1.74c-.27-.34-.54-.68-1-.52s-.46.65-.45,1A3.05,3.05,0,0,0,216.14,116.4Z"/><path class="cls-1" d="M161.23,8.42h-2c-12.28,0-24.56,0-36.85,0a2.38,2.38,0,0,0-2.7,2c-3.18,10-6.44,20-9.67,30a3.24,3.24,0,0,0-.35,1.83C125.07,28.4,141.85,16.69,161.23,8.42Z"/><path class="cls-1" d="M57.55,104.84a1.69,1.69,0,0,1,.88,1.91c-.09,1.4,0,2.82-.09,4.22-.07,1.92.12,3.87-1,5.62-.59.89.36,1,.86,1,1.58.1,3.16.11,4.75.1.94,0,1.08-.42.58-1.23a6.73,6.73,0,0,1-.72-3.4,1.4,1.4,0,0,1,1.08-1.6,1.61,1.61,0,0,1,2,.8,12.18,12.18,0,0,1,.79,2.14c.94,3.32,3.46,4.48,7.12,3a3.88,3.88,0,0,1-1.83-2.9,3.91,3.91,0,0,0-1.61-2.62c-1.51-.93-1.61-1.75-.52-3.12,2-2.44,1.32-4.66-1.73-5.32-3.35-.72-6.78,0-10.18-.15a.87.87,0,0,0-.94.64C56.81,104.4,57.19,104.66,57.55,104.84Zm6.84-.13a1.58,1.58,0,0,1,1.79,1.72c0,2-1,3.69-2.2,3.45-1.77-.35-.86-2-1.21-2.81C62.6,105.6,63,104.72,64.39,104.71Z"/><path class="cls-1" d="M6.61,154c-1.82,0-3.64,0-5.46,0-.42,0-1.06-.23-1.14.46s.52.85,1.07.8c1.61-.15,2.09.61,1.84,2.1a10.32,10.32,0,0,0,0,1.76h0c0,1.11,0,2.23,0,3.34,0,.8.44,1,1.13,1s.82-.44.82-1c0-1.64.12-3.3,0-4.93s.13-2.42,1.89-2.24c.46,0,1,0,1-.65C7.79,153.74,7.05,154.05,6.61,154Z"/><path class="cls-1" d="M42.29,106.64l.65-.59a1.72,1.72,0,0,1,1.93-.49c.69.33.7,1,.67,1.69-.08,2.06-.14,4.11-.29,6.16a4,4,0,0,1-1.18,2.86c-.9.81-.41,1.26.48,1.3,2.05.1,4.11.09,6.17.1a1.15,1.15,0,0,0,1.09-.47c.24-.49-.27-.69-.57-.94a2.24,2.24,0,0,1-.83-1.86v-3.7h0c-.08-1.17-.17-2.34-.22-3.52a1.5,1.5,0,0,1,.81-1.62,1.68,1.68,0,0,1,1.95.38,7.74,7.74,0,0,0,1,1c.6.38,1.33.45,1.6-.35a2.77,2.77,0,0,0-.47-2.51A2.12,2.12,0,0,0,52.82,103a29.94,29.94,0,0,1-8.61.11c-2.12-.27-3.07.56-3.73,2.27-.2.52-.68,1.11-.07,1.6S41.73,107.15,42.29,106.64Z"/><path class="cls-1" d="M12.39,157a1.23,1.23,0,0,0-1.42.41c-.52.59-.67.52-.93-.25-.19-.55-.93-.27-1.41-.23s-.45.58-.46,1c0,.7,0,1.4,0,2.1h0c0,.88,0,1.76,0,2.63,0,.49-.1,1,.78,1s1-.41,1.06-1,0-1.28,0-1.92a2.08,2.08,0,0,1,1.55-2.26c.49-.14,1.11-.14,1-.9C12.65,157.33,12.54,157,12.39,157Z"/><path class="cls-1" d="M110.7,106.84a2.28,2.28,0,0,1,.57-1.78c.4-.37,1.24-.56,1-1.29s-1.06-.64-1.69-.72a6.8,6.8,0,0,0-2.62.1c-.93.25-1.49.76-.49,1.53,1.24.95,1,2.16.78,3.36-.28,1.6-.82,1.84-2.1.82-1.82-1.47-3.56-3-5.3-4.62a5.31,5.31,0,0,0-5.11-1c-.41.09-.83.2-1,.65s.24.74.62.92a2.33,2.33,0,0,1,1.27,2.48c0,1.29,0,2.58,0,3.87-.06,1.74.14,3.56-1,5.08-.86,1.16-.19,1.4.81,1.49.4,0,.82,0,1.23,0h0c.47,0,.94,0,1.41,0,1,0,1.78-.17.79-1.39a5.3,5.3,0,0,1-.76-3c-.09-.92-.44-2,.67-2.49s1.92.08,2.69.76c1.76,1.56,3.5,3.13,5.26,4.67.6.53,1.2,1.33,2.11.92s.65-1.31.67-2.05C110.59,112.35,110.65,109.59,110.7,106.84Z"/><path class="cls-1" d="M76.09,118c1.11,0,2.22-.12,3.33-.2.68,0,.69-.3.41-.92-.87-1.92-.37-2.65,1.74-2.74a20.36,20.36,0,0,1,2.47,0c1.68.14,2.14.86,1.55,2.47-.22.59-.44,1.09.41,1.11,2.38,0,4.76,0,7.13,0l.1-.48c-1.57-.88-2.16-2.44-2.83-3.92a85.3,85.3,0,0,0-3.86-7.71,5.11,5.11,0,0,0-2.32-2.32,2.2,2.2,0,0,0-3.35,1.63c-.12.51-.15,1-.3,1.55-1.06,3.74-2.42,7.34-5,10.35-.22.26-.64.44-.44.85S75.75,118,76.09,118Zm4.79-7.18c.11-1.16.47-2.24,1.79-2.45,1-.15,2,1.27,2,2.64,0,1.56-1,1.64-2.13,1.52C81.21,112.7,80.76,112,80.88,110.77Z"/><path class="cls-1" d="M193.5,39.75c.69-2.3,1.4-4.6,2.24-6.85.69-1.85.77-1.87-1.26-1.62a173,173,0,0,0-31.54,7.2,190.45,190.45,0,0,0-39.86,18,145.27,145.27,0,0,0-27.9,21.65,82.53,82.53,0,0,0-12.59,15.6c2.32-2.62,4.59-5.3,7-7.86a118.52,118.52,0,0,1,27.37-21.38A173.92,173.92,0,0,1,148.58,50,144.35,144.35,0,0,1,190.85,42C192.48,42,193.09,41.12,193.5,39.75Z"/><path class="cls-1" d="M172,50.73a72.65,72.65,0,0,1,7.48-1.16,1.55,1.55,0,0,0,1.57-1.76c-.15-.93-1.07-.29-1.63-.22a127.6,127.6,0,0,0-24.17,6.26,90.29,90.29,0,0,0-9.36,3.63.87.87,0,0,0,1,0A159.54,159.54,0,0,1,172,50.73Z"/><path class="cls-1" d="M188.9,24c.12-.55.75-1.13.32-1.61s-1.11,0-1.65.15a214.39,214.39,0,0,0-36.32,13.87,128.11,128.11,0,0,0-18.07,10.21c.45-.21.9-.4,1.34-.64,16.38-8.79,33.38-15.94,51.69-19.64C187.63,26.06,188.6,25.48,188.9,24Z"/><path class="cls-1" d="M89.23,156.84a3.57,3.57,0,0,0-3.76,3.37A3.77,3.77,0,0,0,89,163.75a3.86,3.86,0,0,0,3.75-3.25A3.55,3.55,0,0,0,89.23,156.84Zm-.13,5.79c-1.54,0-1.58-1.27-1.71-2.37,0-1.15.4-2.06,1.67-2.08s1.73.87,1.7,2S90.62,162.6,89.1,162.63Z"/><path class="cls-1" d="M213,113.73c-.53-.25-.89.1-1.16.51-.5.72-.89,1.55-1.76,1.91a5.73,5.73,0,0,1-4.46.22c-1.12-.48-.59-1.89-.84-2.88-.18-.73-.37-1.54.45-2.07a1.9,1.9,0,0,1,2.31.15c1.35,1.1,1.58.09,1.77-.88a4.9,4.9,0,0,0,0-1.75c-.09-.55-.11-1.27-.85-1.38s-.78.61-.93,1.06a1.5,1.5,0,0,1-1.76,1.08c-.92,0-.94-.73-1.07-1.35s-.22-1.15-.31-1.73a1.5,1.5,0,0,1,1.35-1.9c1.69-.26,3.4-.45,5,.58.5.33,1.09.72,1.59.23s.08-1.22-.2-1.77a1.56,1.56,0,0,0-1.94-.81,28.74,28.74,0,0,1-5.79.33c-1.46,0-2.93,0-4.4,0-.47,0-1,.08-1.16.6s.31.7.66.9a1.52,1.52,0,0,1,.86,1.25c.08,3.67.71,7.39-1,10.89-.34.72-.06.93.5.84,3.52-.6,7,.5,10.54,0,1.77-.24,2.46-1.42,3-2.83A.91.91,0,0,0,213,113.73Z"/><path class="cls-1" d="M184.6,156.91a2.61,2.61,0,0,1-2.49,0,2.17,2.17,0,0,0-1.2.09,3.5,3.5,0,0,0-2.24,4,3.34,3.34,0,0,0,4,2.57c1.37-.45,1.53,0,1.37,1.11a3,3,0,0,0,0,.52c0,.6.26,1,.94,1s.87-.43.87-1c0-1.23,0-2.46,0-3.69h0c0-1.17-.07-2.34,0-3.51S185.32,156.48,184.6,156.91Zm-2.33,5.73c-1.64,0-1.68-1.36-1.73-2.52s.42-2,1.7-1.94,1.8.88,1.77,2.17C183.85,161.38,183.78,162.65,182.27,162.64Z"/><path class="cls-1" d="M201.34,157.15a3.63,3.63,0,0,0-4.08.79,3,3,0,0,0-.75,3.54,4.25,4.25,0,0,0,3.66,2.37c.47-.08.94-.12,1.39-.24s1.24,0,1.09-.81-.8-.42-1.28-.3c-1,.25-2,.34-2.75-.57-.53-.65-.67-1.26.54-1.37,1-.08,2-.48,2.93-.48,1.25,0,1.07-.62.79-1.34A2.58,2.58,0,0,0,201.34,157.15Zm-1.73,2.54c-.44-.17-1.23.31-1.23-.52s.64-1.09,1.36-1.09,1.37.38,1.29,1.12C200.93,160.11,200.08,159.48,199.61,159.69Z"/><path class="cls-1" d="M218.43,157a1.23,1.23,0,0,0-1.42.4c-.52.59-.68.57-.94-.23-.18-.55-.93-.29-1.42-.24s-.44.59-.45,1c0,.7,0,1.4,0,2.1h0c0,.94,0,1.87,0,2.81,0,.48,0,.85.77.87s1-.24,1-.84c.07-.76.05-1.52.08-2.27a2,2,0,0,1,1.53-2.09c.49-.14,1.12-.14,1-.9C218.68,157.34,218.58,157,218.43,157Z"/><path class="cls-1" d="M197.11,106.53c.56-1.59-1.16-3.83-2.81-3.53a54.14,54.14,0,0,1-6.15.27c-.83-.06-2.17-.16-3.52-.22-1.65-.08-2.19,1.11-2.63,2.38-.18.52-.64,1.17,0,1.59,1.25.76,1.69-.6,2.46-1.09l.29-.2c1.2-.68,2.23-.24,2.21,1.11,0,2.52-.24,5-.44,7.56a2.72,2.72,0,0,1-.91,1.86c-.29.25-.81.45-.55.95s.71.4,1.11.41c2,0,4,0,6,0,.39,0,.91,0,1.11-.39.27-.58-.29-.81-.63-1.09a2,2,0,0,1-.78-1.52c-.11-2.58-.2-5.17-.29-7.75a1.38,1.38,0,0,1,.86-1.4,1.47,1.47,0,0,1,1.76.41,7.07,7.07,0,0,0,1.3,1.16A1,1,0,0,0,197.11,106.53Z"/><path class="cls-1" d="M190.63,144.47c.65,0,1-.38.4-1-1.43-1.39-2-3.27-2.87-5a45.21,45.21,0,0,0-4.12-7.35,3.1,3.1,0,0,0-3.26-1.28c-1.3.28-1.4,1.36-1.57,2.44-.58,3.72-2.56,6.89-4.06,10.25-.35.79-2,1-1.45,1.83s1.84.23,2.81.2l1.06,0c.7,0,1.12,0,.7-1-.82-1.88-.34-2.58,1.69-2.66a16.48,16.48,0,0,1,3,.11c1,.15,1.79.91,1.26,1.85-1.09,1.93.18,1.69,1.33,1.7h1.93v0C188.52,144.49,189.58,144.54,190.63,144.47Zm-9.58-5.17c-1.56.27-1.82-.62-1.71-1.76s.29-2.46,1.75-2.39a2.18,2.18,0,0,1,2,2.45C183.11,139,182.41,139.66,181.05,139.3Z"/><path class="cls-1" d="M193.55,156.83c-.89,0-.89.52-.89,1.14,0,1,0,2,0,3s-.5,1.72-1.59,1.7-1.3-.83-1.3-1.72c0-1.06,0-2.11,0-3.16,0-.66-.2-.95-.9-.94s-1.1.16-1.06,1c.06,1.17,0,2.34.08,3.51a2.3,2.3,0,0,0,1.6,2.06c1.22.58,2.29-.25,3.37-.1,1.58.21,1.82-.53,1.74-1.78,0-.53,0-1.05,0-1.58h0c0-.64,0-1.29,0-1.93S194.45,156.81,193.55,156.83Z"/><path class="cls-1" d="M225.46,160.94c0-3.48-1.22-4.68-3.93-3.93-.63.18-1.71.3-1.49,1.12s1.07.05,1.64.05a5.06,5.06,0,0,0,.52-.08c.63,0,1.25.07,1.41.76s-.55.9-1.09,1.06a13.15,13.15,0,0,0-2.19.63,1.35,1.35,0,0,0-.51,2.3c.73.84,3.79,1.1,5.15.36C225.94,162.68,225.27,161.6,225.46,160.94Zm-3.28,1.86c-.52,0-1-.22-1-.79.05-1.14,1.07-1,1.68-1.3.53-.1.85,0,.81.48A1.57,1.57,0,0,1,222.18,162.8Z"/><path class="cls-1" d="M210.86,137a11.82,11.82,0,0,0-3.35-1.53,9,9,0,0,1-1.64-.62,2.06,2.06,0,0,1-1-2.42c.26-1,1.23-1,2.07-.86a6.11,6.11,0,0,1,3.34,1.47c.42.37.95.66,1.44.29s.32-1.08,0-1.61-.67-1.34-1.28-1.37c-2.49-.12-5-1.17-7.48-.21-1.8.69-3.25,1.81-3.51,3.82s1.23,3.07,2.71,3.95c1.16.69,2.44,1.16,3.64,1.79a1.74,1.74,0,0,1,1.09,2.14c-.28,1.09-1.07,1.32-2,1.36a4.42,4.42,0,0,1-4.08-2.31c-.35-.54-.79-1.27-1.5-.86s-.34,1.25,0,1.86c1.26,2.36,3.48,2.76,5.86,2.84a8.62,8.62,0,0,0,6.17-2.57A3.25,3.25,0,0,0,210.86,137Z"/><path class="cls-1" d="M251.06,157.82c0-1.24,0-2.11,0-3s.25-1.56-1-1.54-.9.81-.9,1.46c0,1.7,0,3.4,0,5.1a10.87,10.87,0,0,0,.06,2.8c.38,1.37,1.69.35,2.55.69a3.34,3.34,0,0,0,4.15-1.24,3.48,3.48,0,0,0-.43-4.25C254.31,156.51,252.84,156.55,251.06,157.82Zm1.7,4.82c-1.53,0-1.66-1.21-1.73-2.15-.06-1.47.45-2.3,1.79-2.29s1.66.93,1.63,2S254.28,162.63,252.76,162.64Z"/><path class="cls-1" d="M243.87,136.16c-1-.41-2.11-.73-3.15-1.12a1.91,1.91,0,0,1-1.38-2.34c.3-1.24,1.37-1.22,2.43-1.07a8.63,8.63,0,0,1,3.13,1.53c.69.41,1.75.88,1.73-.51a2.29,2.29,0,0,0-2-2.36c-1.51-.21-3-.32-4.28-.45-.61,0-1,0-1.31,0a5.46,5.46,0,0,0-5,4.25c-.23,1.45,1.12,3.2,3.36,4.28.95.46,2,.78,2.91,1.26a1.81,1.81,0,0,1,1.19,2.1c-.24,1.2-1.07,1.44-2.06,1.49a3.72,3.72,0,0,1-3.4-1.47c-.28-.38-.5-.8-.79-1.17s-.75-.87-1.32-.54-.41.93-.25,1.43a4.14,4.14,0,0,0,2.62,2.68,9.23,9.23,0,0,0,8.14-.72c1.37-.81,2.72-2,2.65-3.7C247,137.82,245.53,136.81,243.87,136.16Z"/><path class="cls-1" d="M259.29,153.3c-.94,0-1,.44-1,1.18,0,1.29,0,2.57,0,3.85h0c0,1.23,0,2.46,0,3.68,0,.6-.37,1.5.84,1.54s1-.79,1-1.44c0-2.57,0-5.14.06-7.71C260.24,153.71,260.09,153.33,259.29,153.3Z"/><path class="cls-1" d="M265.37,160.58a10.32,10.32,0,0,1,2.58-.5c1.48.07,1.2-.66.84-1.5a2.53,2.53,0,0,0-1.48-1.42,3.6,3.6,0,0,0-4.07.78,2.94,2.94,0,0,0-.79,3.39,4.1,4.1,0,0,0,3.89,2.5c.38-.07.9-.14,1.41-.28s1.06-.14.86-.83-.72-.43-1.17-.26a2.78,2.78,0,0,1-2.39-.09,1.35,1.35,0,0,1-.79-1.29C264.31,160.37,265,160.67,265.37,160.58Zm-1.12-1.24a1.43,1.43,0,0,1,1.34-1.28,1.26,1.26,0,0,1,1.43,1c.16.65-.33.67-.73.61C265.62,159.56,264.82,160,264.25,159.34Z"/><path class="cls-1" d="M245.89,157.28a4,4,0,0,0-3.88.14c-.3.16-.68.34-.51.77s.53.34.89.25a10.28,10.28,0,0,1,1.54-.32c.55,0,1.09.12,1.22.76s-.43.87-.94,1c-.68.19-1.38.29-2,.51a1.6,1.6,0,0,0-1.25,1.52c0,.81.58,1,1.12,1.4,1.56,1.06,3-.43,4.56-.13.26.05.34-.42.35-.71,0-.59,0-1.17,0-1.76C247,159.46,247.34,158,245.89,157.28Zm-2.08,5.52c-.61.08-1.13-.25-1.06-.85.12-1,1.07-1.09,1.86-1.27.44-.09.65.12.61.64A1.65,1.65,0,0,1,243.81,162.8Z"/><path class="cls-1" d="M230.65,157.13c-.3.13-.47.52-.91.38-2.14-.68-2.15-.67-2.12,1.49v1.05h0c0,.82,0,1.65,0,2.47a.86.86,0,0,0,.93,1c.75,0,.9-.45.92-1,0-.88,0-1.77,0-2.64a1.48,1.48,0,0,1,1.64-1.64c1.15,0,1.26.85,1.25,1.73s0,1.76,0,2.63c0,.58.26,1,1,1s.85-.46.85-1c0-1.12.08-2.24,0-3.34C234,157.23,232.49,156.37,230.65,157.13Z"/><path class="cls-1" d="M239.15,162.71a1,1,0,0,1-.76-1.37c.27-1.2-1.07-2.79,1.1-3.65.53-.22-1.71-1.24-1.22-2.65.11-.3-.62-.4-.85-.23-.94.64-.94,2.07-2.09,2.58,0,0,.07.42.16.44,1.49.35.86,1.52.95,2.4,0,2.52.42,3.17,2.23,3.46.35.05.72.18.91-.22S239.56,162.81,239.15,162.71Z"/><path class="cls-1" d="M227.89,144.48c1.11,0,2.23,0,3.34,0,.62,0,.94-.41.4-.9-1.72-1.58-2.27-3.79-3.23-5.78a57.79,57.79,0,0,0-3.45-6.33,3.3,3.3,0,0,0-3.63-1.6c-1.54.31-1.36,1.64-1.64,2.76A27.78,27.78,0,0,1,215,143.29c-.27.36-1,.54-.75,1.06s.93.3,1.43.3a4.15,4.15,0,0,0,.7-.07c1.2-.2,3.46.86,2.18-2.14-.49-1.16.81-1.67,3.92-1.56,1.26.05,2.84.3,2.28,1.8-.92,2.42.63,1.78,1.76,1.84.46,0,.94,0,1.41,0Zm-6-5.17c-1.12.09-2-.07-1.94-1.51.09-1.21.32-2.4,1.77-2.63,1-.15,2,1.22,2,2.45S223.12,139.48,221.85,139.31Z"/><path class="cls-1" d="M207.18,157.63a9.22,9.22,0,0,1-.2-3.17c0-.82-.23-1.15-1.1-1.16s-.88.5-.87,1.13c0,1.93,0,3.87,0,5.81,0,1.64-.51,3.62,2.34,3.11.1,0,.22.07.33.12a3.22,3.22,0,0,0,4-1.31,3.58,3.58,0,0,0-.37-4.41C210.12,156.56,208.74,156.59,207.18,157.63Zm1.43,5c-1.56,0-1.61-1.29-1.68-2.41s.5-2.06,1.83-2,1.6,1,1.58,2.19C210.28,161.45,210.14,162.65,208.61,162.63Z"/><path class="cls-1" d="M137.89,157.18a3.61,3.61,0,0,0-4.08.7,2.91,2.91,0,0,0-.8,3.52,4.3,4.3,0,0,0,3.74,2.43,5.6,5.6,0,0,0,1.11-.18c.5-.18,1.43,0,1.28-.85s-.94-.39-1.45-.25a2.49,2.49,0,0,1-2.47-.47,1.1,1.1,0,0,1-.41-1.1c.12-.46.54-.32.87-.38a11.56,11.56,0,0,1,2.74-.5c1.68.08,1.17-.8.84-1.62A2.34,2.34,0,0,0,137.89,157.18Zm-1.75,2.51c-.47-.15-1.24.29-1.25-.5s.67-1.15,1.44-1.13a1.1,1.1,0,0,1,1.2,1C137.51,160.15,136.58,159.45,136.14,159.69Z"/><path class="cls-1" d="M167.13,153.59c-.44,0-.86.15-.9.65-.06.69.49.67,1.07.72.32-.1.95.06.88-.68S167.62,153.58,167.13,153.59Z"/><path class="cls-1" d="M159.06,157.18a3.64,3.64,0,0,0-4.09.71,3,3,0,0,0-.82,3.53,4.18,4.18,0,0,0,3.77,2.42c.49-.08,1-.13,1.42-.25s1.21-.08.95-.9-.78-.32-1.2-.21a2.68,2.68,0,0,1-2.66-.36,1.21,1.21,0,0,1-.49-1.08c.11-.58.63-.39,1-.46a18.38,18.38,0,0,1,2.92-.5c1,0,1-.49.76-1.12A2.61,2.61,0,0,0,159.06,157.18Zm-1.56,2.56c-.54-.29-1.44.39-1.44-.6,0-.72.64-1.06,1.37-1.06a1.11,1.11,0,0,1,1.26,1C158.79,160.2,157.79,159.35,157.5,159.74Z"/><path class="cls-1" d="M167.09,156.83c-.73,0-.9.33-.88,1s0,1.53,0,2.29h0c0,.76,0,1.53,0,2.29,0,.45-.24,1.14.65,1.15a1,1,0,0,0,1.21-1.16c0-1.52,0-3.05,0-4.57C168.21,157,167.78,156.85,167.09,156.83Z"/><path class="cls-1" d="M170.37,144.45c1.15,0,1.71-.3.75-1.51a3.47,3.47,0,0,1-.43-1.85c-.12-2.4-.18-4.81-.25-7.21a2.07,2.07,0,0,1,.82-2c.38-.25.91-.45.66-1.07a1.32,1.32,0,0,0-1.15-.7,14.06,14.06,0,0,0-4.39-.1c-1.72.27-1.87.66-.81,2,.71.92.59,3.33-.19,3.92s-3.41.38-3.88-.16a3.32,3.32,0,0,1,.44-4.07c1-.8.64-1.26-.33-1.55a9.3,9.3,0,0,0-5.55.17c-.92.28-1.6.82-.28,1.61a1.39,1.39,0,0,1,.8,1.29c-.29,3,.24,6-.56,8.94-.64,2.34-.73,2.32,1.89,2.35h.78l1.16-.06c2.13-.14,2.1-.13,1.49-2.08a12.91,12.91,0,0,1-.39-2.25c-.19-1.64.36-2.26,2-2.34,3-.15,3.48.42,2.93,3.31a4.22,4.22,0,0,1-.7,2c-.85,1.07-.13,1.35.75,1.38C167.43,144.51,168.9,144.48,170.37,144.45Z"/><path class="cls-1" d="M150.1,129.86a36.62,36.62,0,0,1-5.44.14c-1,0-2,.06-3,0-2.08-.15-3,.45-3.55,2.48-.13.45-.29,1,.16,1.3a1.2,1.2,0,0,0,1.47-.15c.28-.21.52-.47.79-.7.59-.52,1.23-1,2-.59a1.8,1.8,0,0,1,.87,2.12c-.33,1.85-.31,3.73-.48,5.6-.11,1.19-.15,2.43-1.36,3.26-.82.57-.31,1,.43,1.08a39.18,39.18,0,0,0,6.85,0c.81-.07,1.11-.52.37-1.11a4,4,0,0,1-1.21-3.34c0-1.87-.07-3.75-.17-5.62,0-.81,0-1.54.82-1.94s1.46,0,2,.6a10.42,10.42,0,0,0,.77.72,1.13,1.13,0,0,0,1.89-1.12A2.69,2.69,0,0,0,150.1,129.86Z"/><path class="cls-1" d="M161.81,110.56c.1-3.9-3.57-7.51-7.74-7.58-4.7-.09-8.47,3.13-8.54,7.28-.07,4,3.61,7.46,8,7.52S161.71,114.37,161.81,110.56Zm-5.35,3.89a2,2,0,0,1-3.53.75,11.12,11.12,0,0,1-2.53-8.33,2,2,0,0,1,1.73-1.76,2.81,2.81,0,0,1,2.83,1c1.54,1.73,1.47,4,2.07,6.07A15,15,0,0,1,156.46,114.45Z"/><path class="cls-1" d="M152.17,156.9c-1.65-.58-1.25-1.39-.24-2.17.35-.27.72-.44.59-.92s-.73-.48-1.18-.47a2.05,2.05,0,0,0-1.72,1.06c-.55.89.08,2.38-1.4,2.83,0,0,.06.57.17.61,1.69.5.63,1.87.92,2.69,0,.7,0,1.29,0,1.87s-.18,1.13.69,1.12c.69,0,1.13-.29,1.16-1s0-1.64,0-2.46-.46-1.9,1-2.11A.53.53,0,0,0,152.17,156.9Z"/><path class="cls-1" d="M142.32,162.26a1,1,0,0,0-1.32.53c-.29.52.05.9.51,1.1,1.08.45.28,1.07.22,1.66a2.79,2.79,0,0,0,1.44-2.11A1.13,1.13,0,0,0,142.32,162.26Z"/><path class="cls-1" d="M173.44,157c-.68.28-1.09.54-1.85-.09-.51-.43-1.66-.31-1.51,1.05.07.69,0,1.4,0,2.11h0c0,.76,0,1.52,0,2.28,0,.58-.07,1.21.85,1.21s1-.55,1-1.15c0-.94,0-1.88,0-2.81a1.41,1.41,0,0,1,1.51-1.4c1,0,1.3.62,1.3,1.5s0,2,0,3a.75.75,0,0,0,.91.8c.54,0,.9-.25.9-.85a31,31,0,0,0-.07-3.86A2.22,2.22,0,0,0,173.44,157Z"/></svg>