<svg id="Capa_1" data-name="Capa 1" xmlns="http://www.w3.org/2000/svg" viewBox="0 0 333.37 211.65"><defs><style>.cls-1{fill:#fff;}</style></defs><path class="cls-1" d="M301.27,14.85c2.48.45,4.21-.33,6-.56,17.09-2.18,26.41,5.64,26.08,23.75a30.05,30.05,0,0,1-5.59,16.78c-9.15,13.27-18.1,26.69-27.55,39.73a47.48,47.48,0,0,0-9.53,27.74c0,.5-.13,1-.12,1.49.15,5.85-2.75,9.28-8.34,10.68-2.31.58-4.59,1.33-4,4.51,2.91,2,6.81-1.41,9.95,1.67-3.27,3.91-8.12,1.33-11.74,4.32-2.5,8.6-4.46,18-6.45,27.38-1.94,9.09-3.62,18.23-5.47,27.33a14.81,14.81,0,0,0-.3,6.39c.52,2.31-.39,4.13-2.47,5.59-3.22-1.66-2.25-4.39-1.88-6.61q1.83-11,4.1-22c2-9.91,4.26-19.78,6.38-29.67a12,12,0,0,0-.08-2.09c-1.89,2-3.4,3.68-5,5.28a31.79,31.79,0,0,1-7.38,5.89c-4.92,2.62-9.26.86-11.12-4.34-.36-1,.13-2.28-1-3.37-2,2.24-3.85,4.62-6.33,6.29-4.33,2.92-7.61,1.66-8.83-3.48-.53-2.23-.85-4.5-1.33-7.12-2.75,1.19-3.94,3.41-5.19,5.46a105,105,0,0,0-8.19,17c-.63,1.62-.77,3.66-2.71,4.51-2.16-.28-2.17-1.71-2-3.32a146.77,146.77,0,0,1,3-15.11,2.61,2.61,0,0,0,0-2.12,183.84,183.84,0,0,1-11.36,18.23,83.08,83.08,0,0,1-10.41,12.06A31.89,31.89,0,0,1,186,191.9c-8.29,4.54-15.72,2.3-20-6.14a40.79,40.79,0,0,1-4.17-17.31c-.88-25.55,5.74-49.27,17.82-71.61a32.61,32.61,0,0,1,7.3-9.41c5.21-4.45,9.79-3.1,11.48,3.53s1,13.25.39,19.84a200,200,0,0,1-4.6,26.46c-.37,1.56-.31,3.43-2.73,3.64-2.27-1.5-.89-3.63-.61-5.37,1-6.06,2.32-12,3.3-18.11a93.2,93.2,0,0,0,1.42-20.83c-.18-2.79-.39-5.62-2.64-7.91-2.89,0-4.39,2.16-5.94,4a58.91,58.91,0,0,0-8.48,14,152.74,152.74,0,0,0-13.2,51.84,59.63,59.63,0,0,0,2.07,20.72c3.52,12.23,11.32,14.6,21.15,6.45,7.53-6.26,12.88-14.32,17.71-22.67a221.45,221.45,0,0,0,11.89-22.41c2.28-5.25,3-11.18,4.44-17.06-5.85-4.49-5.1-10.24-3-16.22a16.55,16.55,0,0,1,.7-1.86c5.73-11.13,4.77-22.84,3-34.62A57.08,57.08,0,0,0,219.64,58c-4.54-11.19-4.67-22.65-1.52-34.19,3.47-12.75,12.55-19.49,24.79-22.68a30.52,30.52,0,0,1,23.17,2.68c6.53,3.58,13.32,5.57,21,4.92C292.59,8.27,298.19,9,301.27,14.85ZM279.41,73.47c.23,2.22-.77,3.66-1.09,5.24-.88,4.24.22,6.85,3.82,8.7s6.3,1.46,9.36-1.77c2.31-2.43,3.8-5.42,5.55-8.25,1.31-2.11,2.43-4.5,5.15-5.36a46.11,46.11,0,0,1-3.8,6.91c-1.94,3.1-3.93,6.17-5.8,9.3-.88,1.47-1.47,3.12.2,4.48s3.22.58,4.54-.49a30,30,0,0,0,3.89-3.84c9.09-10.44,16.6-22,23.57-33.91A36.9,36.9,0,0,0,329.74,41c1-7.3-.2-14.27-4.84-20.23-3.59-4.63-10.43-6.1-16.37-4s-4.93,6.75-4.77,11.2c.33,9.63-4,17.25-10.28,24a3.67,3.67,0,0,1-3.68,1.53c2.13-4.35,4.92-7.87,7.5-11.48,4.46-6.26,5.08-13.27,3.95-20.49-.77-4.91-3.78-8.36-8.59-10.13-4.18-1.54-8.49-1.43-12.8-1.17-9.16.54-15.62,5-19.23,13.48a50.22,50.22,0,0,0-3.7,19.93c0,1.32.55,2.81-.83,4.6-2.54-5.8-1.47-11.08-.39-16.17,2-9.52,6.62-17.54,15.92-22.88-8.8-5.44-17.52-7.84-27.11-5.81C233,5.78,224.59,12,220.78,23.62c-3.08,9.42-3.63,19-.72,28.41,2.39,7.78,5,15.46,5.87,23.61a5.06,5.06,0,0,0,1.89,3.87c1.82-3.48,1.39-6.73,1.15-10s-.06-6.87-.06-11c3.8,6.89.53,14.47,4.13,20.94,7.93-1,5.26-8,7.46-13.15.32,3.46.42,5.93.81,8.36.64,3.9,2.77,5.29,7.63,5.24,4.49,0,6.23-1.4,6.7-5.59.33-2.91.34-5.85.52-9.36,1.78,2.31,1.59,4.51,1.67,6.6.36,9,.34,9,9.13,11,.64.14,1.29.28,2,.37,4.85.63,6.14-.15,8.09-4.59C277.65,76.72,277.64,74.91,279.41,73.47ZM237.65,87.78c1.22.38,1.92,1,2,1.84.44,8.68-4.84,15.76-7.43,24.19,16.15-.77,31.19,2.1,45.5,7,1.88-1.93,2.09-3.83,2.77-5.49a43.36,43.36,0,0,1,3.58-7.65c2.07-3.12,2.76-3.3,6.6-1.89.47-.83,1-1.66,1.42-2.53,2.75-5.35,2.31-7-3.06-9.9a116.17,116.17,0,0,0-13.93-6.64c-9.43-3.56-19.27-4.88-29.23-5.5a91.79,91.79,0,0,0-12,0c-4.62.31-7.06,2.09-6.92,5.57.3,7.71-2.25,14.67-4.69,21.74-.71,2.06-2,4.27-.82,6.82,2.86.17,3.5-1.81,4.08-4,1.76-6.58,3.74-13.09,7.12-19.06C233.84,90.23,234.94,87.83,237.65,87.78ZM219.3,155.54c1.94-2.75,3.75-5.55,6.39-7.6,3.17-2.48,6-1.64,7.3,2.2a27.91,27.91,0,0,1,.94,4.85c.2,1.3.12,2.69,2.13,3.59,8.27-5.42,12.1-14,15.54-23.61-8.71-2.25-17.15-4.89-25.54-9.25C223.17,135.9,221.16,145.68,219.3,155.54Zm58.19-31.21c-5.29-3-10.75-4.3-16.24-5.37a85.78,85.78,0,0,0-21.2-1.9c-3,.17-6,.57-6.92,4.1,2.64,4.72,9.78,8.11,21.25,10.23,5.53-3.29,5.54-3.29,8.81,2.38,1.72,0,3.7.09,5.67,0s4.31.5,6.37-.89Zm-17,12c-2.33,2.93-4.9,5.74-7.53,8.5-3,3.2-3.53,7.46-2.65,11.67.67,3.19,3.23,4.23,6.13,2.47,5.45-3.3,9.29-8.19,12.91-13.26-1.5-1.32-3.61-.75-3.89-3.26,1.48-3.08,5-1,7.41-2.33a4.43,4.43,0,0,0,1.06-3.79Z"/><path class="cls-1" d="M75.08,113.06c2.25-5.76,2.6-12,5.32-17.34,2.81.5,2.64,1.85,2.23,3.46-1.14,4.48-2.2,9-3.25,13.33,1.44,1.23,2.8.56,4.08.55,12.3,0,24.61-.18,36.91-.17a66.31,66.31,0,0,1,7.93.78c1.39.17,2.6.66,2.67,3.12-4.26.78-8.62-.18-12.92-.06s-8.65,0-13,0c-4.49,0-9,.07-13.47.19-4.3.13-8.62-.19-13.07.47-2.09,5-2.9,10.26-4,15.4-4.45,20.76-9.36,41.43-12.67,62.43a14.77,14.77,0,0,0-.16,5.89c.62,2.62.44,2.67-2.49,5.41-2.94-1.17-2.21-3.65-1.89-5.84,1.6-11.35,3.78-22.59,6.11-33.8,1.38-6.63,2.72-13.27,4.23-20.69-6.65,4.58-12.62,8.9-17.74,13.17C48,180.83,36.08,194,18.16,202.62A13.76,13.76,0,0,1,11.88,204c-4.39-.08-6.28-2.64-5-6.93,1.13-3.75,3.54-6.75,6-9.65A161,161,0,0,1,30.75,170c4.3-3.66,8.66-7.24,13.28-11.1-1.78-3.29-4.63-5.21-7.67-6.85a227.61,227.61,0,0,0-22.28-10,49.82,49.82,0,0,1-8.57-4C.58,134.87-1,130.36.64,124.73a24.69,24.69,0,0,1,5.09-9.06A92.56,92.56,0,0,1,49.44,87.29a18,18,0,0,1,9.84-.51c5,1.29,6.79,5.78,4.13,10.19-1.81.14-2.08-1.06-2.38-2.48-.79-3.91-1.34-4.28-5.17-4.42a22.43,22.43,0,0,0-8.28,1.56A95.23,95.23,0,0,0,11,115.14a26.07,26.07,0,0,0-6.7,10.37c-1.34,4.32-.3,7.42,3.56,9.77a36.75,36.75,0,0,0,5,2.3c5.66,2.39,11.37,4.67,17,7.14,6.4,2.82,12.66,5.9,17.56,11.57L68,141.36a3.36,3.36,0,0,0,1.26-2.08c1.62-7.09,3.21-14.18,4.88-21.57-4.72-1-9-.39-13.24-.28-3.32.08-6.64.31-10,.38-1.62,0-3.41.31-4.45-1.79.59-2.25,2.58-2,4.32-2.09,6.15-.15,12.3-.2,18.45-.34C71.05,113.55,72.89,113.8,75.08,113.06ZM10.61,199.78c13.33,1.67,34.18-20.28,34.6-36.86-3.89,3.17-7.51,6-11,9-7.1,6-14.12,12.18-19.81,19.62C12.55,193.94,10.05,196.21,10.61,199.78Z"/><path class="cls-1" d="M91.49,140.53c-1.85.07-2.61-2.08-5-2.12-5.44,2.73-6.26,8.58-8,14.71,4.68-3.36,6.27-8.72,11-11.8,3.4,5.1.45,12,5.61,16.43,5.7-2.75,7.76-8.28,10.64-13.45-3.21-6.79-.17-12.11,4.42-16.91,1.44-1.5,3.17-3.44,5.57-2s1.65,3.74,1,5.83a59.44,59.44,0,0,1-5.12,11c4.31-.76,6.9-4.07,10.27-4.59,3,1.44,1.89,3.5,1.37,5.32-2,7.34-4.56,14.56-5.47,22.18-.16,1.3-.61,2.57.44,4.08,2.21-1.09,3.5-3,4.89-4.76,4.46-5.62,7.89-11.88,11.18-18.22.81-1.55,1.17-3.53,3.19-4.2,1.9.38,2,1.7,1.34,3-4.51,9.08-9.06,18.14-16.17,25.56a9.69,9.69,0,0,1-2.77,2.08c-2.71,1.31-5,.27-5.72-2.68a17.64,17.64,0,0,1,.13-7.41,183,183,0,0,1,4.56-18.34c-3.41.49-6.11,2.51-9.36,1.91-2.15,3.26-4.12,6.51-6.36,9.56s-4.57,6.16-8.8,5.5c-4.44-.69-5-4.83-6.09-8.26a29.26,29.26,0,0,1-.61-3c-1.61-.05-2,1.44-2.8,2.3-1.27,1.31-2.35,2.8-3.64,4.09s-2.64,2.2-4.44,1.26a3.72,3.72,0,0,1-1.84-3.82c.36-6.72,2.65-12.68,7.67-17.26a6.35,6.35,0,0,1,9.66.86C93.21,138.72,93.13,139.8,91.49,140.53Z"/></svg>