<svg id="Capa_1" data-name="Capa 1" xmlns="http://www.w3.org/2000/svg" viewBox="0 0 285.93 81.35"><defs><style>.cls-1{fill:#fff;}</style></defs><path class="cls-1" d="M158.13,0h19.09a1.91,1.91,0,0,1,1,.27c4,2.53,8,5.1,12,7.61,3.53,2.2,7.11,4.33,10.66,6.5,3.36,2.06,6.71,4.14,10.06,6.21l11.49,7.12c3.16,1.95,6.33,3.89,9.49,5.85l11.49,7.11,7.54,4.65H175.19c-.48,0-1,0-1.45,0-1.12.05-1.64-.49-2-1.56-1.58-4.85-3.58-9.6-4.82-14.53-1.53-6.07-4-11.82-5.65-17.81-1-3.44-2.06-6.82-3.22-10.19A4.1,4.1,0,0,1,158.13,0Z"/><path class="cls-1" d="M66.11,45.24c4.57-3.1,8.93-6,13.27-9,6.28-4.3,12.51-8.68,18.82-12.94,5.63-3.8,11.49-7.26,17-11.27,3.68-2.7,7.47-5.19,11.28-7.67a18.76,18.76,0,0,0,3.3-2.46C131.37.22,133.3,0,135.48,0c3.59.09,7.19,0,11.08,0a137.94,137.94,0,0,1-4.48,15.15c-1.64,5.07-3.44,10.09-5,15.17s-3.42,9.85-5.19,14.89Z"/><path class="cls-1" d="M0,81.34c5.78-3.7,11.07-7.12,16.4-10.49,5.15-3.25,10.1-6.79,15.46-9.73,3.27-1.79,6.11-4.36,9.34-6.26,5.15-3,9.85-6.74,15.16-9.56,3.29-1.75,6.14-4.3,9.36-6.21,5.14-3.06,9.84-6.79,15.15-9.6,2.49-1.32,4.66-3.22,7.1-4.66,6-3.55,11.53-7.91,17.7-11.29,4.07-2.23,7.72-5.2,11.59-7.8a5.25,5.25,0,0,1,3.16-1c-.84.6-1.67,1.21-2.52,1.78-7.16,4.8-14.52,9.33-21.43,14.46-5.22,3.89-11,7-16,11.18a90,90,0,0,1-8.72,5.9c-4.26,2.81-8.53,5.59-12.76,8.42-.4.27-.57.89-1.08,1.71h73.52c-1.55,5-3,9.58-4.46,14.24a1.93,1.93,0,0,1-2.25,1.65c-.71-.06-1.44,0-2.16,0h-86c-3.14,0-3.16,0-5.49,1.57-4.59,3.15-9.13,6.38-13.73,9.51-2.63,1.79-5.35,3.51-7.84,5.52a2.66,2.66,0,0,1-1.9.68C5.29,81.32,3,81.34,0,81.34Z"/><path class="cls-1" d="M121.17,81.19H13.3c4.64-3.24,9.34-5.94,13.62-9.26,2.33-1.8,4.84-3.38,7.32-5a6.59,6.59,0,0,1,3.66-.77q21.84.06,43.68,0h40.07a9.13,9.13,0,0,1,2.51,0c.81.23,1.24.53.74,1.87-1.45,3.84-2.22,7.91-3.71,11.76A4.35,4.35,0,0,0,121.17,81.19Z"/><path class="cls-1" d="M285.93,77.87V81.2H125.45c.34-1.11.66-2.14,1-3.33Z"/><path class="cls-1" d="M238.9,48.24c5.69,0,11,0,16.25,0a11.52,11.52,0,0,1,3.65.74A1.78,1.78,0,0,1,260,50.94c-.24,2.74-1.57,3.94-4.19,4.5a9.15,9.15,0,0,0-1.64.41c-.27.11-.44.46-.76.81,1.71.35,3.46.5,4.07,2.42a2.13,2.13,0,0,1,.12,1.21c-.91,2.52-3.68,4.06-6.33,4.57-5.19,1-10.39.5-15.58.61a3.65,3.65,0,0,1-2.47-1.17c.65-.12,1.43,0,1.9-.4a3.11,3.11,0,0,0,1-1.72c.8-3.24,2.17-6.29,3.15-9.47C239.89,50.62,240,50.45,238.9,48.24Zm4.9,15.83c4.27,0,4.26,0,5.36-3.53.13-.41.55-.73.68-1.15a1.9,1.9,0,0,0-1.66-2.5c-.81-.08-1.64,0-2.4,0-.36,1.23-.68,2.29-1,3.36S244.19,62.57,243.8,64.07Zm8.72-13.54a1.25,1.25,0,0,0-.18-.19c-2.52-2.29-3.69-2-4.65,1.17-.39,1.29-.84,2.56-1.21,3.7C250.68,56.63,251.8,53.9,252.52,50.53Z"/><path class="cls-1" d="M187.33,48.24c5.16,0,10.33,0,15.5,0a4.3,4.3,0,0,1,2.65.61c.67.43,1.62.68,1.67,1.46.06,1.1.48,2.32-.63,3.32-1.29,1.17-2.46,2.43-4.37,2.54-.25,0-.48.35-.73.54.26.29.56.86.77.83,1.53-.2,1.93,1.21,3,1.92a12.16,12.16,0,0,1-1.2,2.36c-.49.6,0,.72.21,1,.4.57.66.34,1.05,0,.19-.19.61-.16,1.22-.28a4.51,4.51,0,0,1-2.74,2.34,11,11,0,0,1-4.78.55,7.35,7.35,0,0,1-2.73-1.2c-1.56-.93.52-1.75.16-2.68a.55.55,0,0,1,0-.36c.71-2.42.71-2.42-.65-4.12a13.44,13.44,0,0,0,2.74-2c.84-1,.73-2.52,1.46-3.7.21-.34.55-1.55-.59-1.65-.8-.07-1.28-1.48-2.43-.31a7.2,7.2,0,0,0-1.5,3c-1,3-2.19,6-3.26,9.06-.15.43,0,.94-.13,1.39-.33,1.26.9,1,1.4,1.52-.72,1.57-2.16,1.23-3.37,1.11-2.94-.32-6.09.94-8.93-1.13a2.59,2.59,0,0,0,2.83-1.95c1.06-2.8,1.75-5.71,3-8.47S187.89,50.66,187.33,48.24Z"/><path class="cls-1" d="M218.35,65.48a7.9,7.9,0,0,1-5.47-1.22c-3.75-2.34-3.6-7-1.25-10,2.7-3.54,5.27-4.86,9.68-6.11a15,15,0,0,1,8.06.17,4.58,4.58,0,0,1,3.43,2.79c.42,1.25,2.23,2.38.51,3.92-.38,4.93-3.84,7.31-7.81,9.19A13.78,13.78,0,0,1,218.35,65.48Zm-1-1.69c1.09-.38,1.46,1.64,3.05.62a6.62,6.62,0,0,0,2.42-2.61,7.26,7.26,0,0,0,.27-1c1.09-3.25,2.2-6.51,3.3-9.76a1.59,1.59,0,0,0-1-2.11c-2.12-.52-3.49,0-4.47,2.33-1.13,2.64-1.9,5.43-2.95,8.11A8.37,8.37,0,0,0,217.38,63.79Z"/><path class="cls-1" d="M273.19,56.43c1.57-1.09,3.51-1,4.36-2.92.13-.28,1.06-.2,1.79-.31a32.14,32.14,0,0,1-2.74,7.24,11.77,11.77,0,0,0-.83-1.86,7.69,7.69,0,0,0-1.27-1.28,1.66,1.66,0,0,0-2.67.44c-.76,1.95-1.27,4-1.86,5.94,2.15,1.17,3.92,0,5.57-.5s2.77-1.9,4.32-3.06c.87,2.15-.33,3.52-1.06,4.95-.14.28-.8.42-1.23.42-4.82,0-9.63.09-14.45,0-.89,0-1.76-.41-2.66,0-.07,0-.39-.25-.45-.43s0-.64.05-.66c2.67-.66,2.07-3.14,2.87-4.88a86.13,86.13,0,0,0,2.83-8.19c.5-1.49.43-1.51-.69-2.7a1.07,1.07,0,0,1,.22-.25.71.71,0,0,1,.31-.13h18.78c-.66,1.83-.73,3.79-2.36,5-.36-.35-.95-.66-1-1-.38-2.59-2.81-2.37-4.42-3.21a1.33,1.33,0,0,0-1.81.73C274,51.76,272.58,53.68,273.19,56.43Z"/><path class="cls-1" d="M162.82,48.26h20.94c-1.41,4.88-1.41,4.88-3.1,5.86-.4-1.88.28-4.24-2.34-5.19-1.49.3-1.72,1.85-2.16,3-1.25,3.32-2.33,6.71-3.4,10.1a3.28,3.28,0,0,0,0,1.86c2.42.5.14,1.53.06,1.53-3.61.08-7.23.07-10.84,0-.12,0-.36-.37-.33-.54s.26-.84.39-.83c1.81.08,2-.93,2.59-2.49,1.27-3.67,2.43-7.38,3.78-11,.32-.84,0-1-.33-1.27s-1.07-.32-1.17-.17c-.88,1.33-3.1,1.21-3.37,3.23-.07.47-.75.93-1.24,1.25a3.16,3.16,0,0,1-1.22.18,2.35,2.35,0,0,1-.09-1C161.55,51.39,162.15,50,162.82,48.26Z"/><path class="cls-1" d="M149.44,65.45c-1.66.33-2.52-.22-3.2-1.87-1.13-2.77-2.73-5.34-4.09-8-.61-1.18-.89-2.64-1.77-3.54s-.86-2.46-2.43-2.59a.79.79,0,0,1-.13-.62c.16-.24.46-.55.7-.56,2.77,0,5.54-.08,8.3,0a2.38,2.38,0,0,1,1.71,1c1.61,2.91,3,5.95,4.66,8.84,1.33,2.31.1,4.18-.76,6.08A2.34,2.34,0,0,1,149.44,65.45Z"/><path class="cls-1" d="M204.58,69.22h9.75c-.89,3.24-.89,3.24-4.71,3.91l3.44,1.48c-2.83.83-4.83-.28-6.7-2.43,1.63-.32,3.17-.59,4.68-.94a.93.93,0,0,0,.46-.77c0-.23-.35-.53-.61-.62a3.47,3.47,0,0,0-1.07,0c-3.53-.06-3.52-.06-4.79,3.47a2.47,2.47,0,0,1-.7,1.13,2,2,0,0,1-1.2.28,1.23,1.23,0,0,1-.23-.92c.26-.84.67-1.64,1-2.46C204.12,70.7,204.31,70.06,204.58,69.22Z"/><path class="cls-1" d="M164.81,70l-1.51,3.13c.27.87,1,1.1,2,1.07a24.77,24.77,0,0,1,4.94.25c-3.09.65-6.18.37-9.42.47.2-1.91,1.84-3,1.63-4.72,0-.28,1.05-1,1.64-1,2.49-.12,5,0,7.48,0,0,2.43-.9,3.52-2.77,3.59-1,0-1.93,0-2.88,0-.24,0-.45-.39-.68-.59.28-.28.54-.76.84-.79,1.06-.09,2.13,0,3.25,0C168.35,69.79,168.35,69.79,164.81,70Z"/><path class="cls-1" d="M258.62,74.58c.94-1.69.9-1.83-.58-1.87-.94,0-1.89,0-2.9,0,1-1.38,1-1.41,1.81-1.43s1.68,0,2.51,0c.2,0,.42-.46.5-.74s-.15-.56-.26-.56c-1.42-.06-3-.41-4.23,0a3.84,3.84,0,0,0-1.9,2.59c-.27,1.25-.5,2.71-1.88,2.17-1.14-.45,0-1.75.33-2.66s.57-1.91.85-2.87h9.28a23.51,23.51,0,0,1-.83,4.93A1.85,1.85,0,0,1,258.62,74.58Z"/><path class="cls-1" d="M202.71,69.11c-.05,2.45-.92,3.53-2.81,3.59-1.16,0-2.33,0-3.6,0,.65-1.47,1.68-1.5,2.76-1.44a5.42,5.42,0,0,0,1.39-.13c.12,0,.23-.39.23-.59s-.1-.54-.24-.59c-2.53-.85-4.35,0-5.63,2.5-.33.65,0,1.63.58,1.68.84.07,1.68,0,2.52,0,1.07,0,2.14,0,3.21.07.09,0,.17.15.35.33a3.12,3.12,0,0,1-.91.3c-2.84,0-5.68,0-8.64,0,.24-1.91,1.83-3,1.67-4.72,0-.29,1-1,1.64-1C197.72,69,200.22,69.11,202.71,69.11Z"/><path class="cls-1" d="M159.2,74.76h-9.07c-.27-2.21,1.23-3.62,2.11-5.24a1.22,1.22,0,0,1,.89-.4,75.8,75.8,0,0,1,8.52.28,16.43,16.43,0,0,1-5.22.42c-3.18,0-3.77.6-4.12,4.32,1.66,0,3.31,0,5,0,.27,0,.51-.54.77-.83-.24-.19-.47-.53-.72-.54-1.17-.06-2.34,0-3.93,0,2-2.12,3.72-1.62,5.6-.89,1,.4,1.36.46,1.22,1a4,4,0,0,1-.29.59C159.67,73.85,159.42,74.34,159.2,74.76Z"/><path class="cls-1" d="M227.76,71.21h6.92a18.91,18.91,0,0,1,0,2.14,1.56,1.56,0,0,1-1.63,1.5c-2.4,0-4.8,0-7.2,0a1.46,1.46,0,0,1-1.29-.72c2.36,0,4.72,0,7.08,0,.3,0,.59-.48.88-.73-.32-.23-.64-.63-1-.65-1.78-.06-3.56,0-5.25,0-.82-1.56.48-2.45.74-3.48h9c-1.71.85-3.51.54-5.28.59C229.57,69.85,229.57,69.81,227.76,71.21Z"/><path class="cls-1" d="M138.37,74.86c.9-1.88,1.6-3.37,2.32-4.86.47-1,1.38-1.25,2.07-.61,1.2,1.11,2.34,2.31,3.7,3.66a12,12,0,0,0,1.43-1.63c.21-.37,0-1,.19-1.33.39-.51.87-1.38,1.67-.87.32.2.44,1.11.29,1.59a20.24,20.24,0,0,1-1.13,2,8.56,8.56,0,0,0-.35,1.76c-1.54.72-2.77.23-3.88-1.11A32.64,32.64,0,0,0,142.1,71c-.75,1.47-1.31,2.71-2,3.86C140,75,139.21,74.86,138.37,74.86Z"/><path class="cls-1" d="M173.52,69.18c1.9-.54,3.1.4,4,1.91.53.82,1.15,1.59,1.93,2.67A21,21,0,0,0,181,70.37c.32-1.48,1.17-1.38,2.34-1.2-.79,2-1.53,3.75-2.27,5.56-3.05.77-4.1-1.4-5.28-3.53-1.82.31-1.91,2-2.54,3.2-.11.23-.7.5-.77.43-.28-.26-.67-.71-.61-1a23.93,23.93,0,0,1,.93-2.47C173,70.75,173.19,70.12,173.52,69.18Z"/><path class="cls-1" d="M225.35,69.11c-.32,1.1-.53,1.94-.79,2.76-.88,2.75-1.21,3-4.17,3-2.14,0-4.29,0-6.78,0,.68-1.8,1.22-3.44,1.93-5a1.92,1.92,0,0,1,1.45-.73C219.71,69.07,222.44,69.11,225.35,69.11Zm-6.21,5c.24,0,.47,0,.71,0a3.24,3.24,0,0,0,3.26-2.79c.09-1-1.06-1.54-3-1.52a9.55,9.55,0,0,0-1.07,0c-1.09.14-3.32,2.49-3,3.31.5,1.19,1.71,1,2.77,1Z"/><path class="cls-1" d="M251.27,69.83c-2.12,0-4.25,0-6.38,0-.28,0-.54.53-.81.81.23.2.46.56.7.57,1.32.05,2.64,0,4,0,1.56.07,2.05,1.1,1.09,2.42a2.62,2.62,0,0,1-1.63,1.11c-2.81.11-5.64,0-8.46,0v-.72c2.12,0,4.25,0,6.37,0,.93,0,.93,0,2.46-1.44-1.92,0-3.58-.08-5.22,0a2.16,2.16,0,0,1-2.09-1.06c-.19-.28,1.54-2.56,1.95-2.56,2.68,0,5.37,0,8.05,0Z"/><path class="cls-1" d="M260.6,74.14c3.24,0,5.64,0,8,0,.25,0,.5-.34.75-.52-.26-.3-.49-.84-.76-.86-1.44-.08-2.88,0-4.32,0-.92,0-1-.79-.77-1.78.31-1.5,1.14-1.84,2.48-1.82,2.32,0,4.63,0,7,0v.72h-6c-.61,0-1.31-.06-1.13.83.05.26.64.57,1,.59,1.83.1,3.75-.3,5.3,1-.47,2.47-2.14,2.88-4.35,2.68-1.79-.17-3.61,0-5.41-.06A7.33,7.33,0,0,1,260.6,74.14Z"/><path class="cls-1" d="M139.06,53c.67,3.28-.92,5.57-1.54,8-.52,2.11-.69,2.07,1.93,3.4a7,7,0,0,1-2,1,40.42,40.42,0,0,1-4.67,0,.87.87,0,0,1-.68-.54,1.07,1.07,0,0,1,.39-.85,4.33,4.33,0,0,1,1.48-.72c1.2-.27,1.52-1,1.77-2.16a51.12,51.12,0,0,1,2.13-6.63C138,54.08,138.5,53.7,139.06,53Z"/><path class="cls-1" d="M129.23,74.86c1.23-1,2.81-.23,3.57-2.08s1-1.81-1.06-3c-.15-.09-.25-.29-.5-.58h8.39a15.22,15.22,0,0,1-1.92,1.28c-.49.21-1-1.28-1.59-.08-.47,1-1.49,1.82-1.17,3.07.07.28.63.48,1,.62a4.53,4.53,0,0,0,1,.13c0,.18.07.29,0,.35s-.16.24-.25.24C134.22,74.87,131.72,74.86,129.23,74.86Z"/><path class="cls-1" d="M192.65,69.11c-2.82.82-3.55,1.3-4.24,3.26-.3.86.21,1.55,1.32,1.77a4.81,4.81,0,0,1,.65.18c.07,0,.09.16.21.39h-7.81l-.07-.31c.45-.08.9-.2,1.36-.25a3.26,3.26,0,0,0,2.83-2.85c0-.44-.74-.91-1.22-1.27-.09-.06-.6.9-.84,0-.06-.23.43-.87.68-.87C187.89,69.08,190.27,69.11,192.65,69.11Z"/><path class="cls-1" d="M160.29,48.24c-.94,1.88-3.5,1.7-3.76,4A23.16,23.16,0,0,1,154.89,57c-.58-.85-2-1.25-.73-2.42.69-.65.11-1.68.88-2.55.58-.66.3-2.26-.92-3.08-.59-.39-.37-.74.31-.74Z"/></svg>