<svg id="Capa_1" data-name="Capa 1" xmlns="http://www.w3.org/2000/svg" viewBox="0 0 138.66 188.67"><defs><style>.cls-1{fill:#fff;}</style></defs><path class="cls-1" d="M134,94.53a68.25,68.25,0,0,0-15.49-24A66.63,66.63,0,0,0,103,58.72a69.88,69.88,0,0,0-10-4.58,3.23,3.23,0,0,0-3.53.57,2.93,2.93,0,0,0-.85,2.93c.32,1.47,1.45,2.06,2.73,2.55a62.32,62.32,0,0,1,32.05,26.6,60.9,60.9,0,0,1,8,44.18c-3.86,19.89-14.93,34.7-32.73,44.22a60.3,60.3,0,0,1-43.44,5.54c-17.55-4.13-31-14.11-40.17-29.56a63.11,63.11,0,0,1,.72-64.87A62.85,62.85,0,0,1,45.52,61c1.07-.45,2.18-.82,3.22-1.33a3,3,0,0,0,1.57-3.55,2.92,2.92,0,0,0-3.19-2.2,8.09,8.09,0,0,0-2.64.76A68.7,68.7,0,0,0,11.61,81.07,67.16,67.16,0,0,0,.48,127c2.37,20.43,12,36.83,28.8,48.81a66.4,66.4,0,0,0,48.57,12.25c21.61-2.78,38.35-13.59,50.15-31.88a67.09,67.09,0,0,0,10.66-36.82A70.14,70.14,0,0,0,134,94.53Z"/><path class="cls-1" d="M74.19,99.6c5.31-1.7,8.55-6.35,8.58-12.34,0-5.72,0-11.44,0-17.16,0-5.57,0-11.14,0-16.71,0-7.81-4.41-12.9-12.19-13.6S56.08,44,56,52.2c-.17,11.87-.06,23.74,0,35.62a12.1,12.1,0,0,0,2.22,7.1C61.57,99.71,68,101.58,74.19,99.6Zm-12-47.09c0-4.1,3.57-7,7.78-6.55,4.39.46,6.6,2.88,6.6,7.3q0,8.35,0,16.72c0,5.67,0,11.34,0,17,0,3.47-1.4,5.56-4.36,6.67a8,8,0,0,1-8.46-1.84,6.08,6.08,0,0,1-1.56-4.27C62.13,75.87,62.11,64.19,62.16,52.51Z"/><path class="cls-1" d="M35.85,20.41a45.15,45.15,0,0,1,14-9.76C59.36,6.37,69.22,5,79.46,7.47a46.27,46.27,0,0,1,23.21,12.8,3.77,3.77,0,0,0,3.08,1.35,2.67,2.67,0,0,0,2.47-1.94,3.43,3.43,0,0,0-1-3.7C96.8,5.43,84,.53,69.41,0a43.26,43.26,0,0,0-8.13.69C49.76,2.73,39.63,7.51,31.44,16c-1.41,1.47-1.55,3.5-.38,4.7S34.36,21.94,35.85,20.41Z"/><path class="cls-1" d="M92.69,37.11a3.17,3.17,0,0,0,.2-4.56,19.3,19.3,0,0,0-1.61-1.87C85.15,24.7,77.62,22.27,69,22c-.75.06-1.72.1-2.68.21-8.09.91-15.18,3.82-20.49,10.27a3.2,3.2,0,0,0,.08,4.58,3.36,3.36,0,0,0,4.67-.55,19,19,0,0,1,1.87-2c8.61-6.94,18-7.9,28.09-3.68a19.3,19.3,0,0,1,7.58,5.73A3.27,3.27,0,0,0,92.69,37.11Z"/><path class="cls-1" d="M113,124.27a4.84,4.84,0,0,0-.08.59c-.16,1.14-.29,2.29-.54,3.42A44,44,0,0,1,74.12,163a2.09,2.09,0,0,1-1-.07,7.5,7.5,0,0,1-1,.12,15.52,15.52,0,0,1-6.75,0,9.37,9.37,0,0,1-1.62-.12l-.58-.09A43.24,43.24,0,0,1,40.58,152.5c-8.79-7.64-13.63-17.33-15-28.83a.17.17,0,0,1,0-.07,13.4,13.4,0,0,1-.15-4.81,22.9,22.9,0,0,1,.23-3.8c0-.11,0-.21,0-.33,1.81-14.91,9.39-26,22.19-33.64,2.21-1.32,3-3.13,2-4.88-.9-1.59-3-1.82-5.14-.56A51.83,51.83,0,0,0,32.4,85.41a48.74,48.74,0,0,0-13.06,29.94c-1,13.7,2.73,26.08,11.85,36.47,13,14.75,29.35,20.36,48.55,16.55,23.57-4.67,40-25.87,39.75-47.21,0-11.07-2.35-19.71-7.13-27.66a49.74,49.74,0,0,0-18.56-18c-2-1.16-4.08-.79-5,.86s-.16,3.4,1.83,4.58c1.37.81,2.75,1.63,4,2.57,10.67,7.8,16.86,18.22,18.34,31.4a2,2,0,0,1,0,.56c.06.23.1.47.14.7A35.07,35.07,0,0,1,113,124.27Z"/></svg>