<svg id="Capa_1" data-name="Capa 1" xmlns="http://www.w3.org/2000/svg" viewBox="0 0 185.55 187.99"><defs><style>.cls-1{fill:#fff;}</style></defs><path class="cls-1" d="M93,188q-40.62,0-81.24,0C2.43,188,0,185.54,0,176.18Q0,110,0,43.76C0,35.19,2.93,32.22,11.53,32.2q44.78-.09,89.56,0a17.54,17.54,0,0,1,4.41.47,2.68,2.68,0,0,1,2.07,2.87,2.5,2.5,0,0,1-2.36,2.57c-1.9.18-3.83.22-5.74.22-28.36,0-56.73.19-85.09-.11-6.55-.07-8.32,2.11-8.29,8.47q.38,63.66,0,127.31c0,6.2,1.91,8,8,7.94q78.69-.31,157.38,0c6.18,0,8-1.88,7.95-8-.23-42.65-.11-85.3-.13-128,0-3.13.61-6.48-3.34-8.15a2.44,2.44,0,0,1-1.1-3.77,3.2,3.2,0,0,1,3.87-1.47c4.7,1.42,6.86,4.57,6.81,9.52-.1,11.09,0,22.18,0,33.27q0,50.22,0,100.44c0,9.77-2.34,12.14-12,12.15Q133.26,188,93,188Z"/><path class="cls-1" d="M75.73,70.78c10.44,0,20.89-.15,31.33,0C118.37,71,122.86,75.7,122.9,87c.06,14.07,0,28.14,0,42.21a36.61,36.61,0,0,0,.23,5.74c.64,4,3,6.77,7.15,6.89s6.64-2.59,7.24-6.65a54.09,54.09,0,0,0,.41-7.65c0-13.42,0-26.85.09-40.28,0-2-.44-4.84,2.67-4.86s2.74,2.82,2.74,4.8c0,16.2.16,32.41-.12,48.6-.12,7-5.46,12-12.21,12.41a12.94,12.94,0,0,1-13.45-10.37,43.07,43.07,0,0,1-.82-8.87q-.14-21.42,0-42.84c0-6.14-3-9.17-8.95-9.19Q74.94,76.81,42,77c-5.8,0-9.2,2.94-9,9.16,0,1.49,0,3,0,4.47,0,10.54,1.29,11.8,11.65,12.08,4.89.14,9.8.3,14.67.78,8.08.79,12.06,5.25,12.31,13.47.1,3,0,6,.06,9,.24,7.57,2.55,9.85,10,10.06,3.82.11,7.66-.26,11.44.73,8.49,2.23,11.72,8.57,10.32,20.47-.84,7.1-5.88,11.63-13.54,11.71-13.65.13-27.29.09-40.93,0-2.36,0-6.08.88-6.07-2.75,0-3.81,3.84-3.25,6.49-3.27,12.57-.08,25.15,0,37.73-.07,8.23,0,10.23-2.15,10.23-10.23,0-7.78-2.37-10.21-10.26-10.46-1.49,0-3,0-4.47,0-12.43-.07-16.92-4.51-17.11-16.91-.26-16.07-.34-16.16-16.69-16.33-19.74-.21-22.22-2.69-22-22C27,76.19,31.22,71.38,41.84,71c11.28-.39,22.59-.09,33.89-.09Z"/><path class="cls-1" d="M169,29.84c.26,4.1-1.2,8.32-3.25,12.33-5.59,10.9-13.35,20.21-21.59,29.18-2.42,2.63-4.27,2.77-6.73,0-8.59-9.49-17.05-19.07-22.37-30.9a28.18,28.18,0,0,1,5.71-31.86c8.27-8.4,19.92-10.88,30.54-6.5C162.2,6.63,169.05,17.17,169,29.84Zm-6.11-.54c-.11-9.7-5.69-18-14-21.47a21.38,21.38,0,0,0-23.52,4.91,22.35,22.35,0,0,0-4.71,25.31c4.19,9.2,10.7,16.83,17.07,24.54,2.14,2.6,3.91,2.67,6.1,0,5.82-7.07,11.76-14,16-22.2C161.66,36.79,163.16,33.05,162.86,29.3Z"/><path class="cls-1" d="M11.41,140.45c0-10.5,4.26-17.22,11.31-20.17a18.16,18.16,0,0,1,20.06,4c5.52,6,7.43,12.87,4.12,20.61S38,158.9,32.39,165c-1,1.06-2.23,2.61-3.72,1.1C20.75,158.09,12.65,150.13,11.41,140.45Zm18-15.22c-3.34-.28-6.26,1.24-8.58,4-7.28,8.6-3.29,17.56,7.3,26.63,5.32,4.56,6.86-5.77,10.59-8.79,1.36-1.1,2-3.21,2.69-5A12.5,12.5,0,0,0,29.41,125.23Z"/><path class="cls-1" d="M141,43.53c-8.6.11-15.32-6.31-15.3-14.63a15,15,0,0,1,30,0A14.56,14.56,0,0,1,141,43.53Zm-.11-6.19a8.59,8.59,0,0,0,8.6-8.42,9.18,9.18,0,0,0-8.64-8.57A9.07,9.07,0,0,0,132,29.27,8.57,8.57,0,0,0,140.91,37.34Z"/><path class="cls-1" d="M39.75,137.82a10.09,10.09,0,0,1-9.83,10.34c-5.48.07-10.61-5.14-10.48-10.64s4.6-9.68,10.45-9.68S39.78,131.85,39.75,137.82Z"/></svg>