<?xml version="1.0" encoding="utf-8"?>
<!-- Generator: Adobe Illustrator 25.4.1, SVG Export Plug-In . SVG Version: 6.00 Build 0)  -->
<svg version="1.1" id="Capa_1" xmlns="http://www.w3.org/2000/svg" xmlns:xlink="http://www.w3.org/1999/xlink" x="0px" y="0px"
	 viewBox="0 0 171.8 185.7" style="enable-background:new 0 0 171.8 185.7;" xml:space="preserve">
<style type="text/css">
	.st0{fill:#FFFFFF;}
</style>
<g>
	<path class="st0" d="M169.4,138.2c-2.4-4.4-5.7-8.2-9.6-11.3c-4.9-4.1-8.2-9.7-9.6-15.9c-1.4-5.5-2.1-11.2-2.3-16.9
		c0-0.7-0.2-1.4-0.6-1.9c-0.6-0.5-2.1-0.4-3.4-0.3c-0.5,0-1,0-1.4,0c-0.5-0.1-0.9,0-1.4,0.1c-0.1,0.3-0.1,0.7-0.1,1l0.1,1.2
		c1.1,14.2,2.1,27.6,13.7,37.3c3,2.4,5.6,5.4,7.7,8.7c1.7,2.8,3.2,6.2,1.3,10.2c-2,4.2-5.8,4.2-8.8,4.2h-0.5c-17,0-33.9,0-50.9,0
		H66.4c-16.5,0-33,0-49.5,0c-4.5,0-7.7-1.5-9.2-4.1c-1.5-2.6-1-6.1,1.3-9.8c1.8-3,4.1-5.7,6.7-7.9c7.7-6.2,12.1-14.7,13.4-25.8
		c0.6-4.8,1-9.6,1.5-14.3c0.6-6.5,1.3-13.1,2.2-19.6c3.6-25.8,16-41.8,37.7-48.8c2.7-0.9,3.2-2.4,3.5-5.8
		c0.6-7.1,5.2-11.6,11.7-11.6h0.1c6.8,0,11.2,4.5,11.6,11.7c0.2,3.6,1.4,5.2,4.8,6.1c2.8,0.7,5.4,1.8,7.8,3.2c0.8,0.6,1.8,1,2.8,0.9
		c1.2-0.3,2.1-1.8,2.9-3.2c0.3-0.5,0.6-0.9,0.8-1.3c0.4-0.6,0.4-0.9,0.4-0.9c-0.2-0.4-1.7-0.8-2.3-0.9c-0.4-0.1-0.8-0.2-1.3-0.4
		c-5.7-2.2-9.1-5.7-11.2-11.8C99.9,3.7,92.9-0.4,84.8,0c-7.7,0.3-14.3,5.6-16.4,13c-0.8,2.9-1.8,5.4-5.3,6.9
		C43.4,28.2,31.7,43.3,27.1,66c-1.4,8-2.4,16-2.8,24.1c-0.2,3.2-0.5,6.4-0.8,9.6c-0.9,10-3.3,21.2-13.7,29.3
		c-3.9,3.1-6.8,7.1-8.6,11.7c-3.2,7.5,0.3,16.2,7.8,19.4c1.9,0.8,4,1.2,6.2,1.2h0.1c5.4,0,10.9,0,16.3-0.1c7.3,0,14.8,0,22.2-0.1H54
		c3.8,0,5.6,1.4,6.8,5.2c3.7,11.9,13.3,19.3,25.1,19.4H86c11.6,0,21.5-7.5,25.1-19c1.5-4.7,4.2-5.6,8-5.5c6.9,0.1,13.8,0.1,20.6,0.1
		c5.2,0,10.6,0,16,0h0.2c6.1,0,11.2-2.6,13.9-7.1C172.5,149.7,172.4,143.8,169.4,138.2z M103.8,167.4c-3.8,7.3-9.9,11.2-17.6,11.3
		H86c-7.8,0-13.8-3.8-17.5-11c-0.9-1.7-1.6-3.5-0.6-5.1c1-1.5,3.1-1.7,4.6-1.6c3.3,0.1,6.6,0.1,9.9,0.1h4.3h4c2.9,0,5.9,0.1,8.9-0.1
		c1.7-0.1,3.8,0,4.8,1.6C105.2,164.2,104.5,166.1,103.8,167.4z"/>
	<path class="st0" d="M123.6,72.6c5.3,5.3,12.4,8.3,19.9,8.3h0.1c15.3,0,27.7-12.3,27.9-27.5c0.1-7.6-2.8-15-8.1-20.4
		c-10.9-11-28.7-11.1-39.7-0.1C112.7,43.8,112.7,61.6,123.6,72.6z M144.2,75.2c-0.1,0-0.2,0-0.3,0h-0.4c-3.5,0.2-6.6-2.5-6.8-6
		c0-0.2,0-0.5,0-0.7c-0.1-4.1,2.3-6.6,6.6-7.1h0.2c4.3,0.2,6.9,2.9,6.9,7.1C150.6,72.1,147.8,75,144.2,75.2z M138,31.4
		c1.2-1.3,3.1-1.9,5.9-1.8c2.5,0,4.2,0.6,5.4,1.8c1.5,1.6,1.6,3.9,1.5,6.3c-0.2,6.4-0.2,12,0,17.1c0.2,1.6-0.3,3.3-1.4,4.5
		c-1.3,1.3-3.2,1.5-5.1,1.5h-0.9c-2,0-4.1-0.1-5.5-1.6c-1-1.2-1.4-2.8-1.2-4.3c0.1-2.2,0.1-4.5,0.1-6.7c0-1,0-2,0-3
		c0-0.8,0-1.7,0-2.5c0-1.7,0-3.2-0.1-4.8C136.4,35.5,136.4,33,138,31.4z"/>
</g>
</svg>
