<svg id="Capa_1" data-name="Capa 1" xmlns="http://www.w3.org/2000/svg" viewBox="0 0 177.17 188.67"><defs><style>.cls-1{fill:#fff;}</style></defs><path class="cls-1" d="M71.61,0c9.46,2,19,4.35,26.54,10.63,5.55,4.65,10.28,4.91,17.17,3.13,31.08-8,61.73,16.35,61.85,48.4.08,19.24-8.41,33.71-24.31,44-2.71,1.75-3.74,3.41-2.62,6.45a47.8,47.8,0,0,1,1.69,6c.45,1.93,1.26,3.26,3.42,3.67,2.79.53,4.18,2.62,4.87,5.19,3.16,11.72,6.39,23.42,9.38,35.18a15.62,15.62,0,0,1-10.37,18.58c-7.8,2.42-16.61-1.45-19.06-9.37-3.84-12.38-6.89-25-10.27-37.53a5.68,5.68,0,0,1,1.21-5.09c2-2.72,1.31-12.77-1-15a3,3,0,0,0-2.32-.62,53.55,53.55,0,0,1-15.66-2.31c-2.43-.8-3.85-.16-5.2,1.94a300.13,300.13,0,0,1-19.69,27.58c-1.71,2.11-1.31,2.86,1.39,3.31a69,69,0,0,1,22.17,7.25c5.58,3.06,10.68,6.87,10.82,13.79s-5,10.65-10.3,13.69c-8.85,5.09-18.7,7.32-28.7,8.52-18.28,2.19-36.47,1.8-54.38-3.06a53.93,53.93,0,0,1-16-7c-10.39-7-10.46-16.81-.21-24a49.62,49.62,0,0,1,14.81-6.69c2.81-.82,5.67-1.47,8.53-2.11,5.45-1.22,5.47-1.21,1.87-5.76a260,260,0,0,1-22.71-33.1C7.6,93.46,1.27,81,.19,66.69c-1.28-17,3.91-32,14.86-44.84A61.2,61.2,0,0,1,52.06.66,12,12,0,0,0,54,0ZM6.41,61.23A51.51,51.51,0,0,0,9.9,80.77C21,110.53,41.47,134.09,61.2,158.13c1.23,1.51,2.41,1.65,3.73,0,2-2.51,4.11-4.93,6.16-7.39a458.23,458.23,0,0,0,29-38.38c2.25-3.37,2.56-5.42-1.39-7.52a35.56,35.56,0,0,1-6.56-5.13c-2.18-1.93-4-5.34-6.31-5.74S80.66,96.16,78,97.38c-15.84,7.32-35.37,1.88-45.78-12.74-10.23-14.36-9-34.55,2.92-47.09,13.08-13.78,31.2-16.39,47.62-6.67,2.42,1.43,3.79,1.39,5.53-.91a32.2,32.2,0,0,1,8.57-7.92c3-1.92,2.57-3.15-.12-5C84.56,8.7,71.3,4.91,56.43,6.63,28,9.92,6.41,33.84,6.41,61.23ZM64,31.78c-21.66,0-36.19,18.56-31.24,38.93,4.86,20,29.13,29.94,46.39,19.05,1.87-1.18,3.33-2.09,2-4.89-6.9-14.61-7-29.33,0-43.95,1-2.13.5-3.32-1.35-4.44C74.74,33.38,69.33,31.4,64,31.78Zm-1.1,150.68c9.21-.41,18.39-1,27.41-2.84,7.68-1.58,15.2-3.76,21.52-8.68,4.37-3.4,4.45-7.15.46-10.89a23,23,0,0,0-7-4.45,85,85,0,0,0-21.73-5.82,4.93,4.93,0,0,0-5,1.95c-3.84,4.77-7.79,9.45-11.75,14.13-2.7,3.18-4.35,3.3-7.14.16q-6-6.71-11.56-13.75c-1.55-2-3.1-2.8-5.67-2.42a84.29,84.29,0,0,0-19.77,5.09,30.79,30.79,0,0,0-8.33,4.72c-4.59,3.81-4.65,7-.15,11.05a25.68,25.68,0,0,0,7.09,4.35C34.57,180.84,48.75,181.65,62.94,182.46ZM171.3,62.92a44.37,44.37,0,0,0-88.74-.13,44.37,44.37,0,0,0,88.74.13Zm-16.59,112.9c6.43-.06,10.7-5.52,9-12.08-2.73-10.81-5.76-21.55-8.62-32.33-.55-2.07-1.45-3.19-3.84-2.48-4.14,1.22-8.32,2.32-12.51,3.39-2.39.61-2.59,2.08-2,4.14,3,10.9,5.78,21.84,8.84,32.71A9,9,0,0,0,154.71,175.82Zm-8.39-54.47c-.59-2.19-1.37-4.85-2-7.55-.54-2.26-1.8-2.86-4-2.21-2,.61-3.77,1.33-3.09,4s1.46,5.35,2.22,8c.62,2.19,2.21,1.64,3.7,1.24S146.63,124.3,146.32,121.35Z"/><path class="cls-1" d="M126.68,23.3c22.6,0,39.62,17.09,39.61,39.75,0,22-17.88,39.94-39.51,39.79-21.9-.15-40.12-18.45-40-40.14A39.62,39.62,0,0,1,126.68,23.3Zm33.71,39.4a33.48,33.48,0,0,0-67,.09c0,19,14.65,33.53,33.75,33.49C145.89,96.24,160.42,81.55,160.39,62.7Z"/><path class="cls-1" d="M123.64,54.12c0-2.37-.12-4.75,0-7.1.12-1.91.85-3.71,3.14-3.75S129.9,45,130,46.91a61.76,61.76,0,0,1,.12,7.93c-.18,3.38,1.12,4.88,4.6,4.71a55.21,55.21,0,0,1,8.33.31c1.76.19,3.27,1.18,3.2,3.23s-1.73,2.84-3.48,2.88c-5,.12-10,.18-15,0-3.16-.1-4.17-2.35-4.19-5.19,0-2.22,0-4.45,0-6.68Z"/></svg>