<?xml version="1.0" encoding="utf-8"?>
<!-- Generator: Adobe Illustrator 25.4.1, SVG Export Plug-In . SVG Version: 6.00 Build 0)  -->
<svg version="1.1" id="Capa_1" xmlns="http://www.w3.org/2000/svg" xmlns:xlink="http://www.w3.org/1999/xlink" x="0px" y="0px"
	 viewBox="0 0 120.2 125.7" style="enable-background:new 0 0 120.2 125.7;" xml:space="preserve">
<style type="text/css">
	.st0{fill:#FFFFFF;}
	.st1{fill:url(#SVGID_1_);}
	.st2{fill:url(#SVGID_00000146483706417602746610000016631417057337142446_);}
	.st3{fill:url(#SVGID_00000109708395785931114100000005597085398557974438_);}
	.st4{fill:url(#SVGID_00000085248166131158966380000012942198530938691258_);}
	.st5{fill:#7A1A26;}
	.st6{fill:url(#SVGID_00000126301697631101647000000001601553103090690954_);}
	.st7{fill:url(#SVGID_00000052806331087757578670000002772977484468433826_);}
	.st8{fill:url(#SVGID_00000034798388334325360590000003339009932656649372_);}
	.st9{fill:url(#SVGID_00000002375391789295175460000018207714813239886209_);}
	.st10{fill:url(#SVGID_00000071531727513504772590000010221298753946517387_);}
	.st11{fill:#F6F6F6;}
	.st12{fill:#1D1D1B;}
	.st13{fill:url(#SVGID_00000047054362336388041470000012640602324095917736_);}
	.st14{fill:url(#SVGID_00000134947024124906748420000014098128135606706074_);}
	.st15{fill:url(#SVGID_00000065787109646778244080000000607929407733282234_);}
	.st16{fill:url(#SVGID_00000105401364225583741700000001391535296707144626_);}
	.st17{fill:url(#SVGID_00000005961137792391161580000016029401638160033464_);}
	.st18{fill:url(#SVGID_00000044890830847011409920000017769651960021616032_);}
	.st19{fill:url(#SVGID_00000016775657097617673470000004585718617634286270_);}
	.st20{fill:url(#SVGID_00000171716916813483250530000017721387922048617099_);}
	.st21{fill:url(#SVGID_00000152970015386024954670000015839426643697742265_);}
</style>
<path class="st0" d="M23.7,98.8c0.6,0.6,1,1.5,1,2.3v0.9l-2.2,0.1v-0.8c0-1-0.5-1.5-1.3-1.5c-0.6-0.1-1.2,0.3-1.3,1
	c0,0.1,0,0.2,0,0.3v7.2c-0.1,0.6,0.3,1.2,1,1.3c0.1,0,0.2,0,0.3,0c0.4,0,0.7-0.1,1-0.4c0.2-0.3,0.4-0.8,0.3-1.2v-2.3h-1.3V104h3.5
	v4.3c0,0.9-0.3,1.7-1,2.3c-0.8,0.6-1.7,0.9-2.7,0.8c-0.9,0.1-1.9-0.2-2.6-0.8c-0.6-0.6-1-1.5-0.9-2.3v-7.3c0-0.9,0.3-1.7,0.9-2.3
	c0.7-0.6,1.7-0.8,2.6-0.7C22,97.9,22.9,98.2,23.7,98.8z"/>
<path class="st0" d="M29.1,109.5h3.8v1.9h-6.1V98.1h2.3V109.5z"/>
<path class="st0" d="M40.5,98.8c0.7,0.6,1,1.5,1,2.4v6.9c0,0.9-0.3,1.8-1,2.4c-0.8,0.6-1.7,1-2.7,0.9c-1,0.1-2-0.3-2.7-0.9
	c-0.7-0.6-1-1.5-1-2.4v-6.9c0-0.9,0.3-1.8,1-2.4c0.8-0.6,1.7-0.9,2.7-0.8C38.8,97.9,39.7,98.2,40.5,98.8z M36.8,100.2
	c-0.3,0.3-0.4,0.7-0.4,1.1v6.9c0,0.4,0.1,0.8,0.4,1.1c0.3,0.3,0.6,0.4,1,0.4c0.4,0,0.7-0.1,1-0.4c0.3-0.3,0.4-0.7,0.4-1.1v-6.9
	c0-0.4-0.1-0.8-0.4-1.1c-0.3-0.3-0.6-0.4-1-0.4C37.4,99.8,37,99.9,36.8,100.2z"/>
<path class="st0" d="M49.6,99c0.7,0.7,1,1.6,0.9,2.5v0.2c0,0.6-0.1,1.2-0.4,1.8c-0.3,0.5-0.8,0.8-1.3,0.9l0,0c0.6,0.1,1.2,0.5,1.5,1
	c0.4,0.6,0.5,1.3,0.5,2.1v0.5c0.1,0.9-0.3,1.9-1,2.5c-0.8,0.6-1.8,0.9-2.8,0.9h-3.3V98.1h3.2C47.9,98.1,48.9,98.4,49.6,99z M46,100
	v3.6h0.7c0.4,0,0.9-0.1,1.2-0.4c0.3-0.3,0.4-0.8,0.4-1.2v-0.4c0-0.4-0.1-0.9-0.3-1.2c-0.3-0.3-0.7-0.4-1.1-0.4H46z M46,105.5v4.1h1
	c0.4,0,0.9-0.1,1.2-0.4c0.3-0.3,0.4-0.8,0.4-1.2v-0.7c0.1-0.8-0.4-1.6-1.2-1.7c-0.2,0-0.4,0-0.5,0H46z"/>
<path class="st0" d="M60,111.4h-2.3l-0.5-3h-2.5l-0.5,3h-2.3l2.6-13.2h2.9L60,111.4z M55.9,101l-0.9,5.6h1.9L56,101H55.9z"/>
<path class="st0" d="M63.9,109.5h3.8v1.9h-6.1V98.1h2.3L63.9,109.5z"/>
<linearGradient id="SVGID_1_" gradientUnits="userSpaceOnUse" x1="73.4099" y1="23.2572" x2="98.6799" y2="22.9873" gradientTransform="matrix(1 0 0 -1 0 128)">
	<stop  offset="0" style="stop-color:#94191B"/>
	<stop  offset="0.62" style="stop-color:#99191C"/>
	<stop  offset="1" style="stop-color:#9F1A1D"/>
</linearGradient>
<path class="st1" d="M78.1,98.8c0.7,0.6,1,1.4,1,2.3v0.9l-2.3,0.1v-0.8c0-1-0.5-1.5-1.4-1.5c-0.4,0-0.8,0.1-1.1,0.3
	c-0.2,0.3-0.4,0.6-0.3,1v7.2c-0.1,0.7,0.4,1.3,1,1.3c0.1,0,0.2,0,0.3,0c0.4,0,0.7-0.1,1-0.4c0.3-0.3,0.4-0.8,0.3-1.2v-2.3h-1.3V104
	h3.7v4.3c0,0.9-0.3,1.8-1,2.3c-0.8,0.6-1.8,0.9-2.8,0.8c-1,0.1-2-0.2-2.8-0.8c-0.7-0.6-1-1.5-1-2.3v-7.3c0-0.9,0.3-1.8,1-2.3
	c0.8-0.6,1.8-0.8,2.8-0.7C76.3,97.9,77.3,98.2,78.1,98.8z"/>
<linearGradient id="SVGID_00000108271475654802700030000012465177793002701958_" gradientUnits="userSpaceOnUse" x1="73.4201" y1="23.3552" x2="98.7001" y2="23.0852" gradientTransform="matrix(1 0 0 -1 0 128)">
	<stop  offset="0" style="stop-color:#94191B"/>
	<stop  offset="0.62" style="stop-color:#99191C"/>
	<stop  offset="1" style="stop-color:#9F1A1D"/>
</linearGradient>
<path style="fill:url(#SVGID_00000108271475654802700030000012465177793002701958_);" d="M87.8,99c0.7,0.6,1.1,1.5,1,2.5v1.1
	c0.1,0.9-0.3,1.9-1,2.5c-0.9,0.6-1.9,0.9-3,0.9h-1v5.5h-2.4V98.1h3.5C85.9,98.1,86.9,98.4,87.8,99z M83.8,100v4h1
	c0.5,0,0.9-0.1,1.3-0.4c0.3-0.3,0.4-0.8,0.4-1.2v-0.8c0-0.4-0.1-0.9-0.4-1.2c-0.4-0.3-0.8-0.4-1.3-0.4L83.8,100z"/>
<linearGradient id="SVGID_00000136404431481190987670000011871456942020246176_" gradientUnits="userSpaceOnUse" x1="73.4398" y1="23.4435" x2="98.6998" y2="23.1735" gradientTransform="matrix(1 0 0 -1 0 128)">
	<stop  offset="0" style="stop-color:#94191B"/>
	<stop  offset="0.62" style="stop-color:#99191C"/>
	<stop  offset="1" style="stop-color:#9F1A1D"/>
</linearGradient>
<path style="fill:url(#SVGID_00000136404431481190987670000011871456942020246176_);" d="M96.1,98.7c0.6,0.5,1,1.4,0.9,2.2v0.3
	l-2.3,0.2V101c0-0.3-0.1-0.6-0.3-0.9c-0.5-0.4-1.3-0.4-1.8,0c-0.2,0.2-0.3,0.5-0.3,0.9v0.2c0,0.4,0.2,0.9,0.4,1.2
	c0.5,0.5,1,1,1.6,1.4c0.9,0.6,1.7,1.3,2.3,2.1c0.4,0.6,0.7,1.4,0.7,2.1v0.7c0,0.8-0.3,1.7-1,2.2c-1.7,1-3.8,1-5.5,0
	c-0.7-0.5-1-1.3-1-2.2v-0.9l2.3-0.2v0.9c0,0.8,0.4,1.2,1.4,1.2s1.3-0.4,1.3-1.2V108c0-0.4-0.2-0.9-0.4-1.2c-0.5-0.5-1-1-1.6-1.4
	c-0.9-0.6-1.6-1.3-2.3-2.1c-0.4-0.6-0.7-1.4-0.7-2.1v-0.3c0-0.8,0.3-1.6,0.9-2.2C92.3,97.7,94.4,97.7,96.1,98.7L96.1,98.7z"/>
<linearGradient id="SVGID_00000099635517325138068750000015892897479703642521_" gradientUnits="userSpaceOnUse" x1="17.48" y1="73.725" x2="87.79" y2="73.725" gradientTransform="matrix(1 0 0 -1 0 128)">
	<stop  offset="0.5" style="stop-color:#BC181A"/>
	<stop  offset="0.57" style="stop-color:#B41819"/>
	<stop  offset="0.67" style="stop-color:#9D1716"/>
	<stop  offset="0.8" style="stop-color:#781512"/>
	<stop  offset="0.87" style="stop-color:#61140F"/>
	<stop  offset="0.95" style="stop-color:#220B0C"/>
</linearGradient>
<polygon style="fill:url(#SVGID_00000099635517325138068750000015892897479703642521_);" points="24.5,54.3 24.5,54.3 24.5,54.3 "/>
<path class="st5" d="M56.1,3.2c-21.3,0-38.7,14.5-38.7,32.5c0,1.8,0.2,3.6,0.5,5.4C17.9,39.8,14.5,7.5,56.1,3.2z"/>
<linearGradient id="SVGID_00000157310260774619394890000012445390548785209023_" gradientUnits="userSpaceOnUse" x1="17.48" y1="80.315" x2="94.79" y2="80.315" gradientTransform="matrix(1 0 0 -1 0 128)">
	<stop  offset="0.5" style="stop-color:#BC181A"/>
	<stop  offset="0.57" style="stop-color:#B41819"/>
	<stop  offset="0.67" style="stop-color:#9D1716"/>
	<stop  offset="0.8" style="stop-color:#781512"/>
	<stop  offset="0.87" style="stop-color:#61140F"/>
	<stop  offset="0.95" style="stop-color:#220B0C"/>
</linearGradient>
<path style="fill:url(#SVGID_00000157310260774619394890000012445390548785209023_);" d="M94.8,35.7c0-17.9-17.3-32.5-38.7-32.5
	C14.5,7.5,17.9,39.8,18,41c1,4.9,3.2,9.5,6.5,13.3l31.7,37.9l31.2-37.3l0.6-0.7l0,0C92.3,48.9,94.7,42.4,94.8,35.7z"/>
<polygon class="st5" points="24.5,54.3 24.5,54.3 56.1,93.4 87.3,54.8 56.1,92.2 "/>
<linearGradient id="SVGID_00000051354624995655962750000004815352666044834179_" gradientUnits="userSpaceOnUse" x1="53.23" y1="46.43" x2="59.04" y2="46.43" gradientTransform="matrix(1 0 0 -1 0 128)">
	<stop  offset="1.000000e-02" style="stop-color:#C6C4C2"/>
	<stop  offset="1" style="stop-color:#FCFCFC"/>
</linearGradient>
<circle style="fill:url(#SVGID_00000051354624995655962750000004815352666044834179_);" cx="56.1" cy="81.6" r="2.9"/>
<linearGradient id="SVGID_00000101792343159775406620000006208061105443660705_" gradientUnits="userSpaceOnUse" x1="47.3755" y1="53.37" x2="64.909" y2="53.37" gradientTransform="matrix(1 0 0 -1 0 128)">
	<stop  offset="1.000000e-02" style="stop-color:#C6C4C2"/>
	<stop  offset="1" style="stop-color:#FCFCFC"/>
</linearGradient>
<path style="fill:url(#SVGID_00000101792343159775406620000006208061105443660705_);" d="M63.4,77.4c-0.5,0-0.9-0.2-1.2-0.6
	c0-0.1-1.6-2-6.1-2s-6,1.9-6,2c-0.5,0.7-1.4,0.8-2.1,0.3c-0.7-0.5-0.8-1.4-0.4-2.1c0.2-0.3,2.5-3.3,8.5-3.3s8.3,2.9,8.5,3.2
	c0.5,0.7,0.3,1.6-0.4,2.1C64,77.3,63.7,77.4,63.4,77.4L63.4,77.4z"/>
<linearGradient id="SVGID_00000154398716951624856960000003055258737400673931_" gradientUnits="userSpaceOnUse" x1="42.3051" y1="57.96" x2="70.0314" y2="57.96" gradientTransform="matrix(1 0 0 -1 0 128)">
	<stop  offset="1.000000e-02" style="stop-color:#C6C4C2"/>
	<stop  offset="1" style="stop-color:#FCFCFC"/>
</linearGradient>
<path style="fill:url(#SVGID_00000154398716951624856960000003055258737400673931_);" d="M68.5,74c-0.4,0-0.9-0.2-1.2-0.5
	c-0.2-0.2-3.8-4.4-11.2-4.4s-11,4.2-11.2,4.4c-0.5,0.6-1.5,0.7-2.1,0.2c-0.6-0.5-0.7-1.5-0.2-2.1l0,0c0.2-0.2,4.6-5.5,13.5-5.5
	s13.3,5.2,13.5,5.5c0.5,0.6,0.5,1.6-0.2,2.1c0,0,0,0,0,0C69.2,73.9,68.9,74,68.5,74z"/>
<linearGradient id="SVGID_00000153680830274432966490000002063535958431372163_" gradientUnits="userSpaceOnUse" x1="37.99" y1="62.6885" x2="73.72" y2="62.6885" gradientTransform="matrix(1 0 0 -1 0 128)">
	<stop  offset="1.000000e-02" style="stop-color:#C6C4C2"/>
	<stop  offset="1" style="stop-color:#FCFCFC"/>
</linearGradient>
<path style="fill:url(#SVGID_00000153680830274432966490000002063535958431372163_);" d="M72.2,69.8c-0.5,0-0.9-0.2-1.2-0.6
	c-0.2-0.2-4.3-5.3-14.7-5.3s-15.7,5.4-15.8,5.4C40,69.9,39,70,38.4,69.4s-0.7-1.5-0.1-2.1c0,0,0,0,0,0c0.2-0.3,6.1-6.4,18-6.4
	s16.9,6.2,17.1,6.5c0.5,0.7,0.4,1.6-0.3,2.1C72.9,69.7,72.6,69.8,72.2,69.8z"/>
<ellipse class="st11" cx="56.1" cy="35.1" rx="26.5" ry="22.3"/>
<path class="st12" d="M24.5,54.3c0,0,19.2,13.1,73.4-5.5l-0.4-1.5c0,0-49.8,18.9-74.9,4.5L24.5,54.3z"/>
<linearGradient id="SVGID_00000152977850479476312250000018153524036169281191_" gradientUnits="userSpaceOnUse" x1="17.4685" y1="75.1778" x2="109.3685" y2="92.7978" gradientTransform="matrix(1 0 0 -1 0 128)">
	<stop  offset="1.000000e-02" style="stop-color:#C6C4C2"/>
	<stop  offset="0.27" style="stop-color:#D8D7D6"/>
	<stop  offset="0.69" style="stop-color:#FCFCFC"/>
</linearGradient>
<path style="fill:url(#SVGID_00000152977850479476312250000018153524036169281191_);" d="M23.1,52.6c0,0,20.2,13.7,74.2-5.1l3.4,9.4
	l12.6-27.3L80,20.8l7.3,9.7c0,0-26.1,19-69.3,10.5C18.6,45.2,20.4,49.2,23.1,52.6z"/>
<linearGradient id="SVGID_00000028288427567278283040000014871526869228102072_" gradientUnits="userSpaceOnUse" x1="31.7358" y1="96.4512" x2="95.7758" y2="84.5112" gradientTransform="matrix(1 0 0 -1 0 128)">
	<stop  offset="0.4" style="stop-color:#BC181A"/>
	<stop  offset="0.48" style="stop-color:#B41819"/>
	<stop  offset="0.59" style="stop-color:#9D1716"/>
	<stop  offset="0.74" style="stop-color:#781512"/>
	<stop  offset="0.82" style="stop-color:#61140F"/>
	<stop  offset="0.95" style="stop-color:#220B0C"/>
</linearGradient>
<path style="fill:url(#SVGID_00000028288427567278283040000014871526869228102072_);" d="M44.3,40c-0.2-0.1-0.4-0.1-0.7-0.2
	c-0.5-0.2-1-0.5-1.4-0.9c-0.4-0.4-0.9-0.6-1.5-0.7c-1.1-0.3-2.2-0.4-3.3-0.6c-0.8-0.1-1.4-0.4-1.7-1.1c-0.1-0.3-0.5-0.5-0.9-0.8
	l-0.2,0.6h-0.2c-0.5-0.8-1.4-1.3-1.3-2.3c0-0.2-0.1-0.3-0.2-0.5c-0.5-0.5-0.7-1.2-0.6-1.8c0.2-2,0.8-3.9,1.8-5.6
	c2.6-4.3,6.6-7.4,11.9-9.5c0.3-0.1,0.6-0.2,0.9-0.2c0.4,0.2,0.9,0.4,1.3,0.6s0.8,0.5,1.3,0.8l-0.6,0.2c0.4,0.2,1,0.3,1.1,0.5
	s-0.2,0.6-0.3,0.9l-1.2-0.9c-0.1,0.5-0.3,0.8,0.3,0.9c0.1,0,0.2,0.4,0.2,0.7L49.1,20l-0.8-0.4l0.4,0.8l-0.2,0.1
	c-0.4-0.3-0.8-0.5-1.2-0.7c-0.5-0.1-1-0.2-1.6-0.1c1-0.4,2.1-0.8,0.8-2c-0.2,0.2-0.4,0.4-0.6,0.6c-0.3,0.4-0.7,0.8-1.2,1.1
	c-1.1,0.6-2,1.3-3.1,1.9c-0.2,0.1-0.4,0.2-0.7,0.4s-0.4,0.3-0.7,0.5l0.8,0.1l0.1,0.4h0.2c0.2,0,0.4-0.1,0.5,0
	c0.3,0.3,0.8,0.4,1.2,0.2c0.5,0.4,0.4,1.1,1.3,1.5c-0.1-0.3-0.1-0.5-0.2-0.7c-0.1-0.4-0.2-0.7,0.4-1c0.2-0.1,0.3-0.2,0.4-0.3
	c0.1-0.7,0.2-1.4,0.3-2.1c1-0.4,2.2,0,2.6,1c0,0,0,0.1,0.1,0.1l1.1-1c0.4,0.3,1.1,0.6,0.9,1.2c0,0.1,0.1,0.2,0.2,0.3
	s0.5,0.4,0.7,0.7c0.2,0,0.4,0,0.5,0c0.2,0.1,0.3,0.2,0.3,0.3c0,0.3,0.1,0.6,0.1,0.9c0,0.1,0,0.2,0.1,0.2c1,0.3,0.4,1,0.8,1.5
	l-0.2,0.1l-0.2-0.4c-1.3,0.2-2-0.1-2-0.8c-0.4,0.2-0.9,0.4-1.3,0.6c-0.2,0.1-0.2,0.3-0.3,0.5c0.3,0.1,0.6,0.2,0.9,0.2
	c0.1,0,0.3-0.1,0.5-0.1c-0.3,0.7-1,1-1.8,1.3l0.3-0.6l-0.1-0.1c-0.4,0.2-0.8,0.4-1.2,0.7s-0.7,0.4-0.4,0.9c0,0-0.2,0.3-0.3,0.2
	c-0.7,0-0.9,0.4-1.2,0.8s-0.3,0.5-0.5,0.8s-0.2,0.3-0.2,0.4c0.3,0.7-0.2,0.9-0.8,1.2c-0.6,0.3-1,1-0.7,1.7c0,0,0,0,0,0
	c0.2,0.4,0.5,0.9-0.1,1.4c-0.5-0.1-0.5-0.5-0.5-0.8c0-0.7,0-0.7-0.8-0.5c-0.5,0-1,0-1.4,0l0.2,0.3c-0.3,0-0.6,0-0.8,0
	c-0.6,0-1.2,0.2-1.7,0.7c-0.2,0.3-0.4,0.6,0.3,0.7c-0.1,0.2-0.2,0.4-0.3,0.6C38,36,38.4,36.8,39.1,37c0.1,0,0.1,0,0.2,0
	c0.6,0.1,1.1-0.2,1-0.7s0.2-0.5,0.6-0.6c0.2,0,0.4,0,0.5-0.1c0.1,0,0.3-0.1,0.4-0.1c-0.1,0.3-0.2,0.6-0.3,0.9s-0.2,0.6-0.4,1
	l1.8-0.2c0,0.3,0,0.5,0,0.8c0,0.5,0.2,0.9,0.9,0.9c0.2,0,0.4,0.1,0.5,0.1c0.5,0.1,1,0.1,1.3-0.3c0.8-0.5,1.8-0.8,2.8-0.6
	c0.5,0.1,0.9,0.2,1.4,0.2c0.3,0,0.6,0.1,0.8,0.2c0.6,0.3,1.1,0.7,1.8,1c0.3,0,0.7,0,1,0c0.2,0,0.3,0,0.4,0.1c0.7,0.5,1.3,1.1,2,1.7
	c0.3,0.2,0.7,0.3,1.1,0.3c0.4-0.1,0.8,0.1,1.1,0.4c0.1,0.2,0.5,0.2,0.7,0.3c0.3,0.1,0.6,0.2,0.8,0.4c0.3,0.2,0.3,0.4,0,0.7
	c-1.1,0.7-1.5,2-1.2,3.2l-0.9-0.5l-0.3,1.1c0,0,0,0-0.1,0c-0.9,0-0.9,0-1.1,0.8c-0.2,0.8-0.7,1.6-1.4,2.1c-0.3,0.3-0.5,0.5-0.7,0.8
	c0,0.1,0,0.2,0,0.3c0.2,0.5,0.5,0.9,0.7,1.3c0.1,0.2,0.2,0.4,0.2,0.6l0.8,0.7c-0.6,0.1-1.3-0.1-1.8-0.5c-0.9-0.7-1.7-1.5-2.2-2.5
	c-0.7-0.9-1.2-2-1.3-3.2c0-0.7-0.3-1.4-0.8-1.8c-0.5-0.3-1.1-0.5-1.6-0.7c-0.7-0.2-1.2-0.6-1.6-1.2c-0.1-0.1-0.3-0.2-0.5-0.3
	c-0.3-0.3-0.6-0.5-0.9-0.8c-0.5-0.5,0.2-1,0.2-1.5s0.1-0.8,0.1-1.1c0-0.2-0.2-0.4-0.4-0.5C44.9,39.7,44.6,39.9,44.3,40z"/>
<linearGradient id="SVGID_00000158713655182619687920000001456231995601032366_" gradientUnits="userSpaceOnUse" x1="32.3884" y1="99.965" x2="96.4384" y2="88.025" gradientTransform="matrix(1 0 0 -1 0 128)">
	<stop  offset="0.4" style="stop-color:#BC181A"/>
	<stop  offset="0.48" style="stop-color:#B41819"/>
	<stop  offset="0.59" style="stop-color:#9D1716"/>
	<stop  offset="0.74" style="stop-color:#781512"/>
	<stop  offset="0.82" style="stop-color:#61140F"/>
	<stop  offset="0.95" style="stop-color:#220B0C"/>
</linearGradient>
<path style="fill:url(#SVGID_00000158713655182619687920000001456231995601032366_);" d="M69,18c3.2,1.6,5.9,4,7.9,7
	c2.1,3,3.1,6.7,2.8,10.3c-0.3,5.6-3,10.2-8.2,13.9c-1.1,0.8-2.4,1.5-3.7,2c-0.3,0.1-0.7,0.1-1,0.1c0.1-0.2,0.2-0.3,0.2-0.4
	c0.5-0.6,0.9-1.2,1.5-1.7c0.4-0.4,0.9-0.6,1.2-1c0.2-0.3,0.2-0.6,0.2-0.9c0-0.4,0-0.7,0.4-0.9c0.1-0.1,0.3-0.2,0.3-0.3
	c0.2-0.4,0.6-0.8,1-1c0.7-0.6,1-1.6,0.8-2.5c0-0.1,0-0.2,0-0.2c0.1-0.4,0.2-0.7,0.3-1.1c0.2-0.8,0-1-1-0.8c0,0,0-0.1,0-0.1
	c0-0.2,0.1-0.5,0.2-0.7c-0.4,0-0.8,0-1.2,0c-0.2,0.1-0.5,0.1-0.7,0.2c-0.9,0.3-1.8,0-2.3-0.7c-0.4-0.4-0.6-0.9-1-1.2
	c-0.5-0.5-0.4-0.9-0.3-1.4c0.1-0.5,0-1.1-0.2-1.5c-0.3-0.4-0.2-1,0.2-1.2c0,0,0,0,0,0c0.7-0.5,1.3-1,1.9-1.6
	c0.3-0.3,0.6-0.7,0.2-1.2l1.3-0.6c-0.8-1-0.8-1-1.5-0.8l-0.1-0.1l0.6-0.2c0-0.1-0.1-0.2-0.1-0.3c-0.6-1.2-0.4-1.5,1.1-2l0.3-0.1
	c0.7-0.3,0.7-0.3,0.2-0.7c-0.1-0.1-0.2-0.2-0.2-0.3l-0.8-1c0.3,0,0.6-0.1,0.8-0.3c0.3-0.3,0.8-0.7,0.7-0.9c-0.1-0.5,0-0.7,0.7-0.7
	c-0.2-0.6-0.6-1.2-1.1-1.6c-0.4-0.3-0.7-0.7-1-1.1c-0.1-0.1-0.1-0.2,0-0.2c0.7-0.6,0-1-0.3-1.5C69.1,18.1,69,18,69,18L69,18z
	 M73.2,29.5l0.2,0.1c0.6,0.2,1.2,0,1.6-0.4c0.1-0.2-0.1-0.7-0.3-1c-0.3-0.4-0.7-0.8-1.1-1.1c-0.1-0.1-0.3-0.1-0.4-0.1
	c-0.2,0.1-0.6,0.2-0.6,0.4c-0.1,0.4-0.2,0.7-0.8,0.7c0.4,1.1-1.1,0.9-1.6,1.5C71.2,29.6,72.1,30.1,73.2,29.5L73.2,29.5z M75.1,30.8
	c0.5,0.4,0.8,0.8,1.5,0.8c0.4,0,0.7,0.2,1.1,0.4c0.3,0.1,0.6,0.3,0.9,0.5l0.2-0.1l-0.6-1l-0.6,0.2l-1.5-1.6l-0.2,0.7L75.1,30.8z"/>
<linearGradient id="SVGID_00000047035816201216224280000010170935188262052487_" gradientUnits="userSpaceOnUse" x1="35.1078" y1="114.5181" x2="99.1478" y2="102.5881" gradientTransform="matrix(1 0 0 -1 0 128)">
	<stop  offset="0.4" style="stop-color:#BC181A"/>
	<stop  offset="0.48" style="stop-color:#B41819"/>
	<stop  offset="0.59" style="stop-color:#9D1716"/>
	<stop  offset="0.74" style="stop-color:#781512"/>
	<stop  offset="0.82" style="stop-color:#61140F"/>
	<stop  offset="0.95" style="stop-color:#220B0C"/>
</linearGradient>
<path style="fill:url(#SVGID_00000047035816201216224280000010170935188262052487_);" d="M60.1,16.9c-0.6,0.2-1.2,0.4-1.8,0.7
	c-0.2,0.1-0.4,0.2-0.6,0.4c-0.2,0.1-0.3,0.3-0.5,0.4c-0.5,0.1-1,0.1-1,0.8c0,0.3-0.3,0.7-0.4,1.1c-0.8-0.4-1.8-0.1-2.5-0.9
	c-0.5-0.6-1-1.1-0.4-1.9c-0.6,0-0.7-0.3-0.6-0.6s-0.1-0.7-0.5-0.9c-0.3-0.1-0.5-0.3-1-0.6c0.5-0.1,0.8-0.2,1.1-0.2
	c2.1-0.3,4.2-0.4,6.2-0.2c0.6,0.1,1.2,0.5,1.5,1C59.6,16.2,59.9,16.5,60.1,16.9z"/>
<linearGradient id="SVGID_00000049223944467617426740000000014258261355433611_" gradientUnits="userSpaceOnUse" x1="34.6129" y1="111.9021" x2="98.6629" y2="99.9621" gradientTransform="matrix(1 0 0 -1 0 128)">
	<stop  offset="0.4" style="stop-color:#BC181A"/>
	<stop  offset="0.48" style="stop-color:#B41819"/>
	<stop  offset="0.59" style="stop-color:#9D1716"/>
	<stop  offset="0.74" style="stop-color:#781512"/>
	<stop  offset="0.82" style="stop-color:#61140F"/>
	<stop  offset="0.95" style="stop-color:#220B0C"/>
</linearGradient>
<path style="fill:url(#SVGID_00000049223944467617426740000000014258261355433611_);" d="M69.3,24h-1.1l0.6-0.8h-0.7
	c-0.1-0.5,0.2-1.1-0.6-1.4c-0.1,0-0.1-0.3-0.2-0.5l-0.6,0.2l-0.2-1.1c0.5,0,1.2,0.3,1.3,0.7c0.2,0.5,0.8,0.7,1.3,1
	c0.9,0.4,1,1.1,0.3,1.7C69.4,23.9,69.3,23.9,69.3,24z"/>
<linearGradient id="SVGID_00000044878601792837657690000005827155943821047681_" gradientUnits="userSpaceOnUse" x1="35.1279" y1="114.6289" x2="99.1679" y2="102.6889" gradientTransform="matrix(1 0 0 -1 0 128)">
	<stop  offset="0.4" style="stop-color:#BC181A"/>
	<stop  offset="0.48" style="stop-color:#B41819"/>
	<stop  offset="0.59" style="stop-color:#9D1716"/>
	<stop  offset="0.74" style="stop-color:#781512"/>
	<stop  offset="0.82" style="stop-color:#61140F"/>
	<stop  offset="0.95" style="stop-color:#220B0C"/>
</linearGradient>
<path style="fill:url(#SVGID_00000044878601792837657690000005827155943821047681_);" d="M63.6,18.3c-0.6,0.3-1.2,0.5-1.9,0.6
	c-0.6-0.1-1.3-0.3-1.8-0.6c0.2-0.3,0.3-0.4,0.7-0.3c0.3,0.1,0.6,0.1,0.9,0c0.4-0.1,0.8-0.4,1.2,0c0.2,0.1,0.6,0.1,0.9,0.1L63.6,18.3
	z"/>
<linearGradient id="SVGID_00000044879986008675654890000001208318879399816100_" gradientUnits="userSpaceOnUse" x1="34.5211" y1="111.3557" x2="98.5611" y2="99.4157" gradientTransform="matrix(1 0 0 -1 0 128)">
	<stop  offset="0.4" style="stop-color:#BC181A"/>
	<stop  offset="0.48" style="stop-color:#B41819"/>
	<stop  offset="0.59" style="stop-color:#9D1716"/>
	<stop  offset="0.74" style="stop-color:#781512"/>
	<stop  offset="0.82" style="stop-color:#61140F"/>
	<stop  offset="0.95" style="stop-color:#220B0C"/>
</linearGradient>
<path style="fill:url(#SVGID_00000044879986008675654890000001208318879399816100_);" d="M66.1,21.8c0.9,0,1.2,0.4,1.1,0.9
	c-0.1,0.3-0.5,0.5-0.8,0.8l-0.2-0.1L66.1,21.8z"/>
<linearGradient id="SVGID_00000097472658091207731610000014057040779515608748_" gradientUnits="userSpaceOnUse" x1="31.3807" y1="94.5535" x2="95.4307" y2="82.6235" gradientTransform="matrix(1 0 0 -1 0 128)">
	<stop  offset="0.4" style="stop-color:#BC181A"/>
	<stop  offset="0.48" style="stop-color:#B41819"/>
	<stop  offset="0.59" style="stop-color:#9D1716"/>
	<stop  offset="0.74" style="stop-color:#781512"/>
	<stop  offset="0.82" style="stop-color:#61140F"/>
	<stop  offset="0.95" style="stop-color:#220B0C"/>
</linearGradient>
<path style="fill:url(#SVGID_00000097472658091207731610000014057040779515608748_);" d="M42.8,35.3c0.8-0.4,1-0.4,1.5,0.3
	c0.2,0.3,0.5,0.6,0.7,0.9l-1,0.1C44.1,35.9,43.7,35.5,42.8,35.3z"/>
<linearGradient id="SVGID_00000073714752296045735100000000413699632712504766_" gradientUnits="userSpaceOnUse" x1="31.2599" y1="93.8694" x2="95.2999" y2="81.9294" gradientTransform="matrix(1 0 0 -1 0 128)">
	<stop  offset="0.4" style="stop-color:#BC181A"/>
	<stop  offset="0.48" style="stop-color:#B41819"/>
	<stop  offset="0.59" style="stop-color:#9D1716"/>
	<stop  offset="0.74" style="stop-color:#781512"/>
	<stop  offset="0.82" style="stop-color:#61140F"/>
	<stop  offset="0.95" style="stop-color:#220B0C"/>
</linearGradient>
<path style="fill:url(#SVGID_00000073714752296045735100000000413699632712504766_);" d="M44.9,37.1l0.6-0.2l-0.1-0.6
	c0.5,0.3,1.4,0,1.7,0.8C46.4,36.8,45.8,37.6,44.9,37.1z"/>
<polygon class="st12" points="100.8,56.8 101.2,58.2 114.3,29.8 113.4,29.6 "/>
<path class="st0" d="M34.8,112.4v6.8h-0.9v-5.1l-2.3,5.1H31l-2.3-5.1v5.1h-0.9v-6.8h1l2.5,5.6l2.5-5.6L34.8,112.4z"/>
<path class="st0" d="M37.7,118.9c-0.5-0.3-1-0.7-1.2-1.2c-0.6-1.1-0.6-2.5,0-3.6c0.3-0.5,0.7-1,1.2-1.2c0.5-0.3,1.1-0.5,1.7-0.4
	c0.6,0,1.2,0.1,1.8,0.4c0.5,0.3,0.9,0.7,1.2,1.2c0.3,0.6,0.5,1.2,0.5,1.8c0,0.6-0.1,1.3-0.5,1.8c-0.3,0.5-0.7,0.9-1.2,1.2
	c-0.5,0.3-1.1,0.5-1.8,0.4C38.8,119.3,38.2,119.2,37.7,118.9z M40.7,118.2c0.4-0.2,0.7-0.6,0.9-1c0.4-0.9,0.4-2,0-2.9
	c-0.2-0.4-0.5-0.8-0.9-1c-0.4-0.2-0.8-0.4-1.3-0.3c-0.5,0-0.9,0.1-1.3,0.3c-0.4,0.2-0.7,0.6-0.9,1c-0.4,0.9-0.4,2,0,2.9
	c0.2,0.4,0.5,0.8,0.9,1c0.4,0.2,0.8,0.3,1.3,0.3C39.9,118.6,40.3,118.5,40.7,118.2L40.7,118.2z"/>
<path class="st0" d="M49.5,119.3h-0.9l-3.6-5.5v5.5h-0.9v-6.9H45l3.6,5.5v-5.5h0.9L49.5,119.3z"/>
<path class="st0" d="M51.9,112.4v6.9H51v-6.9H51.9z"/>
<path class="st0" d="M57.7,112.4v0.7h-1.9v6.1h-0.9v-6.1H53v-0.7H57.7z"/>
<path class="st0" d="M60.1,118.9c-0.5-0.3-1-0.7-1.2-1.2c-0.6-1.1-0.6-2.5,0-3.6c0.3-0.5,0.7-1,1.2-1.2c1.1-0.6,2.4-0.6,3.5,0
	c0.5,0.3,0.9,0.7,1.2,1.2c0.3,0.6,0.5,1.2,0.4,1.8c0,0.6-0.1,1.3-0.4,1.8c-0.3,0.5-0.7,0.9-1.2,1.2
	C62.5,119.5,61.2,119.5,60.1,118.9L60.1,118.9z M63.1,118.2c0.4-0.2,0.7-0.6,0.9-1c0.4-0.9,0.4-2,0-2.9c-0.2-0.4-0.5-0.8-0.9-1
	c-0.4-0.2-0.8-0.4-1.3-0.3c-0.5,0-0.9,0.1-1.3,0.3c-0.4,0.2-0.7,0.6-0.9,1c-0.4,0.9-0.4,2,0,2.9c0.2,0.4,0.5,0.8,0.9,1
	c0.4,0.2,0.8,0.3,1.3,0.3C62.3,118.6,62.8,118.5,63.1,118.2L63.1,118.2z"/>
<path class="st0" d="M70.1,119.3l-1.6-2.8h-1.1v2.8h-0.9v-6.9h2.2c0.5,0,0.9,0.1,1.3,0.3c0.3,0.2,0.6,0.4,0.8,0.7
	c0.2,0.3,0.3,0.6,0.3,1c0,0.5-0.1,0.9-0.4,1.3c-0.3,0.4-0.7,0.6-1.2,0.7l1.7,2.9L70.1,119.3z M67.4,115.7h1.3c0.4,0,0.8-0.1,1.1-0.4
	c0.3-0.3,0.4-0.6,0.4-1c0-0.4-0.1-0.7-0.4-0.9c-0.3-0.3-0.7-0.4-1.1-0.3h-1.3V115.7z"/>
<path class="st0" d="M73.4,112.4v6.9h-0.9v-6.9H73.4z"/>
<path class="st0" d="M80.3,119.3h-0.9l-3.6-5.5v5.5h-0.9v-6.9h0.9l3.6,5.5v-5.5h0.9V119.3z"/>
<path class="st0" d="M87,114.4c-0.2-0.4-0.5-0.7-0.8-0.9c-0.4-0.2-0.8-0.3-1.3-0.3c-0.5,0-0.9,0.1-1.3,0.3c-0.4,0.2-0.7,0.6-0.9,1
	c-0.4,0.9-0.4,1.9,0,2.8c0.2,0.4,0.5,0.7,0.9,0.9c0.4,0.2,0.8,0.3,1.3,0.3c0.6,0,1.2-0.2,1.7-0.6c0.4-0.4,0.7-1,0.8-1.6h-2.7v-0.7
	h3.7v0.7c-0.1,0.6-0.2,1.1-0.5,1.6c-0.6,0.9-1.7,1.5-2.8,1.5c-0.6,0-1.2-0.1-1.7-0.4c-0.5-0.3-1-0.7-1.3-1.2c-0.6-1.1-0.6-2.5,0-3.6
	c0.3-0.5,0.7-1,1.2-1.2c0.5-0.3,1.1-0.5,1.7-0.4c0.7,0,1.4,0.2,1.9,0.6c0.6,0.4,1,0.9,1.2,1.5L87,114.4z"/>
</svg>
