<svg id="Capa_1" data-name="Capa 1" xmlns="http://www.w3.org/2000/svg" viewBox="0 0 187.44 214.48"><defs><style>.cls-1{fill:#fff;}</style></defs><polygon class="cls-1" points="108.15 214.49 108.15 214.49 108.15 214.49 108.15 214.49"/><path class="cls-1" d="M143.14,197.73c2.79-2.24,2.53-4,1.29-5.92s-3.7-2.22-6.16-1a25.91,25.91,0,0,0-2.72,1.68c-.51.34-1,.67-1.52,1-16.39,10.39-33.94,14.07-52.16,11-37.93-6.5-70.49-44.94-72.6-85.68C8.51,104,8.67,89.1,8.82,74.66c.08-7.19.16-14.57.12-21.79,0-5,2.33-8.56,7-10.6,28.37-12.4,50.12-22,70.53-31.08a15.74,15.74,0,0,1,13.63-.08c22.43,10,46.35,20.62,70.52,31.05,5.43,2.35,7.83,6.07,7.78,12.07-.1,12.06-.09,24.32-.09,36.17v.83q0,10.84,0,21.69a86.63,86.63,0,0,1-.63,11c-1.5,11.69-5.41,23.19-12.32,36.19-1,1.9-2.26,5.36.78,7.07,2.43,1.37,5.12.25,6.87-2.84,9-16.06,13.64-31.12,14.06-46,.5-17.6.41-35.55.31-52.91v-.55c0-7.19-.08-14.37-.07-21.55a4.4,4.4,0,0,0-3-4.54l-2.26-1c-1.51-.71-3-1.39-4.44-2q-10.84-4.76-21.69-9.46c-18.06-7.86-36.67-16-54.86-24.25-5.61-2.56-10-2.56-15.56,0-24,11-49.88,22.49-79.17,35.21C1.54,39.21,0,41.61,0,46.66c.22,20,.15,40.32.07,60v4.29a89.32,89.32,0,0,0,2.07,20.22c8.44,37.35,28.54,62.61,61.46,77.23,4.86,2.15,10,3.3,15.54,4.51,1.86.42,3.75.84,5.64,1.3h17.84c1.75-.41,3.51-.79,5.22-1.16l.11,0A89,89,0,0,0,123,208.84C129,206.43,136.6,203,143.14,197.73Z"/><path class="cls-1" d="M144.8,65.74h0c-2.81-2.25-5.6,0-7.45,2.31-16,19.95-32.27,40.32-48.4,60.55l-.14.18c-2.66,3.32-4.41,5.52-7.52,5.72s-5.08-1.71-8.07-4.6l-3.34-3.24c-7-6.78-14.26-13.79-21.49-20.54-1.44-1.35-2.72-2-3.8-2a4,4,0,0,0-2.74,1.46c-2.49,2.47-.7,5.3.58,6.76.21.24.43.45.65.66l8.05,7.76c6.81,6.57,13.81,13.33,20.73,19.92a12.78,12.78,0,0,0,9.36,3.94c4.15-.11,7.41-1.6,9.67-4.41C108,118.88,125.46,97,144.25,73.41,148.19,68.45,145.9,66.62,144.8,65.74Z"/></svg>