<svg id="Capa_1" data-name="Capa 1" xmlns="http://www.w3.org/2000/svg" viewBox="0 0 239.52 239.47"><defs><style>.cls-1{fill:#fff;}</style></defs><path class="cls-1" d="M239.11,95.5a99,99,0,0,0-7.77-31.84C208.79,11.07,149.72-13.52,96.48,7.49a95.35,95.35,0,0,0-16.41,8.38c-2,1.27-2.48,3.24-1.36,5s3,2.07,4.94,1c.68-.36,1.33-.8,2-1.2a95.42,95.42,0,0,1,47.5-13.61c23.48-.44,44.69,6.49,62.76,21.44,28.26,23.39,40.22,53.71,35.34,90.06-3.22,23.93-14.54,44-33.12,59.45-27.2,22.59-58.4,29.56-91.95,18.55-39.28-12.89-62.16-41-67.24-82.14-3.61-29.2,5.71-54.86,25.52-76.64,2-2.24,4.36-4.23,6.45-6.43a3.23,3.23,0,0,0,.17-4.65,3.43,3.43,0,0,0-4.82-.49A14,14,0,0,0,65,27.3,104.36,104.36,0,0,0,45.18,156.53c1.32,2.27,4.17,4.55,3.67,6.72s-3.49,4-5.39,5.93c-.22.22-.46.42-.66.66a1.39,1.39,0,0,1-1.83.4c-5.07-1.92-9.2-.4-12.89,3.35-8,8.1-16.09,16.1-24.12,24.16-5.27,5.29-5.28,11.6,0,16.87,6.27,6.3,12.59,12.54,18.83,18.87,2.41,2.45,4.84,4.8,8.15,6h4.68c1.8-.88,3.73-1.5,5.2-3q13.14-13.16,26.28-26.3c2.31-2.34,3.93-5.52,2.83-8.49-1.52-4.13.57-6.13,3.11-8.35a9.41,9.41,0,0,0,1.47-1.49c1.21-1.68,2.32-1.54,4-.42A99.91,99.91,0,0,0,127,208c25.32,1.84,48.58-4.32,69.16-19.33,22.35-16.31,36.33-38.13,41.52-65.41.78-4.12,1.22-8.3,1.82-12.45V97.74A21.49,21.49,0,0,1,239.11,95.5ZM49.35,212.37Q40.61,221,32,229.73c-1.13,1.15-1.8.94-2.82-.09Q19.13,219.52,9,209.46a5.81,5.81,0,0,1-1.77-3.21,5.13,5.13,0,0,1,1.53-3.07c5.3-5.28,10.61-10.55,15.85-15.9,1.08-1.1,1.67-.84,2.61.1q11,11.12,22.16,22.15C50.51,210.64,50.4,211.33,49.35,212.37Zm5.95-8c-.67.29-1-.53-1.45-.94-7.16-7.13-14.28-14.31-21.48-21.4-1.11-1.09-.91-1.67.1-2.56s1.55-1.83,3-.39c6,6.12,12.07,12.13,18.11,18.18a7,7,0,0,1,2.21,5.35C55.63,203.09,56.05,204,55.3,204.34ZM69.2,187c-1.29,1.34-2.67,2.61-3.88,4-.85,1-1.39.79-2.21,0q-7.29-7.38-14.68-14.66c-.92-.91-.79-1.43.1-2.21,1.34-1.18,2.61-2.44,3.83-3.74.84-.9,1.41-1.17,2.34,0a100.17,100.17,0,0,0,14.48,14.49,9.8,9.8,0,0,0,1.25.73C69.81,186.33,69.52,186.69,69.2,187Z"/><path class="cls-1" d="M135.26,192.87c48.77.13,88.67-39.64,88.81-88.51S184.36,15.54,135.4,15.44C86.62,15.34,46.92,55,46.64,104,46.36,152.8,86.19,192.75,135.26,192.87Zm.17-170.35A81.89,81.89,0,0,1,217,104.12c.08,44.93-36.61,81.62-81.66,81.65a81.63,81.63,0,0,1,.14-163.25Z"/><path class="cls-1" d="M94.43,154.23q40.92.08,81.85,0c15.22,0,24.22-14.59,17.43-28.22q-20.47-41.07-41-82.09c-3.57-7.13-9.32-11.09-17.28-11.11s-13.87,4-17.47,11.2c-4,8.08-8.08,16.15-12.11,24.23-1.63,3.26-1.3,5.37,1,6.43,2.13,1,3.85,0,5.48-3.29q6.1-12.21,12.22-24.44c2-4.08,5.2-6.65,9.82-6.87,5.54-.26,9.48,2.26,12,7.28q13.56,27.29,27.23,54.52c4.63,9.26,9.34,18.48,13.87,27.78,4,8.12-1,16.91-10,17.11-13.94.3-27.9.08-41.85.08V147q-20.23,0-40.46,0a16.27,16.27,0,0,1-4.86-.49c-7.2-2.2-10.46-9.94-7-17,6.58-13.34,13.28-26.62,19.92-39.92a13.31,13.31,0,0,0,1.09-2.33c.53-1.85.08-3.49-1.75-4.33A3.43,3.43,0,0,0,98,84.11,13.13,13.13,0,0,0,97,86Q87,105.9,77,125.86C70.16,139.64,79.07,154.21,94.43,154.23Z"/><path class="cls-1" d="M149.69,73.26c.36-5.63-3.9-10.26-9.52-11.25a30.75,30.75,0,0,0-4.89-.22c-1,0-2,0-3,0-6.64.37-11.66,5.25-11.24,11.56.53,8.14,1.37,16.28,2.43,24.37a11.61,11.61,0,0,0,11.7,10c6,.07,11.27-3.89,12.09-9.87C148.35,89.71,149.16,81.49,149.69,73.26Zm-7.11.66Q141.51,85,140.33,96a4.9,4.9,0,0,1-4.74,4.6,4.67,4.67,0,0,1-5.18-4.32c-.88-7.58-1.61-15.18-2.26-22.78-.23-2.62,1.36-4.23,4-4.48,1.08-.1,2.18,0,3.27,0s2-.08,3,0A4.21,4.21,0,0,1,142.58,73.92Z"/><path class="cls-1" d="M135.26,116a11.4,11.4,0,0,0,.11,22.79,11.4,11.4,0,0,0-.11-22.79Zm-.17,15.56a4.22,4.22,0,0,1-4-4.33,4.3,4.3,0,0,1,4.33-4,4.17,4.17,0,0,1,4.06,4.26A4.08,4.08,0,0,1,135.09,131.57Z"/></svg>