<svg id="Capa_1" data-name="Capa 1" xmlns="http://www.w3.org/2000/svg" viewBox="0 0 246.47 111.23"><defs><style>.cls-1{fill:#fff;}</style></defs><path class="cls-1" d="M94.45,34.24h-11c-.06,5.54,0,11,0,16.47V67.15a3,3,0,0,1-2.81,1.07c-3.1-.42-6.22.37-9.32-.27-1.45-.3-2.08-.56-2.33-1.82a10.54,10.54,0,0,1-.07-1.95V27a8.44,8.44,0,0,1,0-1.67,2,2,0,0,1,2.46-1.65,19,19,0,0,0,7.43,0,12.81,12.81,0,0,1,5.27,0,15.4,15.4,0,0,0,5.72.18,24.11,24.11,0,0,1,6.92-.23c2.38.41,4.7-.48,7.1.23,1,.3,2.5-.29,3.8-.37,3.08-.19,6.08.8,9.16.52,1.37-.12,2.78.18,4.13-.41a2.34,2.34,0,0,1,1.65,0,9.75,9.75,0,0,0,3.86.41,8.76,8.76,0,0,1,7.23,3.53A6.08,6.08,0,0,1,135,31.44q0,3.63,0,7.27v26a20.69,20.69,0,0,1,0,2.23,1.29,1.29,0,0,1-1.54,1.25c-2.74-.26-5.53.52-8.25-.37a3.8,3.8,0,0,0-1.39,0C121,68,121,68,121,65.13c0-9.22,0-18.45,0-27.68a8.72,8.72,0,0,0-.23-3.17H109.59c-.67.8-.36,1.77-.37,2.66,0,9.32,0,18.64,0,28,0,3.15-.19,3.41-3.31,3.31s-6.17-.09-9.26,0a2.05,2.05,0,0,1-1.73-2.63,6.54,6.54,0,0,0-.12-3.82c-.36-1,.41-1.94.4-3-.07-5.22,0-10.44-.06-15.66a42.07,42.07,0,0,1,0-6.45A6.8,6.8,0,0,0,94.45,34.24Z"/><path class="cls-1" d="M52.1,45.73c0,3.63-.08,7.26,0,10.89a47.65,47.65,0,0,1-.61,5.22,3.93,3.93,0,0,1-1.45,2.31,13.77,13.77,0,0,1-8.49,3.62c-8.17.81-16.36.26-24.54.47-3.53.09-7-.54-10.55-.57-3.18,0-6.37-3.36-6.41-6.78C-.06,51.3,0,41.71,0,32.12c0-2.39,1.49-4,3.17-5.31A15,15,0,0,1,10.32,24c3.42-.58,6.79.12,10.19.06,7.45-.14,14.91,0,22.36-.06,6.12,0,8.94,3.54,9.18,9.15.19,4.18,0,8.38,0,12.57ZM15,34.2a4.07,4.07,0,0,0-.95,3c0,6.14,0,12.28,0,18.42,0,2.4.15,2.55,2.51,2.56q9.5,0,19,0c.62,0,1.31.2,1.82-.39.47-5.14.27-21.65-.3-23.62Z"/><path class="cls-1" d="M166.65,58.22h34c.56,0,1.12,0,1.68,0,1.65.08,2,.36,2,2,.05,2,0,3.91,0,5.87,0,1.45-.49,2-1.93,2.16a11.61,11.61,0,0,1-1.67,0q-18.47,0-36.93,0a22.3,22.3,0,0,1-6.57-.87c-3.76-1.18-4.92-4.26-5-7.84-.07-5,0-10.07,0-15.1,0-3.54,0-7.08,0-10.62a8.72,8.72,0,0,1,5.84-8.59,14.21,14.21,0,0,1,6-1.17c4.28.24,8.53-1,12.79-.45,7.62.9,15.25.22,22.87.45.83,0,1.67,0,2.51-.07,1.27-.08,2,.32,2.08,1.47.1,2.42,0,4.85,0,7.27A1.37,1.37,0,0,1,203,34.11c-.65,0-1.31,0-2,0H168a1.45,1.45,0,0,0-1.63,1.51c0,.18,0,.37,0,.55q0,10.49,0,21A5.49,5.49,0,0,0,166.65,58.22Z"/><path class="cls-1" d="M.59,17.07c.18-2.9-.22-5.72.41-8.6A28.64,28.64,0,0,0,1.17,2.9C1.22.05,1.29,0,4.23,0A46.78,46.78,0,0,1,10,.71c3.58.4,7.17.71,10.77,1a36.84,36.84,0,0,1,6,.65,24.06,24.06,0,0,0,5.26.43c2.13.08,4.25.1,6.09,1.41a1.76,1.76,0,0,0,1.06.25c4.11-.18,8.07,1,12.15,1.23,3.2.16,6.35,1.14,9.56,1.45,2.95.27,5.86.73,8.77,1.26a146.2,146.2,0,0,1,21,5c4.79,1.63,9.6,3.26,14,6.18a2.58,2.58,0,0,1-2.81.48c-4.89-1.44-10-1.87-15-2.52a62.46,62.46,0,0,0-10.26-.79,71.85,71.85,0,0,1-11.88-1,14.07,14.07,0,0,0-1.95-.06c-12.78,0-25.57-.16-38.34.12-3.66.08-7.38.47-11.06.75-4.05.32-8.11,1.17-12.21.72A4.22,4.22,0,0,1,.59,17.07Z"/><path class="cls-1" d="M.68,75.59c2.52,0,4.73-.36,6.92.33a2.1,2.1,0,0,0,.82.12c3.82-.18,7.6.44,11.38.69,13.49.9,27,.45,40.48.39,5.25,0,10.53-.48,15.79-.89,3.23-.25,6.46-.6,9.69-.78a94.2,94.2,0,0,0,9.57-1.37c2.37-.39,4.7-.92,7.07-1.3a2.89,2.89,0,0,1,2.12.21c.21.89-.55.93-1,1.16a71.51,71.51,0,0,1-9.14,4c-4,1.52-8.07,2.64-12.16,3.75-3.19.87-6.51,1.24-9.72,2-5.29,1.33-10.77,1.46-16.08,2.64a43.45,43.45,0,0,1-5.24.52c-2.3.21-4.61.51-6.88.82-2.74.37-5.6,0-8.23,1-3.77,1.42-7.74,1.25-11.64,1.76-4.66.62-9.37.68-14,1.44a53.1,53.1,0,0,1-7.16.7c-1.72,0-2.14-.54-2.07-2.16A46.06,46.06,0,0,0,.76,81.4,26.58,26.58,0,0,1,.68,75.59Z"/><path class="cls-1" d="M107,75.17c3.91.68,7.59,1.46,11.31,1.92,2.47.3,5,.41,7.46.63,14.3,1.29,28.65.41,43,.56,3.44-.9,7-.06,10.48-1a5.37,5.37,0,0,1,1.39-.06c5.58.14,11.09-.7,16.61-1.26a37.55,37.55,0,0,1,7-.35,10.85,10.85,0,0,1,.13,4.73,49,49,0,0,0-.46,9.44c0,3.11-.42,3.39-3.45,3-3.76-.46-7.54-.69-11.29-1.15-3.34-.41-6.68-.24-10-.53-5-.45-9.94-1-14.94-1.07-1.44,0-2.35-1.42-3.86-1.36-.59,0-1.25-.26-1.91-.26-3.24,0-6.41-.7-9.62-1-3.59-.36-7.16-.83-10.72-1.31a89.79,89.79,0,0,1-9.75-1.91c-3.58-.9-7.12-2-10.62-3.13a52.4,52.4,0,0,1-9.83-4.46A1.78,1.78,0,0,1,107,75.17Z"/><path class="cls-1" d="M106.91,17.74a11,11,0,0,1,2.85-2.19c7.14-3.65,14.81-5.51,22.57-7.26,3.42-.77,6.9-1.17,10.32-1.91A34.77,34.77,0,0,1,149,5.62a45.07,45.07,0,0,0,7.68-1,28.75,28.75,0,0,1,4.74-.17A5.35,5.35,0,0,0,164,3.84a8.52,8.52,0,0,1,4.24-1c1.4,0,2.8,0,4.2,0a73.24,73.24,0,0,0,10.75-1,3.3,3.3,0,0,1,.83,0C188,2,192,1.12,196,1c1.93,0,3.84-.63,5.8-.52,1.62.1,2.11.4,2,2-.18,4.1.51,8.14.61,12.22,0,.56,0,1.12,0,1.68a1.46,1.46,0,0,1-1.6,1.54,11.5,11.5,0,0,1-1.95-.05c-3.93-.65-7.89-.92-11.86-1.19a42.71,42.71,0,0,1-6.3-.79,24.5,24.5,0,0,0-5-.2c-5.1,0-10.21-.38-15.29-.72-8.1-.55-16.18-.36-24.26-.24-3.12,0-6.31.15-9.43.47-6.23.64-12.52,1-18.62,2.54A7.06,7.06,0,0,1,106.91,17.74Z"/><path class="cls-1" d="M245.62,79.71a34,34,0,0,0-6.27-.17c-.56,0-.78.4-.8.93s.14,1.13.86,1.16c1.12,0,2.24,0,3.36,0,1.94,0,3.35,1,3.5,2.82a16,16,0,0,1-.25,6.36c-.52,1.61-1.88,2.8-3.42,2.45a28.07,28.07,0,0,0-5-.36,2.12,2.12,0,0,1-1.53-.55c-.36-.37-.68-.56-1,.09-.24.46-.78.44-1.24.44-1.69,0-3.33-.75-5.25.28V86c-1.51-.64-2.87-.35-4.53-.3v6.72c-1.43.93-2.21.19-3-.44-.73.65-1.3,1.57-2.54,1a4.17,4.17,0,0,0-3.41-.07c-2.27.92-4.57.36-6.84,0-1.39-.23-2.27-1.72-2.12-3.43a2.18,2.18,0,0,1,2.39-2.15c1.49-.06,3,0,4.48,0,.52,0,.91-.24.92-.8s-.34-.83-.87-.84l-3.36,0c-2.08,0-3.31-1-3.52-3.12a20.78,20.78,0,0,1,0-4.46c.23-2,1.48-3,3.57-3.08,1.4,0,2.8,0,4.2,0,2.48,0,3.12.61,3.37,3a7.94,7.94,0,0,1-.1,1.2c-1.55.61-3.15.17-4.69.31a16.32,16.32,0,0,0-2.21.17,1.07,1.07,0,0,0-.77,1.31c.08.61.55.67,1,.67,1.21,0,2.42,0,3.63,0,2.07,0,2.85.7,3.09,2.72a16.42,16.42,0,0,1,0,2.2c.57.86,1.19.62,1.71.74s.81.47,1.45.29a22.83,22.83,0,0,0,.18-4.62c0-1.58,0-3.17,0-4.75.11-2.59.84-3.28,3.37-3.31,1.31,0,2.61,0,3.92,0,2.7,0,3.79,1,3.88,3.77.08,2.24,0,4.47,0,6.71v2.1c1.85-.44,3.49.49,5.38-.1,1.68-.52,3.66-.11,5.57-.11.15-1.19-.31-1.63-1.15-1.68-1.12,0-2.24,0-3.36,0-2.36-.06-3-.66-3.11-2.93-.05-1.58-.09-3.17,0-4.75.13-2.18,1-2.94,3.14-3,1.49,0,3,0,4.47,0,1.1,0,2.13.11,2.66,1.14S246.73,78.38,245.62,79.71Zm-17.45-.2H225a.9.9,0,0,0-1,1c0,.63.18,1.09.88,1.12s1.46,0,2.19,0C228.41,81.6,228.41,81.59,228.17,79.51Z"/><path class="cls-1" d="M169.2,110.56c1.25-2.78,2.79-6.46,1.64-10.86a56.28,56.28,0,0,1,7.79,0,2.26,2.26,0,0,1,2.15,1.54c.28,1.17.43,2.44-.69,3.36-.43.36-.89.67-1.4,1.06,0,1.42,1.16,2.44,1.24,3.75,1.91.71,2.7-.6,3.57-1.65a90.91,90.91,0,0,1,6.37-7.35,9.45,9.45,0,0,1,.9-.71c1.32,1.44.62,3.09.71,4.58a14.62,14.62,0,0,1-.25,4.74c.78,1,1.77.7,2.86.5.25-2.52,1.71-4.72,1.47-7.3,0-.24.34-.5.08-.74s-1-.68-.66-1.33c.44-.87,1.31-.51,2-.52a10.26,10.26,0,0,1,3.2.15c.38.67,0,1-.3,1.32a4.24,4.24,0,0,0-1.09,2.79,19.19,19.19,0,0,1-.9,4.32,1.07,1.07,0,0,0,1.22,1.39,4.19,4.19,0,0,0,2.43-1.26c.53-.53,1-1.13,2.09-.69.22,1-.71,1.93-.43,2.87a9.89,9.89,0,0,1-4.6.55c-3.8-.32-7.62.19-11.41-.26a.66.66,0,0,1-.57-.51c0-.83,1.16-.59,1.22-1.55a7.38,7.38,0,0,0-3.12-.11c-.82.77.45,1.33-.36,2.12-1.79.08-3.8.3-5.81.24-1.68,0-2.48-.89-2.69-2.6a3.8,3.8,0,0,0-1-2.51c-1.61,1.75-1.66,2.3-.42,4.89A14.8,14.8,0,0,1,169.2,110.56Zm6.68-6.52c1.13,0,1.29-.91,1.52-1.67s-.16-1.05-.87-1.08c-1.17-.05-1.68.42-1.79,1.61C174.67,103.75,175.05,104.1,175.88,104Zm10.74,2.7c1.41.19,1.63-.33,1.36-1.37A2.27,2.27,0,0,0,186.62,106.74Z"/><path class="cls-1" d="M85.29,105.89a1,1,0,0,0-1.17,1,3.65,3.65,0,0,0,1.08,3.85c-2.24-.12-4.16,1.11-6.27-.29.73-1,1.87-1.5,1.78-2.94-.07-1.25.64-2.48.54-3.82-.08-1.09,1-2.32-.45-3.12a1.65,1.65,0,0,1,1.73-.93c1.77,0,3.55.09,5.31,0a3.18,3.18,0,0,1,3.29,2.09,2.4,2.4,0,0,1-1.19,3.09c-1.88,1.15-.23,2.51-.2,3.73s1.16,1.24,2.14,1.1a19.66,19.66,0,0,0,1.84-9.78,12.39,12.39,0,0,1,3.55-.19c.46,0,1,0,1.2.47s-.18.79-.4,1.19a12.15,12.15,0,0,0-1.54,8.19c0,.15.24.27.55.62,4.16-2.63,6.24-7.37,10.11-10.27a1.1,1.1,0,0,1,.88,1.24c-.11,2.31.35,4.66-.29,6.93-.23.82.23,1.15.57,1.69.52.83.18,1.41-.82,1.37a17.3,17.3,0,0,1-4.27-.43c-.29-1.17,1.17-.92,1.17-1.89a7,7,0,0,0-3.27,0c-.52.75.28,1.15.12,1.72a1.65,1.65,0,0,1-1.67.64c-2.68-.54-5.4,0-8.09-.21a3.84,3.84,0,0,0-1.1.15,3.68,3.68,0,0,1-4.65-3C85.6,107.28,86,106.46,85.29,105.89Zm-.56-2c2.24,0,2.53-.18,2.65-1.41,0-.46,0-1-.52-1.13a1.21,1.21,0,0,0-1.27.31C85,102.24,85.18,103.07,84.73,103.91Zm19.76,1.41c-.55.39-1.25.35-1.27,1.05,0,.28.26.42.56.42C104.72,106.8,104.78,106.26,104.49,105.32Z"/><path class="cls-1" d="M66.1,59.15c0,2.52,0,4.94,0,7.36a7.64,7.64,0,0,1-.12.91c-2.27,1.51-4.85.61-7.28.78-2,.14-2,0-3.71-.93,0-.32-.06-.68-.06-1,0-2.33,0-4.65,0-6.92a3.2,3.2,0,0,1,2.52-1.1C62.15,58,64,58.11,66.1,59.15Z"/><path class="cls-1" d="M143.92,58.22c1.12,0,2.24,0,3.35,0,1.29.08,1.69.43,1.73,1.68.06,2.22,0,4.45,0,6.68a1.43,1.43,0,0,1-1.53,1.61c-2.41,0-4.84.09-7.25,0-1.45-.07-1.92-.68-1.94-2.12,0-2-.05-4.09,0-6.13,0-1.28.43-1.64,1.7-1.7s2.6,0,3.9,0Z"/><path class="cls-1" d="M156,100.17a5.1,5.1,0,0,1-1,2.7c-1-.9-1.86-1.91-3.43-1.66a2,2,0,0,0-1.83,1.37c-.17.44-.33.92.12,1.27a.86.86,0,0,0,1.24-.16c.3-.33.46-.85,1.07-.54s.43.84.28,1.4c-.21.78,0,1.72-1,2.19-.86.24-.94-1.54-2-.87-.53.34-.37,1-.64,1.48a1.39,1.39,0,0,0,.06,1.8,1.84,1.84,0,0,0,2.32.21,16.88,16.88,0,0,0,2.26-1.61,1.1,1.1,0,0,1,1.5-.06c0,.09.12.18.11.24-.78,3.48-.78,3.47-4.38,3a12.39,12.39,0,0,0-2.51,0,13.1,13.1,0,0,1-1.89.32,20.27,20.27,0,0,1-2.9-.72c2.58-1.62,2-4.31,2.79-6.48.12-.33-.07-.79.08-1.1.54-1.16-.1-1.82-.94-2.34a1.16,1.16,0,0,1,1-.94C148.59,99.3,154.49,99.62,156,100.17Z"/><path class="cls-1" d="M67,110.26c2.17-1.14,2.12-3.2,2.36-4.89s2-3.53-.51-5c2-.91,6.58-1.08,10.49-.52a1.85,1.85,0,0,1-.71,2.5c-1-.18-1.8-1.31-3.15-1.13-1.86.24-2.12.44-1.75,2.67.94.37,1.22-1.16,2.29-.71a3.42,3.42,0,0,1-.7,3.51c-.92.34-1.12-.92-2.16-.79a5.21,5.21,0,0,0-.81,3.33c1.77,1,3,0,4.11-.94.5-.39.8-1.14,1.57-.76.6.3.39,1,.4,1.51a1.51,1.51,0,0,1-1.1,1.72,7.15,7.15,0,0,1-2.7.35c-2.23-.45-4.45,0-6.65-.34A6.55,6.55,0,0,1,67,110.26Z"/><path class="cls-1" d="M38.7,99.61c3.27,0,6.24,0,9.21,0a4.38,4.38,0,0,1,1.18.41c-.22,1-.15,2-1.23,2.85-.79-1.61-2.16-1.81-3.69-1.61a1.21,1.21,0,0,0-1.08.72c-.29.58-.78,1.21-.24,1.77s1.19.17,1.7-.29a.75.75,0,0,1,.84-.26c1.3,1.44-.23,2.36-.48,3.45-.49,0-.71.11-.83,0-.44-.28-.56-1-1.28-.91s-.94.87-1.13,1.43a2.51,2.51,0,0,0,.09,2.2,2.9,2.9,0,0,0,3.07-.52,17.83,17.83,0,0,1,1.82-1.26,1,1,0,0,1,1.06-.13c.52.24.49.75.44,1.21-.21,1.85-1.09,2.44-3,2.29s-3.53-.09-5.3-.15a10.61,10.61,0,0,1-3.34-.29c2-1.29,1.63-3.47,2.3-5.24S39.36,102.34,38.7,99.61Z"/><path class="cls-1" d="M167.93,100.39c0,.54.06.91.07,1.28,0,.68-.08,1.35-.78,1.64-.85.35-1.07-.4-1.46-.91-1.27-1.63-3.25-1.59-4.27.22a10.49,10.49,0,0,0-1.33,5.32c0,1.11.84,1.38,1.63,1.6,1,.27,1.55-.39,2-1.12a.55.55,0,0,0,0-.75c-.35-.37-1-.6-.54-1.3a1.46,1.46,0,0,1,1.48-.59c1.4.18,3-.57,4.3.76-.72.9-1.59,1.56-2.27,2.4-1.55,1.91-5.29,2.64-7.44,1.68a4.83,4.83,0,0,1-2-6.87c1.79-3.09,4.81-5.1,8.56-3.85C166.45,100.1,167.08,100.19,167.93,100.39Z"/><path class="cls-1" d="M52,110.67a8.85,8.85,0,0,1-3.59,0A13.09,13.09,0,0,0,51,104c.1-1.32.55-2.71-1.07-3.55C52.83,98.7,55,99.27,56.4,102L58,105.12c.57-1.7,1.7-3.22-.15-4.62,1.69-1.24,1.79-1.24,3.75,0a5,5,0,0,0-2.2,5c.11,1.51-.6,2.87-.88,4.3-.1.52-.36,1.09-1.09,1.07a1.44,1.44,0,0,1-1.29-.92c-.64-1.42-1.21-2.87-1.88-4.27-.42-.9-.71-1.94-1.93-2.49-.35,1.43-.17,2.9-.91,4.23C50.84,108.33,51.91,109.38,52,110.67Z"/><path class="cls-1" d="M35.76,100.33a5.23,5.23,0,0,1,.12,1.06c-.09.69.35,1.62-.55,2s-1.15-.64-1.56-1.19c-1.18-1.56-3.68-1-4.6,1a17.15,17.15,0,0,0-1,2.88,2.67,2.67,0,0,0,.72,3.05c1.18.93,2.05.19,2.95-.42-.53-3-.53-3,2.41-3,1,0,2.12-.34,2.68,1.18a5.65,5.65,0,0,0-2,2.09,3.48,3.48,0,0,1-1.76,1.26,8.45,8.45,0,0,1-4.92.48c-3.44-.51-4.85-4.94-2.61-8,1.45-2,5.43-4.31,8.29-2.81A6.61,6.61,0,0,0,35.76,100.33Z"/><path class="cls-1" d="M123.18,110.34c-1.35,1.18-2.51,1.17-3.77,0,1-.72,1.87-1.48,1.58-2.89-.11-.57.25-1,.48-1.57.86-1.92,1.08-3.84-.37-5.68,1.45-1.11,3-.59,4.4-.56.56,0,.9.55,1.15,1.1.64,1.43,1.33,2.83,2.16,4.58.73-1.85,1.77-3.36.16-5,.59-1,1.5-.83,2.31-.78s1.2.74.67,1.34a7.19,7.19,0,0,0-2,5.73c.1,1.1-.7,2.1-.59,3.26.05.53-.36.81-.89.84s-1,0-1.24-.45a12.17,12.17,0,0,1-.66-1.53,40.77,40.77,0,0,0-3.07-6.14,16.1,16.1,0,0,1-1.18,4.84C121.67,108.73,122.88,109.34,123.18,110.34Z"/><path class="cls-1" d="M141.79,101.34a2,2,0,0,0-1.58,2c-.09,1.4-.73,2.67-.77,4.06,0,.86-.54,1.69.36,2.51.53.48-.12,1.29-.57,1.18-1.57-.38-3.31.69-4.87-.71.88-1.29,2-2.46,1.84-4.33-.11-1.47,1.3-2.83.86-4.48-1.49.08-2.08,1.56-3.3,2-.78-2.86-.11-3.9,2.43-4,2.13,0,4.27,0,6.41,0,.79,0,1.59.12,1.8,1a3.28,3.28,0,0,1-.2,2.67c-.28.43-.81.28-1.25,0C142.18,102.89,142.47,101.9,141.79,101.34Z"/><path class="cls-1" d="M21.29,102.93c.76,2.39-.1,4.66-.53,6.95-.09.52-.33.86-.87.91a1.25,1.25,0,0,1-1.26-.39,11.82,11.82,0,0,1-.88-1.74c-.8-1.85-1.58-3.72-2.35-5.55-.75,0-.76.44-.81.91a4,4,0,0,1-.27,1.61c-1,1.67-1.25,3.25.38,4.78a6,6,0,0,1-3.8.29c.21-1.14,1.34-1.5,1.52-2.64.31-2,1.43-3.85,1.06-6-.12-.71-.79-1-.94-1.64,2.67-1.74,4.91-1.09,6.11,1.65A7.41,7.41,0,0,0,20.33,105c.8-.46,0-1.72,1-2Z"/><path class="cls-1" d="M113.26,110.57c1-3.47,2.57-6.73,1.83-10.52a5.94,5.94,0,0,1,5.47.33c-2.11,1.07-1.67,3.08-2.24,4.66-.34.93-.21,2-.61,3s.21,1.71,1.37,2.35A10.07,10.07,0,0,1,113.26,110.57Z"/><path class="cls-1" d="M66.77,110.68c-2.13.31-3.86.58-5.87-.18,1.93-2.2,1.64-4.9,2.34-7.33a4,4,0,0,0-.09-1.64c-.26-1.57-.11-1.81,1.29-1.94a6.18,6.18,0,0,1,3.87.8,3.67,3.67,0,0,0-1.72,3.4,8.24,8.24,0,0,1-.72,2.93A3.28,3.28,0,0,0,66.77,110.68Z"/><path class="cls-1" d="M10.25,110.65a15.24,15.24,0,0,1-5.91-.12c1.9-2.12,1.58-4.74,2.31-7.06a4.3,4.3,0,0,0,0-1.92c-.25-1.58-.12-1.93,1.23-1.92s2.61-.46,3.88.74a4.06,4.06,0,0,0-1.71,3.4A10.58,10.58,0,0,1,9.39,107C8.91,108.35,8.83,109.48,10.25,110.65Z"/><path class="cls-1" d="M21.32,103c.23-1.07-.5-1.83-1.09-2.69a3,3,0,0,1,3.93.14c-1.48.47-1.28,2.35-2.87,2.52Z"/></svg>