<svg id="Capa_1" data-name="Capa 1" xmlns="http://www.w3.org/2000/svg" viewBox="0 0 308.63 198.8"><defs><style>.cls-1{fill:#fff;}</style></defs><path class="cls-1" d="M94.45,132.17c0-8.57.11-17.15,0-25.72-.11-5.8,2.45-9.91,7.28-12.75C109,89.43,116.26,85.23,123.57,81s14.92-8.43,22.26-12.85c5.6-3.38,10.85-3.31,16.49,0q21.42,12.68,43.09,24.94c5.86,3.31,8.41,8.16,8.4,14.7,0,16.33,0,32.67,0,49,0,6.33-2.41,11.12-8.2,14.38-14.58,8.21-29,16.64-43.45,25.12-5.6,3.28-10.87,3.31-16.49,0q-21.75-12.9-43.72-25.45c-5.13-2.94-7.6-7-7.5-13,.14-8.57,0-17.15,0-25.72Zm116.7.42h0q0-13.28,0-26.54a11.25,11.25,0,0,0-6-10.36q-22.65-13-45.23-26.11c-4.09-2.38-7.82-2.27-11.89.1C133.06,78.4,118.07,87,103.1,95.58c-4,2.28-6.12,5.5-6.1,10.26q.12,26.53,0,53.08a9.76,9.76,0,0,0,5,9.14c15.27,8.91,30.59,17.75,45.86,26.66,4.2,2.45,8.28,2.25,12.39-.08,1.89-1.08,3.73-2.24,5.62-3.33,13-7.49,25.88-15,38.88-22.42,4.52-2.57,6.44-6.29,6.38-11.39C211.08,149.2,211.15,140.9,211.15,132.59Z"/><path class="cls-1" d="M97.9,15.28a33.81,33.81,0,0,1,7.25,10.5,8.39,8.39,0,0,1-5.33.41c-4.23-3.25-4.72-10-11.25-10.76-1.18,3.59,0,7.06-.88,10.34a6,6,0,0,1-5.34.07V.53c5.74,0,11.37-.75,17,.63a5.66,5.66,0,0,1,4.19,5c.38,2.6.19,5.22-2.21,7C100.32,13.92,99.24,14.46,97.9,15.28Zm-9.52-4.14c3.25.66,6.34.81,8.86-1.14A3.14,3.14,0,0,0,97,5.84a11.66,11.66,0,0,0-8.74-.61A14.69,14.69,0,0,0,88.38,11.14Z"/><path class="cls-1" d="M188.44,1.1c1.78-1,3.23-.72,5.22-.33l10.11,15.91V1.3c2.44-.79,2.44-.79,4.93-.36V25.67c-1.5,1.18-3.22.74-5.16.47l-9.44-15-.63.15V25.5c-1.72,1.21-3.13,1-5,.31C188.14,17.59,188.22,9.27,188.44,1.1Z"/><path class="cls-1" d="M25.09,15.56c1.35-5,.36-9.72,1.23-14.29C27.6.12,28.88.26,30.82,1c.26,8.12.15,16.44.05,24.77a10.08,10.08,0,0,1-1.82.61c-.93.08-1.88,0-3,0-3.81-4.78-6.51-10.28-10.31-15.95-.79,5.52.15,10.47-.6,15.21a3.65,3.65,0,0,1-3.94.35c-1-3.14-1.11-21.17-.12-25,1.35-.91,2.8-.6,4.47-.24,2,2.07,3.26,4.8,4.84,7.32Z"/><path class="cls-1" d="M236.41.5C241.9.43,246.89,0,251.85.8c3.26.53,5,2.37,5.38,5.3.39,3.11,0,6-3,7.84-.67.41-1.62.35-2.18,1.37a44.56,44.56,0,0,1,7.12,10.23c-1.82,1.45-3.71.68-5.5.75-4.08-3.21-4.56-10.27-11.4-10.71-1.13,3.53.15,7-.83,10.18-1.56.88-3,.78-4.94,0C236.2,17.58,236.3,9.27,236.41.5Zm14.12,5.17a12.31,12.31,0,0,0-8.48-.48c-.35,2.13-.64,4.09.3,6.09,3.49.47,6.78.7,9.28-1.66A3.36,3.36,0,0,0,250.53,5.67Z"/><path class="cls-1" d="M261.15,14.3c0-8.74,4.48-13.92,11.39-14.15,10.27-.35,16,7,13.47,17.24-1.14,4.64-3.83,7.84-8.53,8.92-4.91,1.13-9.49.48-13.15-3.44A13,13,0,0,1,261.15,14.3Zm19.56-1.52a18.75,18.75,0,0,0-.22-2.44A6.92,6.92,0,0,0,274,4.64a6.76,6.76,0,0,0-6.87,5.7,14,14,0,0,0,.08,6.46c1.29,4.91,6.58,6.93,10.53,4C280.32,18.92,280.68,16.1,280.71,12.78Z"/><path class="cls-1" d="M184.4,13.47c.27,10.67-8.34,15.44-17.72,12.45-5.32-1.7-7.83-7.57-7.58-13.17.4-9,6.41-13.77,15.31-12.54C180.5,1.05,184.4,6.23,184.4,13.47Zm-5.67-.26c0-.4,0-1.21-.12-2-.4-3.69-2.76-6.19-6.11-6.52s-6.06,1.65-7.23,5.22a11.44,11.44,0,0,0-.39,3.62c0,5.16,3,8.86,7.12,8.75S178.61,18.78,178.73,13.21Z"/><path class="cls-1" d="M35.66,18.32a4.72,4.72,0,0,1,4-.83C44,23.6,48.23,24,50.73,18.62c-.56-2.08-2.41-2.34-4.07-2.9-2.19-.74-4.51-1-6.59-2.11a6.81,6.81,0,0,1-3.94-7c.2-3.14,2-5,4.85-5.85a14,14,0,0,1,10.34.43,6.51,6.51,0,0,1,4,6c-1.5,1.21-3,.65-4.11.75-1.83-.52-1.82-2.42-3.27-3-2.45-.59-5-1.16-6.65,1.79.83,2.46,3,2.69,4.92,3.13A23,23,0,0,1,52.33,12a7,7,0,0,1,3.86,6.68c-.08,3.16-1.38,5.63-4.23,6.9a14,14,0,0,1-12.26-.13C36.9,24.09,35.14,21.69,35.66,18.32Z"/><path class="cls-1" d="M108.36,1c2.21-.72,3.64-.72,5.33.1.81,6.29-.23,12.69.6,18.9,2.48,2.41,5,3.07,8.39.75,2.45-6,.1-13,1.34-19.55,1.35-1.23,2.8-.64,3.89-.6A2.56,2.56,0,0,1,129,3.05c0,5,.05,10.07-.09,15.11-.15,5.42-2.91,8.18-8.36,8.55a19.1,19.1,0,0,1-5.69-.34c-3.41-.8-5.7-2.87-6.15-6.3C107.85,13.74,108.39,7.38,108.36,1Z"/><path class="cls-1" d="M155.83,7.13a6.07,6.07,0,0,1-4.53,1.39c-1.16-.33-1.47-1.34-2-2.06-2.55-3.25-8-2-9.34,1.77A15.09,15.09,0,0,0,140,18.62c.81,2.25,2.79,3.2,4.88,3.62,3.51-.16,5-2.66,6.2-5.21a7.17,7.17,0,0,1,4.53,1.64c.06,3.15-1.86,5.32-4.37,6.64-6.56,3.45-15.23,1-17.26-7.14-1.12-4.47-1-8.94,1.55-13C138.4.49,143-.41,148,.25,151.92.78,154.54,3.11,155.83,7.13Z"/><path class="cls-1" d="M58.94.53C65.69.11,72.28.44,78.47.53a2.63,2.63,0,0,1,.93,2.32A7.9,7.9,0,0,1,79,4.27c-2.32,1-4.76-.19-7.33,1.08-.23,6.69.25,13.58-.31,20.22-1.73,1.07-3.15,1-5.19.19V5.64c-2.56-1.54-4.86-.5-7-1.21C58.15,3.47,58.38,2.3,58.94.53Z"/><path class="cls-1" d="M232.7.63c.68,1.49.78,2.51.06,3.57-2.09,1.16-4.55-.1-7.2,1.11V25.36c-2,1.39-3.51,1.18-5.5.55V5.53c-2.46-1.56-5-.16-7.12-1.29A3.39,3.39,0,0,1,213.3.63Z"/><path class="cls-1" d="M308.05,21.84a4.6,4.6,0,0,1,.08,4.32c-5.56.53-11.31.14-17.36.2V1.51c1.42-1.34,2.92-.88,4.8-.22V21C299.82,22.25,304,21,308.05,21.84Z"/><path class="cls-1" d="M0,.66C2-.14,3.75.28,5.41.28c1,3.08,1.22,21.19.3,26.09A9.44,9.44,0,0,1,0,26.31Z"/><path class="cls-1" d="M188.39,47.3c-1,2,.11,4.09-1.08,5.66-.94.31-1.51,0-1.72-.75-.59-2-.23-13,.49-15.43a7.93,7.93,0,0,1,5.51.13c1.77,2.16,1.42,4.75.92,7a13.63,13.63,0,0,0,0,7.17,1.69,1.69,0,0,1-.56,2C188.89,52.41,190.83,48.63,188.39,47.3Z"/><path class="cls-1" d="M213.5,37.13a5.49,5.49,0,0,1,6,.38c.5,5,.26,10.18.25,15.46-1.81-.41-1.81-.41-3.32-5.55-2.55,1.22.14,4.69-2.5,5.7C212.34,51.1,212.05,41.83,213.5,37.13Z"/><path class="cls-1" d="M103.08,41.72c.51-1.69-.53-3.62,1-5.07,2,1.7,2.12,2.3,1.73,13,0,1.34.48,3.09-1.85,3.57-1.29-2.45-.74-5.43-3-8.32v7.9c-1.52.47-2.22,0-2.23-.94,0-4.76,0-9.52.05-14.28,0-.35.25-.8,1.47-.91C102.45,37.08,101.28,40.24,103.08,41.72Z"/><path class="cls-1" d="M150.13,53.48c-2.1-2.57-1.15-5.83-3.1-8.07-1,2.54.63,5.56-1.31,8.1-1.84-2.28-2.25-11.29-1-16.81,3.52-.06,2.09,3.88,4,5,.46-1.62-.31-3.45.78-5,1.52,1.53,1.63,1.53,1.44,8.16C150.92,47.59,151.8,50.45,150.13,53.48Z"/><path class="cls-1" d="M121.09,45.29a20.69,20.69,0,0,1,.08,7.4,6.36,6.36,0,0,1-5.39.33c-2-3.18-2.21-9.22-.69-15.65,1.74-1.46,3.62-1.11,5.46-.23.94,1.34,1.21,2.55.33,3.79-2,1-1.61-2-3.66-1.69a30.51,30.51,0,0,0,.23,11.93c2.76-2,.55-3.76.62-5.35C118.66,44.38,119.64,44.56,121.09,45.29Z"/><path class="cls-1" d="M171.68,36.85c2.31-.55,4-.92,5.31.38-.26,1.83-1.88,1.24-2.66,2.17-.61,1-.21,2.23-.23,3,.49,1.57,2.33.82,2.52,2.2-.29,1.21-1.77.61-2.23,1.53-.67,1.29-.21,2.65-.3,3.67.51,1.65,2.58.71,2.88,2.51-1,1.72-2.73.86-4.67,1C170.71,47.87,171.62,42.44,171.68,36.85Z"/><path class="cls-1" d="M135.75,52.26c-1.39,1.86-3.22,1-5.25.86V36.79c1.9-.42,3.54-.89,5,.32.19,2.08-1.95,1.28-2.5,2.5a5.44,5.44,0,0,0-.14,2.75c.3,1.46,1.79,1,2.2,2.18.15,1.26-1.5.71-2.11,2a6.18,6.18,0,0,0-.05,3.29C133.34,51.43,135.44,50.51,135.75,52.26Z"/><path class="cls-1" d="M87.23,36.72c1.24-.51,1.88-.5,2.76.21v16a2,2,0,0,1-2.76.08Z"/><path class="cls-1" d="M162.63,52.84a2.59,2.59,0,0,1-2.78.36c-.35-5.41-.14-11-.09-16.32a2.28,2.28,0,0,1,2.79,0C163,42.1,162.46,47.58,162.63,52.84Z"/><path class="cls-1" d="M201.63,36.49l2.2-.11V52.91c-.5.74-1.17.61-2.2.35Z"/><path class="cls-1" d="M175.69,94.82c.24,3.28-.56,6.12,0,9.37,2.45,2.23,5.14,4.71,8.51,7.8,1.72.53,4.46-1,7.33,0,1.52,1.59,2.12,3.73,2.69,6.21-4.61,1.23-9.14,0-13.78.89l-13.69,17.25a27.47,27.47,0,0,1-7.84,0c-.89-.83-1.82-1.82-2.86-2.67a8.25,8.25,0,0,0-11.63,1.3c-3,4.13-2.22,9.44,1.85,12.21a8.43,8.43,0,0,0,11.51-2.36,29.21,29.21,0,0,0,1.6-3.15c1.79-1,3.6-.55,5.34-.67s3.27.24,5.08-.39c2.56-2.38,4.43-5.59,6.79-8.39s4.3-5.58,6.38-8.3h9.1c-.33,1.77-2,2.13-2.64,3.71v10.26l6.3,5.3a40.29,40.29,0,0,1-4,9.57c-2.91.94-6-.05-9.06.68-2.33,2.22-4.48,4.86-7.31,7v8.6a34.93,34.93,0,0,1-9.53,4.06l-5.11-6H149.13L144,173.15a35.48,35.48,0,0,1-9.46-4.1v-7.64c-2.59-2.88-5.85-4.79-7.74-7.8-3-.88-6,.07-8.89-.76a51.15,51.15,0,0,1-3.49-8.34c4.37-.93,8.6,0,12.94-.62,4.92-5.27,8.79-11.56,13.65-17.11a23.16,23.16,0,0,1,8.18-.17c1,.89,1.94,1.89,3,2.68a8.25,8.25,0,0,0,10-13.14c-3.67-2.94-8.1-2.51-11.23,1.19a40.4,40.4,0,0,0-2.64,4H139c-2.93,2.83-5,5.9-7.25,8.76s-4.37,5.54-6.42,8.15a7,7,0,0,1-4.93,0c-1.61-3.6-.11-7.64-1-11.8L114,121.84c.44-3.65,2.47-6.56,3.6-9.51,3-1.45,5.81-.06,8.61-1a87.91,87.91,0,0,1,7.79-7.61c.71-2.79,0-5.65.2-8.7,2.92-1.83,6.26-2.86,9.36-4.24,2.8,1.65,3.79,4.58,6.17,6.57H160c2.23-1.68,3.53-4.5,5.93-6.74Z"/><path class="cls-1" d="M206.75,108.62c-1.54.12-1.72-.85-1.83-1.83-.4-3.61-2.65-5.84-5.6-7.55-12.83-7.42-25.7-14.79-38.49-22.3-4.57-2.69-8.85-2.75-13.44,0Q128,88.26,108.53,99.37a11.44,11.44,0,0,0-5.57,7.21c-.28,1-.2,2.3-1.83,2.12-1-4.24,1.15-8.45,5.81-11.18Q116.8,91.73,126.69,86c6.48-3.75,13-7.35,19.45-11.22,5.15-3.12,10-3.34,15.32-.2,12.88,7.62,25.9,15,38.87,22.46,3,1.75,5.54,4,6.56,7.46C207.29,105.92,207.84,107.35,206.75,108.62Z"/><path class="cls-1" d="M100.61,156.07c1.2-.59,1.9-.31,2.07.7.81,5,4.25,7.57,8.31,9.87,12.19,6.9,24.35,13.84,36.38,21,4.64,2.75,8.73,2.65,13.33-.08,12-7.16,24.19-14.1,36.37-21,4-2.29,7.71-4.68,8.05-9.91,0-.56.58-.88,1.21-.83,1.4,2.58.52,6.22-2.2,8.78a31.71,31.71,0,0,1-6,4.19c-12.25,7.05-24.55,14-36.75,21.17-5,2.9-9.64,3-14.6.06-12.8-7.46-25.67-14.8-38.52-22.17C103.64,165.2,100.5,161.67,100.61,156.07Z"/></svg>