<svg id="Capa_1" data-name="Capa 1" xmlns="http://www.w3.org/2000/svg" viewBox="0 0 180.92 177.59"><defs><style>.cls-1{fill:#fff;}.cls-2{fill:#898788;}</style></defs><path class="cls-1" d="M41.85,82c-3.58-.43-6.7-2.2-10-3.32a2.57,2.57,0,0,0-1.93-1.12c-2.25-1.26-5.1-2.24-6.2-4.41s.71-4.74,1.25-7.13c.92-4,2-8,2.93-12a1.66,1.66,0,0,1,1.91-1.54c6.35-.16,6.35-.2,8,5.81,1,3.82,2.21,7.62,3.05,11.49a3.76,3.76,0,0,0,3,3.27,18.48,18.48,0,0,0,4.28,1,2.4,2.4,0,0,0,1.87.23c3.46.06,6-1.29,7.25-4.68a.8.8,0,0,0,.19-.9,10,10,0,0,0,.49-4.36c0-17,0-33.92.06-50.89a2.5,2.5,0,0,0-1.68-2.67c-2.42-1.08-4.79-2.3-7.16-3.49-1.1-.55-1.9-5.45-1-6.13A2.27,2.27,0,0,1,49.37,1Q68.22,1,87.06,1c1.18,0,1.4.4,1.49,1.51.23,2.89-.32,5.29-2.83,7.13C84,10.87,83.44,12.68,83.47,15c.16,10.47.07,20.94.07,31.42A104.39,104.39,0,0,1,83,61.18a.83.83,0,0,0-.28.92l-.06.85a2.86,2.86,0,0,0-.42.76A24.2,24.2,0,0,1,76,75.36c-1.38,1.44-3.19,2.29-4.57,3.71-6.84,3.12-14.09,4-21.53,3.84Z"/><path class="cls-1" d="M115.07,81.5l-6.52-2.87a1.08,1.08,0,0,0-1-.66l-1.22-.59A40.84,40.84,0,0,1,94.86,64c-.07-.13-.38-.13-.59-.19-.27-.81.26-1.92-.9-2.39h0c.4-.79-.19-1.39-.4-2.06C88.2,44,89.29,29.25,98.08,15.65c8.57-13.27,21.29-17.47,36.06-15a38.59,38.59,0,0,1,17.43,7.16,2.81,2.81,0,0,1,1.24,3.52c-1.66,5.8-3.12,11.66-4.59,17.51-.32,1.23-.76,1.89-2.21,1.72-2-.23-4.45.76-5.79-.41s-1.23-3.5-1.77-5.33c-1.21-4.16-2.47-8.32-3.61-12.51a3.1,3.1,0,0,0-2.3-2.36c-6.4-2-11.43.43-14.41,7.11a35.75,35.75,0,0,0-2.85,13.54c-.35,10.76.69,21.35,4.63,31.48a19.71,19.71,0,0,0,5.83,8.46c5.62,4.53,11.56,3.47,17.5.81,1.8-.81,3.45-1.94,5.39-3,.55,2.51,1.4,4.89,1.53,7.44-.4.21-.92.24-1.06.8-10.51,6.38-21.75,7.8-33.63,5Z"/><path class="cls-1" d="M40.52,118.52c-.37-1.06-2.45-1.21-1.75-2.69s2.23-.38,3.37-.64a8.62,8.62,0,0,1,1.53-.09l2.88.08c1.62,0,3.75-.71,3,2.43-.15.63.76,1.52,1.19,2.29.27.48.6,1,1.17.38.41-.43,1.12-.77.5-1.62s-2.36-1.92-1.51-3.11c.7-1,2.45-.29,3.74-.36s2.66,0,4,0c.81,0,1.68-.18,1.55,1.16-.08,1,.63.56,1.05.42,1.11-.38,2.23-.77,3.31-1.24.56-.24,1.25-.59,1.68-.31,1.91,1.25,3.36,0,5-.61a6.9,6.9,0,0,1,8,2.83c2.25,3.49,2.12,9.68-.27,13-1.86,2.63-5.07,3.68-9.49,3,0,1.41,0,2.81,0,4.19s1,1.49,1.79,2,1.45.77,1.23,1.81-1.19.65-1.81.67c-2.44.06-4.88-.07-7.32.06-1.5.07-2-.28-2-1.9.12-6,0-11.95.06-17.92,0-1.26.18-2.52-1.32-3.16-.75-.32-.14-1.26-.69-1.73-2.69.75-4.43,2.77-6.29,4.66-.7.71-.18,1.19.25,1.68,2.19,2.51,3.34,6,6.67,7.46.69.31.53,1,.44,1.57s-.67.44-1.06.44c-3,0-6.06,0-9.09,0-1.1,0-1.69-.43-1.18-1.38.93-1.75-.68-2.53-1.22-3.69-.33-.72-.84-.2-1.23.13s-.84.74-.28,1.43c.74.93,2.39,1.77,1.58,3.07-.65,1-2.3.31-3.49.4a35.41,35.41,0,0,1-4,0c-.52,0-1.34.38-1.51-.44a1.53,1.53,0,0,1,.89-1.81,19.19,19.19,0,0,0,5.37-4.2c.43-.47,1.16-.91.56-1.64C44,123,42.85,120.31,40.52,118.52Zm28.91,5.59c0,1.69,0,3.39,0,5.08,0,.52-.32,1.27.55,1.45a1.38,1.38,0,0,0,1.76-1,26.36,26.36,0,0,0-.13-10.94c-.16-.84-.78-1-1.51-.87-.89.13-.67.84-.68,1.38C69.41,120.86,69.43,122.48,69.43,124.11Z"/><path class="cls-1" d="M38,110.66a15.42,15.42,0,0,0-.12,3.46c-.06.88.54,2-.5,2.57s-1.19-1.1-2.1-1.07c-.72-3.73-2.2-5.3-4.93-5.24l-1,0c-1.16.13-.84,1.06-.86,1.71,0,1.47,0,2.94,0,4.41,0,.8-.54,1.79.56,2.18s1.79-.26,2.3-1.11a3.65,3.65,0,0,0,.25-1,2.28,2.28,0,0,1,2.59-.89l.15,6.67c-.44.66.49,1.79-.76,2.15s-1.62-.88-2.37-1.42c-.24-1.23-1.14-1.33-2.14-1.21s-.57.81-.57,1.34a42.27,42.27,0,0,0,0,4.64c.09.94-.82,2.53.65,2.75s3.66.87,4.58-1.62a31.11,31.11,0,0,1,2.28-4,1.46,1.46,0,0,1,1.59-.88c1.09.14.67,1,.7,1.54.05,1.18,0,2.36,0,3.54,0,3.85,0,4-3.73,4.15-5.09.18-10.19.05-15.29.07-1.85,0-1.26-1.58-.85-1.91,2.58-2,1.63-4.82,1.74-7.36a15.73,15.73,0,0,0-.23-4.84c.44-2.33.1-4.67.2-7,0-.84-.58-1.3-1.11-1.8a2.16,2.16,0,0,1-.8-2.15c.26-1.07,1.26-.34,1.85-.67l7.89,0h4.11a24.6,24.6,0,0,0,2.84.11C37.21,107.51,38.49,108.18,38,110.66Z"/><path class="cls-1" d="M109.09,114.29c5.36,0,8.52,2.48,9.12,7,.18,1.4-.09,2.14-1.56,2.57a60.88,60.88,0,0,1-7.73,1.88c-1.2.18-1.26.68-.94,1.63,1,3,4.33,4,8,2.23,1.35-.67,1.9-.5,2.08,1a1,1,0,0,1-.58,1c-5.35,3-11.25,3-15.34-.6a10,10,0,0,1-2.46-11.14C101.1,116.3,104.45,114.31,109.09,114.29ZM107,121c.33.82-.48,2.08.78,2.49,1.63.53,3-.8,2.84-2.62-.15-1.47.13-3.75-1.81-3.69C107.07,117.2,107.34,119.48,107,121Z"/><path class="cls-1" d="M127.4,114.22c2.45-.17,4.76.63,7.14,1l1.36.86c-.33,2.06.32,4.76-3.26,5.09l2.73,1.62c3.43,5.18.22,10.56-6.6,11a15.33,15.33,0,0,1-5.89-.75c-3.59-1.2-3.61-1.18-2.72-4.85.14-.59-.17-1.57,1.09-1.5.92.06,1.68,0,2.09,1.14.8,2.14,2.08,3.72,4.74,3.31,1.25-.2,2.65-.28,2.92-1.84.31-1.75-1.24-2-2.38-2.33-1.33-.41-2.76-.51-4.08-.94-2.33-.78-4-2.21-4.09-4.9a6,6,0,0,1,3.78-5.94A28.26,28.26,0,0,1,127.4,114.22Zm5.65,6.9c-.8-1.11-1.34-1.85-1.86-2.62a3.52,3.52,0,0,0-4.61-1.19,1.73,1.73,0,0,0-1.09,1.52c0,.77.59,1.14,1.28,1.26C128.77,120.44,130.78,120.75,133.05,121.12Z"/><path class="cls-1" d="M144.68,114.63a.83.83,0,0,0,1-.27l2.6-.15c2.26,0,4.3,1.08,6.49,1.45.63,1.51-.21,2.86-.54,4.25-.24,1-1.24.43-1.88.63-.8-.22-1.12-.91-1.47-1.54-1.12-2-2.48-2.56-4.61-1.85-.81.27-1.54.65-1.58,1.6s.87,1.29,1.64,1.45c2,.43,4,.79,6,1.17,4.36,1.18,4.78,8.11.72,10.76-3.48,2.27-10.77,2.28-13.91-.33-1.26-1.05.1-2.56.2-3.86,0-.48-.16-1.31.81-1.24.77,0,1.67-.29,2.11.73.21.47.49.91.73,1.36a4.1,4.1,0,0,0,5.5,2.11c.85-.31,1.59-.7,1.67-1.81s-.73-1.57-1.56-1.83c-1.19-.37-2.42-.59-3.64-.85a7.46,7.46,0,0,1-5-3.27c-.88-2.33-.26-4.42,1-6.42C142.12,116,143.1,114.77,144.68,114.63Z"/><path class="cls-1" d="M90.47,117.69a4,4,0,0,1,4.16-3.36c2.51,0,3.54,1.2,3.09,3.64-.24,1.29-.56,2.58-.79,3.88-.12.66-.1,1.31-1.08,1.32s-1.52-.12-1.8-1.15-.87-2.27-1.33-3.46c-1.09.63-.79,1.52-.81,2.27,0,2,0,4,0,6s-.24,3.86,2.3,4.5c.69.17.72.88.63,1.48-.12.79-.77.55-1.23.55-3.4,0-6.79,0-10.18,0-1.68,0-1.53-1.26-.89-1.78,1.5-1.23,1.15-2.74,1.17-4.24,0-1.84,0-3.68,0-5.52,0-1,0-1.91-1-2.65s-.79-1.66.35-2.23c.66-.33,1.4-.53,2-.92,1.93-1.2,3.55-1.21,4.73,1C89.87,117.26,90.15,117.41,90.47,117.69Z"/><path class="cls-1" d="M20.12,166.07c-.78-.15-1.35-.45-1.22-1.43s-.27-1.25-1.25-1.25-1.21.47-1.32,1.31c-.3,2.4-.59,4.82-1,7.2-.21,1.12.63,1.28,1.47,2H11.53c2.37-.74,2.19-2.45,2.39-4s.42-3.06.57-4.59c.07-.62.85-1.51-.25-1.81a1.51,1.51,0,0,0-2.09,1.07,7.1,7.1,0,0,1-.66,1.34c-.78-2.11-.07-3,1.95-2.91.74,0,1.47,0,2.21,0,3.88,0,3.88,0,4.46,3.1Z"/><path class="cls-1" d="M100,174.05c1.78-1.8,2.76-8.9,1.62-11h6.17a.91.91,0,0,1-1,.32c-2-.36-2.68.41-2.92,2.51s.18,2.68,2.16,2.38c.44-.07,1.11-.36,1.19.48,0,.3.14,1-.61.49-.17-.12-.33-.47-.42-.44-.92.28-2.47-1.09-2.72,1-.16,1.26-1,2.68,0,3.72s3.75-.26,4.81-1.72c.37,2,.27,2.15-1.71,2.25H100Z"/><path class="cls-1" d="M28.66,174.09c-2.2-1.17-1.85-3.16-1.34-4.94.45-1.57,1.25-3.16,3.41-3.05a15.67,15.67,0,0,1,2.63.23c.92.21,1.22.58,1.06,1.51-.24,1.38-.33,2.78-.58,4.15a1.53,1.53,0,0,0,.93,2c-2.75.34-3,.08-2.65-2.22a26.44,26.44,0,0,0,.41-3.06c0-.7.77-1.71-.44-2.07a2.15,2.15,0,0,0-2.75,1.25,6.57,6.57,0,0,0-.49,4.71C29,173.05,29.25,173.56,28.66,174.09Z"/><path class="cls-1" d="M90.83,166.1c-1.21,1.33-2.54,2.46-1.67,3.78.39.6,2.2.1,3-.67,1.17-1.17.2-2.14-1-3.08,1.69,0,2.75.53,2.94,2s-.84,2.08-2.08,2.42a5.73,5.73,0,0,0-1.28.34c-.6.35-1.85-.58-1.83.83a1.88,1.88,0,0,0,1.79,1.9,3.53,3.53,0,0,1,.72.31c-2.16.34-3.74-.14-4.27-2.26C86.52,169.25,87.84,167.14,90.83,166.1Z"/><path class="cls-1" d="M163.14,174c-2.37.26-2.63,0-2.34-2.23s.67-4.48,1-6.72c.11-.84.51-1.82-1.59-2.12l3.49-.89c.07,2.22-.6,4.24-.64,6.29C163,170.19,161.62,172.13,163.14,174Z"/><path class="cls-1" d="M131.43,166.51c1.87-.68,3.58-.16,3.86,1.27.34,1.79-.81,2.51-2.34,2.85a1.59,1.59,0,0,0-.63.17c-.66.51-2-.54-2.16.77s1,2,2.43,2.2c-2.56.42-3.89-.32-4.23-2.2a4.23,4.23,0,0,1,3.14-5.13c-.51,1.15-1.75,2.07-1.26,3.59,2.92-.31,3.69-.74,3.59-2C133.71,166.5,132.54,166.53,131.43,166.51Z"/><path class="cls-1" d="M20.11,166.09c1.12.67,2.31.19,3.44.08.78-.07,1.67-.6,2.22.12s-.06,1.38-.49,2c-.75-.23-.1-1.62-1.18-1.46s-1.17,1-1.31,1.81-.24,1.45-.35,2.17c-.2,1.21-.4,2.43,1.76,3.16H19.5a7.51,7.51,0,0,0,.62-7.92Z"/><path class="cls-1" d="M79.9,168.4c-.94-.23-.53-1.82-1.68-1.43-.86.29-.8,1.26-.93,2s-.26,1.45-.34,2.17c-.11,1.06-.57,2.28,1,2.79H74.21a8.87,8.87,0,0,0,1.12-6.78c0-.17-.38-.21-.17-.51.34-.46,4.94-.92,5.17-.44C80.74,167.06,80.13,167.71,79.9,168.4Z"/><path class="cls-1" d="M58.06,177.42c-3.23.28-3.12.3-2.83-2.47.28-2.62,1.41-5.17.55-7.9-.23-.75.77-.71,1.24-.84,1-.27,1.2.74,1.08,1.17-.61,2.25-.52,4.6-1,6.86C56.87,175.33,56.39,176.52,58.06,177.42Z"/><path class="cls-1" d="M120.71,174.41c-.57,1.72-.57,1.72.4,3-2.84.35-2.73.36-2.49-2.37s1.5-5.3.53-8.11c-.22-.61.88-.68,1.34-.75.86-.11,1.1.62,1,1.32a31.62,31.62,0,0,0-.7,5.65C120.35,173.55,120.67,174,120.71,174.41Z"/><path class="cls-1" d="M84.27,163.74c-.25,1.94.94,2,2.28,2.14-2.27-.32-2.53,1.06-2.53,2.58s-.88,3.11-.17,4.76c.41,1-.38,1-1,.7-1.06-.47-1.13-1.45-1-2.44.17-1.38.39-2.75.6-4.12.11-.74.53-1.66-1.15-1.38C82.89,165.84,83.53,164.88,84.27,163.74Z"/><path class="cls-1" d="M148.91,167.24c-.22,1.74-.45,3.48-.66,5.21a1.28,1.28,0,0,0,.36,1.21.85.85,0,0,0,.19.1c-.53-.29-.52.56-1,.45-.79-.17-1.26-.41-1.29-1.38-.06-2,1.21-3.87.15-5.94-.24-.46,1.12-.71,1.77-.76C149.24,166.06,148.92,166.78,148.91,167.24Z"/><path class="cls-1" d="M37,166.68c2.61-.7,2.94-.27,2.5,2.25-.28,1.61-1,3.33.17,5-1.94.52-2.79.26-2.37-2.14C37.54,170.18,38.71,168.35,37,166.68Z"/><path class="cls-1" d="M41.2,166.37c2.93-.4,3.51.06,3.36,2.29-.07,1-.3,2-.41,3.06-.09.8-.39,1.7,1.13,2.21-2.22.49-3.23.23-2.76-1.91.26-1.21.33-2.47.48-3.71C43.12,167.29,42.9,166.48,41.2,166.37Z"/><path class="cls-1" d="M48.45,166.72c-.32,1.95.79,2.29,2.06,2.45,1.1.14,2.27.22,2.43,1.66s-.69,2.42-2.53,3.1c.66-1,1.63-1.48,1.17-2.41s-1.4-.85-2.26-1C47.09,170.05,46.71,168.83,48.45,166.72Z"/><path class="cls-1" d="M59.68,173.47c2.12-2.62,2.17-5.73.12-7.23,2.18-.16,3.16.65,3.25,2.69C63.17,171.67,61.78,173.53,59.68,173.47Z"/><path class="cls-1" d="M122.83,173.49c2.3-2,2.52-5.59.45-7.16,1.92-.31,2.8.27,3.12,2.08a5.22,5.22,0,0,1-3,5.59Z"/><path class="cls-1" d="M159.24,174c-3.07.33-3.29.09-2.94-2.22a37.38,37.38,0,0,0,.47-4.34c0-.56-.21-1.06.59-1s1.4.08,1.27,1.08c-.19,1.45-.4,2.9-.58,4.35C158,172.63,157.58,173.53,159.24,174Z"/><path class="cls-1" d="M69.76,166.33c2.54.35,2.86,1.8,2.73,3.54-.17,2.27-1.43,3.56-3.44,3.57C71,171.61,71.36,169,69.76,166.33Z"/><path class="cls-1" d="M67.16,173.63c-1.93-.21-2.35-1.36-2.37-2.74a4.29,4.29,0,0,1,3.08-4.6C66.56,168.86,66,171.11,67.16,173.63Z"/><path class="cls-1" d="M115.23,172.9c.84-1.8-.3-2.11-1.69-2.37-2.61-.47-3-1.39-1.4-3.8,0,2,1.15,2.36,2.55,2.47.92.07,1.84.32,2.06,1.3a2.15,2.15,0,0,1-1.21,2.74Z"/><path class="cls-1" d="M153.53,174.46c-2.92-1.6-2.47-3.58-2-5.37.29-1.14.54-2.71,2.65-2.44A8.37,8.37,0,0,0,153.53,174.46Z"/><path class="cls-1" d="M137.61,170.81a4.87,4.87,0,0,1,1.6-3.86c.2-.21.4-.44.73-.16a.52.52,0,0,1,.12.73,6.34,6.34,0,0,0-.31,5.48c.32.74-.41.83-.92.53A2.74,2.74,0,0,1,137.61,170.81Z"/><path class="cls-1" d="M143.58,169.29a3.17,3.17,0,0,1-.3-.89c0-.67-.75-1.31-.1-2,.09-.1.58,0,.77.19.72.63,0,1.32,0,2C143.94,168.78,143.77,169,143.58,169.29Z"/><path class="cls-1" d="M148.6,163c.6,0,1,.23,1,.89s-.49.84-1,.88-.91-.15-1-.67C147.5,163.38,148,163.07,148.6,163Z"/><path class="cls-1" d="M115.54,173.24c-.19.32-.57.65-.81.35s.34-.44.5-.69Z"/><path class="cls-2" d="M40.52,118.52c-1.38,2.3-3.64,3.2-6.09,3.8l-.15-6.67,1,0c.91,0,1,1.66,2.1,1.07s.44-1.69.5-2.57a15.42,15.42,0,0,1,.12-3.46c1,.36,1.3-.17,1.58-1,.51-1.57-.91-3-.29-4.52l-.29-.29a10.51,10.51,0,0,0-3.92-5.59c-.71,1.48-1.08,2.94-2.58,3.56-.21-1.19,2-1.88.82-3.08-.85-.86-2.28-.81-3.5-.94s-2.08.07-1.39,1.62a3.39,3.39,0,0,1,.11,1.07c-.77-.34-.78-1.22-1-1.8-.55-1.43-1.2-1.5-2.37-.54a2.19,2.19,0,0,1,1.61,2.34c-1.1-1.76-2.26-1.35-3.32,0-.73.93-2,1.6-1.84,3,0,.51-.34.51-.43.33-.6-1.13-.69-.15-.82.19a4.43,4.43,0,0,0-.22,2.57c-.59.33-1.59-.4-1.85.67a2.16,2.16,0,0,0,.8,2.15c.53.5,1.15,1,1.11,1.8-.1,2.34.24,4.68-.2,7-2.71-1.34-4.09-3.79-4.84-6.49-.84-3-3.4-3.71-5.73-4.65a30.11,30.11,0,0,0-4.52-.88c-1.85-.43-3.38-1.25-3.18-4.06.62,2.18,1.84,3.3,3.62,3.52.78.1.33-1,.69-1.44.49,1.63,4.86,3.22,6,2.19.62-.54.4-1.37.47-2.09C13.24,98.1,18.23,92,24.8,90.39c7.67-1.88,15.37.9,19.29,7a15.78,15.78,0,0,1,2.47,7.26c.16,1.82.94,2.19,2.52,2.16,9.22-.16,18.44-.33,27.67-.39,13.07-.08,26.14-.06,39.22-.08.44,0,.89,0,1.33,0,.61,0,1.22-.13,1.24-.94s-.7-.78-1.25-.78c-2.21,0-4.41,0-6.62-.13,2.84-.72,5.92.43,8.71-1,0,1.74-.67,3.54-.94,5.4a4.61,4.61,0,0,0,.74.15c4.56.25,4.34.21,5.21-4.23,1.65-8.37,7-14.31,15.22-14.81,9.72-.59,16.44,4.2,18.41,12.91.22,1,.56,1.41,1.59,1.27l14.21-1.9c.26,0,.49-.29.9-.54.11.79-.29,1.58.33,2.48-2-2.47-2.81-1.38-3.52.72-.35,1-1.52,1-2.5,1-3,0-6.07.13-9.09,0-2.11-.12-3,.31-2.85,2.7a9.85,9.85,0,0,1-2.36,7.11c-2.19-.37-4.23-1.41-6.49-1.45.44-1.38,2-2.25,1.82-3.92.39,0,.89,1.12,1.15-.1.14-.64.61-1.63-.28-1.81a54.5,54.5,0,0,0-5.86-.71c-.5,0-1.13-.11-1.13.64,0,.6.57.54,1,.65,1.73.44,3.63.2,5.17,1.36a21.08,21.08,0,0,1-4.93-.81c-1-.2-1.63,0-1.06,1.23s1,2.41,1.54,3.62a.83.83,0,0,1-1,.27,13.29,13.29,0,0,0-1.31-3.93c-.17-.38-.36-.93-.92-.68s-.34.73-.23,1.16c.24.89.92,1.7.56,3.2-.46-1.27-.83-2.07-1.05-2.91-.32-1.22-.89-.55-1.43-.26.07-.88.68-2-.89-2.22-.29-1.65-1.88-.47-2.6-1.19,3.23-.47,3.23-.47,3-3.25l.74.13c.14.31.28.62.41.93.39-.44.16-.78-.17-1.11,0-1.06-.77-2-.51-3l0,0c1.25,1,.71,2.8,2,4l1.13-1.33c0,.41-.07.83-.11,1.25-.28.16-.52.47-.23.67s.4-.21.51-.44l1.17-.15c.07.5-1,1.18,0,1.45a15.93,15.93,0,0,0,5.4.75c.23,0,.61-.32.62-.51a6.71,6.71,0,0,0-1.64-4.4c-.92-1.17-1.36.71-2.19.52,0-.58.35-.9.73-1.24s1.12-.4.8-1a2.62,2.62,0,0,0-1.25-1.14c-.88-.36-.73.65-1,1s-.51.87-1,1.07c.57-1.47.38-2.28-1.35-3s-3.59-.36-5.37-.39c-.86,0-.77.57-.45,1.24.73,1.57,1.93,3,1.87,4.85-.62-1.16-1.24-2.31-1.87-3.46-.2-.37-.35-1-.82-.9a5.84,5.84,0,0,0-3.49,3.42c-.68,1.51,1.37.89,1.8,1.71-1.22.35-2.12-.25-3.06-.85-.93,1.69-.66,3.49-.48,5.2.36,3.3,2,4.06,4.82,2.37-.11,1.49-2.06,1.67-2.24,3.11-2.38-.33-4.69-1.13-7.14-1a11.51,11.51,0,0,1-.44-1.49c-.25-1.55-1-2-2.68-2-4,.11-8.13.49-12.17-1.06a5.36,5.36,0,0,1,3.3-.8c.78,0,1.58-.33,1.68-1.14.13-1.18-1.06-.23-1.49-.71-.18-.21-.71-.13-1.07-.14l-40.13-.09a.69.69,0,0,0-.59.38H98.57v.64H48.39v.71c7.31,1.83,14.82.25,22.32,1-.69.5-1.39.23-2,.28s-1.33,0-2,0c-5.83,0-11.67,0-17.5.09a3.3,3.3,0,0,1-3.38-1.75,50.69,50.69,0,0,1-2.13,6.95,8.62,8.62,0,0,0-1.53.09c-1.14.26-2.7-.79-3.37.64S40.15,117.46,40.52,118.52Z"/><path class="cls-2" d="M94.27,63.77c.21.06.52.06.59.19A40.84,40.84,0,0,0,106.3,77.38c-5.77,1-11.61.75-17.42,1.12-1.18.07-.93-.45-.89-1.26.16-3.75.22-7.51.28-11.27,0-.69.18-1.66-.93-1.64s-.74.93-.81,1.53c-1,8-.79,16-.78,24,0,1.22.58,1.47,1.64,1.43a6.35,6.35,0,0,1,2.84.13c-1.44,1-4.78-1.28-4.49,2.74s.18,4,4.94,4.35c-.41.44-.91.25-1.34.26-3.15.06-4.22,1.73-3,4.7.42,1,1.24,1.11,2.17,1.11,3,0,5.89,0,8.84.24H84.91c.51-.39,1.06-.7.88-1.56-.68-3.19-.31-6.44-.41-9.67,0-1.12-.35-1.61-1.54-1.52a19.11,19.11,0,0,1-5.17-.16c1.72-.13,3.44-.27,5.17-.39,1-.07,1.55-.44,1.52-1.63A190.88,190.88,0,0,1,86,65.3c0-.51,0-.88-.53-1-.89-.15-1.13.39-1.22,1.15-.37,3.14-.78,6.27-1.17,9.4,0,.22,0,.44,0,.66-.25,3.28-.25,3.39-3.56,3.29-2.73-.08-5.42.66-8.15.24,1.38-1.42,3.19-2.27,4.57-3.71a24.2,24.2,0,0,0,6.28-11.65,2.86,2.86,0,0,1,.42-.76h7.11c-1.13.83-2,0-2.74.82Z"/><path class="cls-2" d="M14.78,84.62c1.08.89,1.18,1.57.17,2.83-2.44,3-5.68,4.51-9.31,5.41-.78.2-1.76.42-2.18-.44a2.71,2.71,0,0,1-.11-2.56C5.7,85.47,6.21,85.18,11.56,85c1.09,0,2.17-.24,3.26-.37Z"/><path class="cls-2" d="M41.85,82l8,.92c-.75,4.92-.08,9.81.43,14.7.12,1.16.56,1.73,1.8,1.65a2.84,2.84,0,0,1,1.9.2c-1,.86-3.18-.9-3.37,1.61a3.5,3.5,0,0,0-1.57-1.74c1.85-1,.4-2.47.4-3.69,0-1.61-.35-3.22-.39-4.83,0-1.23-.28-1.83-1.72-1.85-3,0-4.26-2.59-6-4.43C40.48,83.59,42.14,82.93,41.85,82Z"/><path class="cls-2" d="M178.48,95.24A33.86,33.86,0,0,1,174,92.72c-3.2-2.45-4.93-8.34-3.76-12.22.61-2,2.26-2,3.94-2,1.09,0,2.64.62,3-1.46l.94,10.67-.45,0c0-.22,0-.45,0-.67,0-3.1-2.35-4.53-5.06-3a2.3,2.3,0,0,0-1,3.07,12.27,12.27,0,0,0,2.27,3.76,2.76,2.76,0,0,0,2.43,1.27c.61-.08.44-.69.44-1.09,0-1.11,0-2.56-1.24-2.79-1.56-.27-1.88-1.61-2.74-2.45,1.52,1.59,4.59,1.57,4.59,4.81,0,1.58,0,3.29,1.1,4.67ZM174,83.38c1.2-.46,3.16.9,3.14-1.85s-1.89-1.55-3.09-1.73c-1.67-.25-2.7.42-2.7,2.27C171.35,84.56,173.25,82.73,174,83.38Z"/><path class="cls-2" d="M129.18,83.29c3,0,4.18,1.25,2.92,3.32-.75,1.24-2.32,1.66-3.75,2a11.85,11.85,0,0,1-2,.06c-.93,0-2,0-1.85-1.24s-.62-3.13,1.4-3.68A23.23,23.23,0,0,1,129.18,83.29Z"/><path class="cls-2" d="M140.87,116.72c-1.25,2-1.87,4.09-1,6.42l-3.32-.77c-.47-.1-1-.4-1.19.38l-2.73-1.62c3.58-.33,2.93-3,3.26-5.09,1.42-.58,1.2-2.54,2.65-3.1-.07.35,0,.79-.22,1-1.48,1.62-.45,2.17,1,2.53C139.86,116.6,140.37,116.64,140.87,116.72Z"/><path class="cls-2" d="M54.7,108.65h48.87Q79.16,109.46,54.7,108.65Z"/><path class="cls-2" d="M178.43,95.28c.86.39,2.55.06,2.49,1.14-.12,2,.28,4.22-1.46,5.79a4.48,4.48,0,0,1-3.23,1.28c1.5-1,3.08-1.47,3.74-3a2.39,2.39,0,0,0,.16-2.13c-.45-.75-1.15.11-1.77.12s-1.29.3-1.94.33-1.44.39-1.49-.72a1.51,1.51,0,0,1,1-1.75c.87-.29,1.94-.13,2.54-1.08Z"/><path class="cls-2" d="M152.29,121.37c-2-.38-4-.74-6-1.17-.77-.16-1.68-.38-1.64-1.45s.77-1.33,1.58-1.6c2.13-.71,3.49-.15,4.61,1.85.35.63.67,1.32,1.47,1.54Z"/><path class="cls-2" d="M77.84,85.55c-1.32.11-2.22-1.16-3.56-1-.4,0-.5-.46-.47-.85s.35-.54.65-.77c2.4-1.75,4.91-.88,7.41-.38a.78.78,0,0,1,.73.7c.05.4-.07.86-.45.9C80.6,84.26,79.36,85.35,77.84,85.55Zm3.76-2.17c-2.34-.66-4.58-.1-6.84.36C77.09,84.47,79.33,83.53,81.6,83.38Z"/><path class="cls-2" d="M37.21,85.88c-6.45-2.53-12.65-1.54-18.73,1.29C22.29,83.94,32.57,82.48,37.21,85.88Z"/><path class="cls-2" d="M69,92.91c-5.86,1.07-12.08.42-17.48,3.67C56.82,92.78,63.05,93.45,69,92.91Z"/><path class="cls-2" d="M123.89,97.47a2.92,2.92,0,0,1-2.26,1.17c-1.58.23-1.58.24-2.72,1.87.78-5.91.45-11.37,1-16.82,0,3.44,0,6.88,0,10.32,0,4.37-.05,4.38,4,3.49Z"/><path class="cls-2" d="M1.48,94.81c-.07.85.14,1.42,1.18,1.33.73,0,1.48.07,2.2,0,1.75-.19,2.29.58,1.85,2.18C6.1,97,2.62,95.82,1.42,96.68c-.8.56-.6,1.48-.25,2.2a4.84,4.84,0,0,1,.2,3.24c-1.91-2.34-1.79-5.7.13-7.29Z"/><path class="cls-2" d="M152.5,89.7a20.46,20.46,0,0,0-13.42-2.87C142.36,85.17,149.48,86.76,152.5,89.7Z"/><path class="cls-2" d="M2.4,101.47c0-.94-.08-1.89-.06-2.83,0-.78.25-1.54,1.21-1.51A1.55,1.55,0,0,1,5,98.53c.41,1.92-.41,2.84-2.65,2.91Z"/><path class="cls-2" d="M149.1,76.58c.14-.56.66-.59,1.06-.8h17.15v.8Z"/><path class="cls-2" d="M29.88,77.55a2.57,2.57,0,0,1,1.93,1.12L20.67,80.12c1.35-1.69,3-.62,4.39-1.1A17.57,17.57,0,0,1,29,78.48C29.58,78.42,30,78.26,29.88,77.55Z"/><path class="cls-2" d="M110.42,82.56c-2,2.61-4.22,1.09-6.23,0Z"/><path class="cls-2" d="M115.07,81.5l.4,0v7.58l-.82,0C114.92,86.56,114.3,84,115.07,81.5Z"/><path class="cls-2" d="M1.5,94.83A1.86,1.86,0,0,1,4,93.91c1.48.55,3.17-.24,4.68.9H1.48Z"/><path class="cls-2" d="M103.49,90.37A27.72,27.72,0,0,1,93.25,91Z"/><path class="cls-2" d="M93.37,61.38h0c-3.53.5-7.13.06-10.65.72a.83.83,0,0,1,.28-.92C86.45,61.58,89.93,60.82,93.37,61.38Z"/><path class="cls-2" d="M105.43,81.44c2-2,2.87-2,4.59,0Z"/><path class="cls-2" d="M77.65,105.37H64.88v-.22H77.75Z"/><path class="cls-2" d="M163.32,100.42c2.46-1,5.11-.54,7.65-1C168.49,100.34,165.87,100.1,163.32,100.42Z"/><path class="cls-2" d="M160.23,100.91l-2.58-5.35c1.9,1.16,1.73,3.55,3.2,5Z"/><path class="cls-2" d="M33.09,81.26a21.27,21.27,0,0,1-7.25.55A30.19,30.19,0,0,1,33.09,81.26Z"/><path class="cls-2" d="M107.52,78a1.08,1.08,0,0,1,1,.66,28.09,28.09,0,0,1-8.58-.21c1.83,0,3.67,0,5.5,0C106.18,78.4,107,78.7,107.52,78Z"/><path class="cls-2" d="M8.69,101.85c0-2.42,1-4.24.85-6.31C10.19,96.87,10,98.06,8.69,101.85Z"/><path class="cls-2" d="M51.19,72.71c.91-1.51,2.49-2,4-2.67l0,0a7.34,7.34,0,0,1-4,2.66Z"/><path class="cls-2" d="M28.59,123.18c0-.53-.32-1.22.57-1.34s1.9,0,2.14,1.21Z"/><path class="cls-2" d="M128.77,90.83c-.34,1.2-1.49,1.7-2.35,2.44.55-1,1-2.12,2.37-2.43Z"/><path class="cls-2" d="M129.23,90.4a5.22,5.22,0,0,1,3.33-2.07,6.93,6.93,0,0,1-3.35,2Z"/><path class="cls-2" d="M49.93,74.28a2.4,2.4,0,0,1-1.87-.23c1-.47,1.88-1.38,3.13-1.34l0,0C51,73.38,49.83,73.36,49.93,74.28Z"/><path class="cls-2" d="M11.64,81.57l3.23-.81C13.85,81.53,12.79,82.09,11.64,81.57Z"/><path class="cls-2" d="M6.06,84.92c.14-1.19.59-2.06,2.15-1.92Z"/><path class="cls-2" d="M120.71,174.41c0-.42-.36-.86.08-1.24l2,.32.58.51Z"/><path class="cls-2" d="M15.58,89.27a3.68,3.68,0,0,1-.56.36c-.2.09-.47,0-.39-.26a1.26,1.26,0,0,1,.54-.56C15.34,88.69,15.55,88.74,15.58,89.27Z"/><path class="cls-2" d="M8.73,82.72a2.47,2.47,0,0,1,2.1-.71C10,82.59,9.51,82.9,8.73,82.72Z"/><path class="cls-2" d="M8.14,103.22c0,.94-.6,1.18-1.6,1.36a3.11,3.11,0,0,1,1.61-1.34Z"/><path class="cls-2" d="M46.31,92.58c-.7.07-1-.43-1.23-1,.91-.22,1,.49,1.2,1Z"/><path class="cls-2" d="M155.85,92.59a1.45,1.45,0,0,1-1.33-1.32l0,0c.88,0,1.22.55,1.32,1.33Z"/><path class="cls-2" d="M155.81,92.62a1.21,1.21,0,0,1,1.18,1c-.89.14-1-.46-1.14-1.07Z"/><path class="cls-2" d="M57.37,68.7a.8.8,0,0,1-.19.9l-1.15,0,0,0C56.16,68.82,56.87,68.91,57.37,68.7Z"/><path class="cls-2" d="M18.62,83.17c-.37.65-.81.54-1.25.49C17.55,83.09,18,83.07,18.62,83.17Z"/><path class="cls-2" d="M37.94,86.2a.7.7,0,0,1,1,.2s-.07.21-.11.32Z"/><path class="cls-2" d="M47.16,94c.55,0,.79.28.84.78,0,.06-.1.18-.13.17a1,1,0,0,1-.68-1Z"/><path class="cls-2" d="M16.46,88.55c-.08-.16-.2-.29-.17-.35a.51.51,0,0,1,.29-.25c.08,0,.19.1.29.15Z"/><path class="cls-2" d="M41.86,88.61c-.36,0-.67-.15-.72-.58a.2.2,0,0,1,.16-.12.58.58,0,0,1,.53.73Z"/><path class="cls-2" d="M154.07,90.82a.73.73,0,0,1-.76-.57s.1-.14.14-.13a.69.69,0,0,1,.59.73Z"/><path class="cls-2" d="M46.28,92.61a.69.69,0,0,1,.43.9l0,0a.7.7,0,0,1-.43-.9Z"/><path class="cls-2" d="M124.32,96.57a.73.73,0,0,1-.43.9l0,0a.65.65,0,0,1,.44-.89Z"/><path class="cls-2" d="M55.16,70a.82.82,0,0,1,.9-.44l0,0c-.1.55-.49.5-.89.44Z"/><path class="cls-2" d="M134,87.9c-.15.09-.22.15-.31.19a.28.28,0,0,1-.18,0c-.19-.09-.19-.2,0-.25A1.58,1.58,0,0,1,134,87.9Z"/><path class="cls-2" d="M8.15,103.24l.12-.62.23.19-.36.41Z"/><path class="cls-2" d="M43.2,89.49a.78.78,0,0,1-.89-.44l0,0a.67.67,0,0,1,.89.44Z"/><path class="cls-2" d="M15.85,84c.1-.07.18-.18.26-.18s.18.11.28.17c-.06,0-.11.12-.16.12A3.82,3.82,0,0,1,15.85,84Z"/><path class="cls-2" d="M14.82,84.66l.11-.31.18.15-.33.12Z"/><path class="cls-2" d="M40.09,87.27l-.37-.14c.32-.31.29,0,.34.18Z"/><path class="cls-2" d="M17.7,87.39l.12.14c-.05,0-.1.1-.14.09s-.09-.07-.13-.12Z"/><path class="cls-2" d="M2.36,101.44l-.11.32c-.34-.29.07-.21.15-.29Z"/><path class="cls-2" d="M40.06,87.31l.37.15c-.32.32-.28,0-.34-.19Z"/><path class="cls-2" d="M47.19,93.92l-.45-.44,0,0c.34-.05.45.14.45.44Z"/><path class="cls-2" d="M157.51,94.61l-.13.13s-.1-.1-.1-.14.08-.09.12-.13Z"/><path class="cls-2" d="M44.09,90.37c-.32,0-.48-.11-.45-.43l0,0a.4.4,0,0,1,.43.44Z"/><path class="cls-2" d="M44.05,90.4l.3.18c-.32.21-.24-.06-.26-.21Z"/><polygon class="cls-2" points="125.11 95.48 124.97 95.55 124.98 95.39 125.11 95.48"/><path class="cls-2" d="M124.36,96.61l.14-.32c.24.28,0,.24-.18.28Z"/><path class="cls-2" d="M41.83,88.64c.32,0,.47.13.45.44l0,0-.45-.44Z"/><path class="cls-2" d="M43.17,89.52l.45.44,0,0c-.31,0-.44-.16-.44-.45Z"/><path class="cls-2" d="M129.21,90.38c0,.33-.14.45-.44.45h0c0-.31.14-.44.44-.44Z"/><path class="cls-2" d="M125.45,94.75s-.11-.11-.11-.16.08-.09.13-.14.12.11.11.16S125.5,94.7,125.45,94.75Z"/><path class="cls-2" d="M154.52,91.27l-.45-.45,0,0c.29,0,.46.13.45.44Z"/><path class="cls-2" d="M29,104.55c.17-1.09-.74-2-.46-3.11a5.29,5.29,0,0,1,1,2.5c.26.81.62,1.44,1.64,1-.45,1.14,1.38,1.45.94,2.58H28.05l0-3,.89,0a.89.89,0,0,0,.2,1,.28.28,0,0,0,.17-.12A.65.65,0,0,0,29,104.55Z"/><path class="cls-2" d="M28.58,116.48l3.11.06a3.65,3.65,0,0,1-.25,1c-.51.85-1.26,1.48-2.3,1.11S28.53,117.28,28.58,116.48Z"/><path class="cls-2" d="M30.37,110.38c.09,1.35,1.06,2.51.82,3.92l0,0c-1.05-1.09-1-2.71-1.83-3.91Z"/><path class="cls-2" d="M139,109.41c-.22.7-.44,1.38-1.37,1.36C137.85,110.08,138.12,109.44,139,109.41Z"/><path class="cls-2" d="M137.66,110.73a.71.71,0,0,1-.47.93A.78.78,0,0,1,137.66,110.73Z"/><path class="cls-2" d="M139.44,109l-.48.47C139,109.12,139.09,108.93,139.44,109Z"/><path class="cls-2" d="M137.22,111.62l-.47.48A.43.43,0,0,1,137.22,111.62Z"/><path class="cls-2" d="M31.2,105c0-.67.12-1.23.91-1.37A1.3,1.3,0,0,1,31.2,105Z"/><path class="cls-2" d="M32.08,103.69a1,1,0,0,1,.47-.92C32.61,103.18,32.54,103.53,32.08,103.69Z"/><path class="cls-2" d="M39.31,105.12c-.09.17-.17.41-.4.23-.06,0,.07-.34.11-.52Z"/><path class="cls-2" d="M25.55,105.66c-1.07.4-2,0-3.09-.42C23.72,104.7,24.59,105.51,25.55,105.66Z"/><path class="cls-2" d="M27.65,103.21c.59.31.53.84.46,1.37A1.35,1.35,0,0,1,27.65,103.21Z"/><path class="cls-2" d="M26.76,101.44c.46.15.49.53.47.92C26.76,102.21,26.7,101.86,26.76,101.44Z"/><path class="cls-2" d="M27.21,102.32c.43.17.45.55.46.93C27.21,103.1,27.14,102.74,27.21,102.32Z"/><path class="cls-2" d="M145.2,101.89c-.32,1-.56,2-1.8,2.24C143.78,103.2,144.12,102.25,145.2,101.89Z"/><path class="cls-2" d="M139.85,100.15c.64.28.48.82.44,1.33l0,0c-.62-.29-.46-.83-.44-1.33Z"/><path class="cls-2" d="M139.88,100.12l-.18-.16s.1,0,.11,0a.47.47,0,0,1,0,.16Z"/><path class="cls-2" d="M31.19,114.3a.68.68,0,0,1,.41.85c0,.07-.17.1-.27.14,0-.34-.06-.68-.1-1Z"/><path class="cls-2" d="M138.52,113c.36-.85.68-1.72,1.81-1.8C140,112,139.64,112.9,138.52,113Z"/><path class="cls-2" d="M145.62,104.57a1.33,1.33,0,0,1,1.36-1.36A1.69,1.69,0,0,1,145.62,104.57Z"/><path class="cls-2" d="M144.73,105.46c0-.35.12-.51.47-.47A.46.46,0,0,1,144.73,105.46Z"/><path class="cls-2" d="M145.17,105c0-.35.17-.47.48-.48Z"/></svg>