<svg id="Capa_1" data-name="Capa 1" xmlns="http://www.w3.org/2000/svg" viewBox="0 0 212.84 210.59"><defs><style>.cls-1{fill:#fff;}</style></defs><path class="cls-1" d="M37.52,171.44c22-9.34,44.08-18.08,63.27-32.48a141.07,141.07,0,0,0-8.3-11.56c-1,2.9-1.87,5.44-2.8,7.94-1.35,3.66-2,7.56-3.68,11.1a1.74,1.74,0,0,1-2.22,1.06,8,8,0,0,1-5.86-8.93c.17-.82.41-1.62.61-2.43A4.23,4.23,0,0,0,74.45,131c-3.24-.22-6.23,1.07-9.4,1.22a12.87,12.87,0,0,1-11.61-5.57,32,32,0,0,0-14.52-11.47c-5.5-2.24-11.31-3.43-16.94-5.21a33.22,33.22,0,0,1-11.4-6c-3.75-3.09-4.08-8.69-1.8-12.86s6.05-6.68,8.44-10.55a23.94,23.94,0,0,0,2.93-18.21c-.89-4.29-2.42-8.48-1.81-13a8.46,8.46,0,0,1,4.18-6.57c1.8-1.07,3.36-2.14,2.15-4.8-.94-2.07.73-5.43,3-6.72A7.67,7.67,0,0,0,30.23,29l.91.2a33.7,33.7,0,0,0,3.39-2.48c1-1,2.13-2.22,2-3.61C36.21,17.69,41.88,13,47.16,11.84c3.77-.79,7.6-.76,11.39-1.09,4-.35,6.49-3.21,9.53-5.15a27.08,27.08,0,0,1,6.38-3.1c1.75-.55,2.94.66,3.61,1.81a3.44,3.44,0,0,1-.59,4.46c-1.63,1.54-3.73,2.15-5.72,3-4.19,1.72-8.05,3.95-9.42,8.6A11.21,11.21,0,0,0,64,30.13c2,3,4.58,5.69,4.81,9.56,0,.87.15,1.74.16,2.61,0,2.55,1.39,4.08,3.75,5.11a12.59,12.59,0,0,0,6,.71,12.76,12.76,0,0,1,10.46,4.43c2.08,2.29,4.47,2.73,7.27,2.75,2,0,4-.39,6,.29,3.69,1.3,6.25,6,5,10.73A16.37,16.37,0,0,1,106,70.07c-3,5.3-2.07,10.56.11,15.75,1.14,2.72,2,5.51,2.93,8.3.74,2.3-.49,3.61-2.88,3.14a43.38,43.38,0,0,0-10.58-1.08c-2.69,1.2-4.29,3.43-6.74,4.84,3.42.44,6.77.74,10.06,1.33,11.09,2,22.23,3.82,32.21,9.48,4.57,2.59,8.75,5.64,10.8,10.82,2.19,5.5,1,10.69-1.27,15.79-.54,1.2-1.21,2.34-1.77,3.41a198.62,198.62,0,0,1,29.34,31.55c18.06-16.56,29.44-36.64,33.2-60.8a100.12,100.12,0,0,0-13.09-68.11C175.92,23.44,157.79,9,134.7.38a4.29,4.29,0,0,1,3.55,0c8.27,3,16.35,6.35,23.83,11.14a111.15,111.15,0,0,1,19,15,110.18,110.18,0,0,1,19,25.43,112.16,112.16,0,0,1,7.59,17.75A106.48,106.48,0,0,1,212.35,93c1.41,14-.32,27.63-4.21,41.09a101.87,101.87,0,0,1-15.26,31.26,108.3,108.3,0,0,1-30.74,28.93,106.76,106.76,0,0,1-34.65,14,109.46,109.46,0,0,1-43.72.25,106,106,0,0,1-26.65-9.08A105,105,0,0,1,28.9,179.24,110.41,110.41,0,0,1,12.09,157.5a115.3,115.3,0,0,1-6.93-13.78A88.83,88.83,0,0,1,.08,127.57c-.34-1.54.47-2.19,1.84-3a112.08,112.08,0,0,0,11.93,26.59c5.1,8.33,11.69,15.45,18.54,22.36.22.47.38-.11.37-.11,19.58,16.66,41.88,25.43,67.39,25.5s47.85-8.51,67.24-24.82c-3.16-.31-6.53-.73-9.9-.94-4.24-.27-8.49-.4-12.74-.53-1.27,0-1.66-.95-2.15-1.81-3-5.2-6.09-10.31-9.51-15.23-.21-.3-.45-.58-.71-.92a4.85,4.85,0,0,0-1.65,2.51,157.22,157.22,0,0,1,9.33,15.38c-8.62.15-16.69.66-24.81,1.57a20.22,20.22,0,0,1-2.08-6.55c-9.67-.5-19.36-.64-29-.66-.16-.89.4-.94.77-1.14a211.63,211.63,0,0,0,23.19-14.67c5.69-4.13,11.16-8.57,15.38-14.32,2.68-3.65,4.78-7.49,4.51-12.27a10.62,10.62,0,0,0-2.79-6.75,32.81,32.81,0,0,0-12-8.25,100.74,100.74,0,0,0-25.87-6.61c2.85.65,5.7,1.29,8.54,2A82.17,82.17,0,0,1,113.9,111c4.5,2.23,8.83,5,11.19,9.75a10.79,10.79,0,0,1-.36,10.3c-3.8,7.13-9.83,12.22-16.1,17a165.78,165.78,0,0,1-25.13,15.5c-2.54,1.3-4.64,3.49-7.65,3.81-4.39.47-8.77,1-13.16,1.32-5.78.4-11.43,1.53-17.12,2.46-1.89.31-3.76.73-5.65,1A2.43,2.43,0,0,1,37.52,171.44ZM84.9,146c.88-1.49.79-3.13,1.06-4.66.81-4.49,2.33-8.85,2.61-13.42.12-1.91,1-4.09-.56-5.75a78,78,0,0,0-26.5-18.94c-.95-.4-1.86-.89-2.79-1.34,8.1.58,15.73,2.93,23.84,5.7-1-1.55-.09-2.79-.31-3.79-.72-1-2.39,0-2.46-1.54.74-1,1.61.06,2.6-.42L80,101.05c1.07-.81,2.26-.13,3.15-.75a9.75,9.75,0,0,1,5.91-6c4.39-1.85,8.74-.71,13.11.29,1.7.39,3.26,1.6,5.45,1.13-.38-.55-.6-.88-.83-1.2-1.85-2.61-3.82-5.15-5.55-7.84-2.79-4.37-4.07-9-2.27-14.2.8-2.32,2.42-4.15,3.47-6.32,1.53-3.17,1.46-5.92-.3-7.76-1.53-1.59-3.34-.74-5.08-.66-3.75.18-7.57.94-10.83-1.93a8,8,0,0,0-7.17-1.69,17.26,17.26,0,0,1-8.42,0c-6.25-1.82-9.92-5.92-9.18-12.36a14.55,14.55,0,0,0-1.21-8.25c-4.18-8.69-1.5-16.11,5.13-21,2.75-2,6.11-2.85,8.94-4.71.63-.41,1.2-.78.88-1.69a2.72,2.72,0,0,0-2.29-.19A17.71,17.71,0,0,0,68.16,8a31.22,31.22,0,0,1-14.34,5.53,14.57,14.57,0,0,0-11.48,7.72c-.89,1.63-.8,3.64-1.9,5.23C38,30,34.21,31.27,30.64,32.93c-2.63,1.21-3.52,2.49-3,5.26a6.15,6.15,0,0,1-2.84,7c-1.88,1.23-2.14,3-1.81,5,.55,3.45,2.2,6.53,3.2,9.82,1.09,3.57,2.07,7.19,1.56,10.9-.93,6.82-4.73,12-9.9,16.39-1.91,1.6-3.89,3.15-5.65,4.9-2.6,2.59-2.86,5.42-.85,7.24a16.09,16.09,0,0,0,5.3,3.22c6.41,2.35,13.26,2.33,19.85,3.68,5.08,1,9.91,2.46,13.79,6.22s5.85,8.24,7.71,13c1.48,3.79,3.8,5,7.67,3.76,2.43-.76,4.8-1.72,7.27-2.29,4.21-1,7.93.62,9.58,4.38,1.15,2.6.56,5.36-.65,8A4.68,4.68,0,0,0,84.9,146Zm26.77-24.31a10.4,10.4,0,0,0-2.76-6.14c-4-4.1-9-6.59-14.36-8.47-2.1-.74-4.24-1.34-6.52-2.06v4.71A172,172,0,0,1,111.67,121.65Zm-21.53-6.11c5.9,5.33,12.75,9.55,18.26,15.32.73-.6,1.23-1.08,1-1.9C104.58,124.3,92.43,115.57,90.14,115.54Zm-7.5-3.69c0-1.81-13.35-8-16.36-7.7A137.38,137.38,0,0,1,82.64,111.85Z"/><path class="cls-1" d="M106.77,44.22a3.49,3.49,0,0,1-2.48.14c-.82-2.27-1.65-4.56-2.68-7.38v7.16a3.13,3.13,0,0,1-2.9.08V29.71c1.62-.5,2.75-.48,3.28,1.39s1.31,3.49,2.23,5.89V29.78a2.8,2.8,0,0,1,2.55-.07Z"/><path class="cls-1" d="M166.07,29.55a22.88,22.88,0,0,1,6.31.13,1.8,1.8,0,0,1,1.13.93c.87,1.42.72,6.87-.28,8.19s.14,2.46.22,3.69c0,.56.44,1.09.06,1.73a2.63,2.63,0,0,1-2.25.14c-1-1.41-.54-3.37-1.75-4.69-.06-.06-.24,0-.48,0-.68,1.45.09,3.1-.5,4.59a3.12,3.12,0,0,1-2.46.06ZM171,36.37a9.1,9.1,0,0,0-.07-3.95,2.56,2.56,0,0,0-2.12.22,13.52,13.52,0,0,0,.11,3.85A2.39,2.39,0,0,0,171,36.37Z"/><path class="cls-1" d="M85.93,44.24a2.5,2.5,0,0,1-2.2.09c-1.2-1.34-.55-3.54-2.2-5-.78,1.73-.07,3.39-.59,4.84a3,3,0,0,1-2.49.12V29.57c2.24-.13,4.41-.44,6.56.23a1.52,1.52,0,0,1,.85.84,10.81,10.81,0,0,1,0,7.68,4.3,4.3,0,0,0-.18,3.38A3.59,3.59,0,0,1,85.93,44.24ZM83.41,32.53a2.4,2.4,0,0,0-2.14,0,10.6,10.6,0,0,0,0,3.93,2.21,2.21,0,0,0,2.08-.13A11.13,11.13,0,0,0,83.41,32.53Z"/><path class="cls-1" d="M136.52,29.62a18.26,18.26,0,0,1,5.9,0,2.14,2.14,0,0,1,1.8,2.25c0,1.75-.05,3.5,0,5.25,0,1-.76,1.53-1.18,2.31.21,1.58,1.12,3,1,4.66-1.66,1-2.51.55-3-1.19-.33-1.11-.31-2.42-1.43-3.51-.73,1.74-.08,3.33-.55,4.79-.77.59-1.57.38-2.53.17Zm2.81,2.94a11.83,11.83,0,0,0,0,3.85,1.68,1.68,0,0,0,1.85,0,9.47,9.47,0,0,0,0-3.86A2.06,2.06,0,0,0,139.33,32.56Z"/><path class="cls-1" d="M134.71,37c0,1.63,0,3.26,0,4.88a2.11,2.11,0,0,1-.69,1.79c-1.62,1.35-3.5,1-5.24.57-1.54-.38-1.71-1.81-1.68-3.25.05-2.91,0-5.83,0-8.75a2.29,2.29,0,0,1,.37-1.67c1.56-1.76,3.61-1.32,5.49-1,1.49.27,1.83,1.6,1.76,3S134.71,35.59,134.71,37Zm-4.6-4.44v8.93c.73.14,1.29.28,1.83-.19v-8.8A1.75,1.75,0,0,0,130.11,32.6Z"/><path class="cls-1" d="M166.47,60.73a2.29,2.29,0,0,1,2.29.05c.13.57.27,1.2.4,1.81a1.68,1.68,0,0,0,1.68.21,3.59,3.59,0,0,0,.19-2.57c-1.38-1.06-3.26-.8-4.75-1.9-.18-1.9-.49-3.95.12-5.84.79-2.46,3.1-1.76,4.93-1.75A2.41,2.41,0,0,1,174,53.06a23.67,23.67,0,0,1,0,2.52,2.81,2.81,0,0,1-2.58.27l-.43-2a1.42,1.42,0,0,0-1.66-.07,4.08,4.08,0,0,0-.22,2.51c1.17.86,2.58.81,3.8,1.33A1.53,1.53,0,0,1,174,59.22c0,.63,0,1.25,0,1.88,0,4.31-1.14,5.27-5.47,4.65C166.44,65.44,165.57,63.41,166.47,60.73Z"/><path class="cls-1" d="M137.7,58.46c0-2-.12-3.94.05-5.83a2.19,2.19,0,0,1,2.18-1.91c.53,0,1.08,0,1.62,0,3.3.05,4.5,1.83,3.38,5.08a2.66,2.66,0,0,1-2.34,0l-.39-1.93a1.45,1.45,0,0,0-1.51-.11,4.59,4.59,0,0,0,0,2.82,9.05,9.05,0,0,0,2.18.74c2,.17,2.67,1.2,2.39,3.07a8.52,8.52,0,0,0,0,1.13c0,3.84-2.13,5.36-5.84,4.17-1.73-.55-2.33-2.54-1.48-4.85,1-.48,1.11-.48,2.33,0l.38,1.8a1.33,1.33,0,0,0,1.5.17,4.18,4.18,0,0,0,.1-2.69c-.8-.24-1.55-.44-2.29-.7S138.55,58.81,137.7,58.46Z"/><path class="cls-1" d="M115.88,34.53a2.42,2.42,0,0,1-2,.06c-.72-.57-.32-1.41-.66-2a1.35,1.35,0,0,0-1.46-.11c-.5.8-.21,1.66-.2,2.48a7.68,7.68,0,0,0,3,1.28,1.9,1.9,0,0,1,1.65,2.34,7,7,0,0,0,0,1.37c.36,4.43-.86,4.83-5.64,4.53-1.72-.11-2.46-2.37-1.7-4.76a2.5,2.5,0,0,1,2.33,0l.43,1.69a1.38,1.38,0,0,0,1.51,0,4.36,4.36,0,0,0,.08-2.57l-4.47-1.68a25.59,25.59,0,0,1,0-6.06,1.88,1.88,0,0,1,1.44-1.44,7.8,7.8,0,0,1,4.31-.09C116.16,30.06,116.72,32.21,115.88,34.53Z"/><path class="cls-1" d="M155,44.14c1-4.8,2.05-9.62,3.07-14.43a6,6,0,0,1,3.52-.05l3.09,14.42c-2.94,1.27-3-.79-3.33-2.29a5.25,5.25,0,0,0-2.88-.15C157.93,43.19,157.88,45.43,155,44.14Z"/><path class="cls-1" d="M154,51a5.59,5.59,0,0,1,3.46,0c1,4.75,2.09,9.61,3.13,14.41-1.32.52-1.35.53-2.49.21-.7-.67-.46-1.73-1-2.53a4.79,4.79,0,0,0-2.86-.08c-.24.88-.47,1.71-.7,2.53a2.78,2.78,0,0,1-2.72-.14Z"/><path class="cls-1" d="M97.41,44.09a2.8,2.8,0,0,1-2.5.25c-.67-.72-.42-1.71-.87-2.53a4.15,4.15,0,0,0-2.88-.1l-.74,2.45a2.27,2.27,0,0,1-2.34.12c-.3-1,2.17-13,3-14.62a4.92,4.92,0,0,1,3.17,0Z"/><path class="cls-1" d="M120.68,39.61v4.48a2.68,2.68,0,0,1-2.69.15V29.8c2.74-1.14,7-.41,7.3,1.33a27.14,27.14,0,0,1,.11,6C125.19,39.93,122.8,39.48,120.68,39.61Zm.14-7.07a12.06,12.06,0,0,0,0,3.93,1.41,1.41,0,0,0,1.68-.23,12.5,12.5,0,0,0-.1-3.71A1.62,1.62,0,0,0,120.82,32.54Z"/><path class="cls-1" d="M148.85,32.57v8.81a1.58,1.58,0,0,0,1.83,0l.38-1.83a2.27,2.27,0,0,1,2.26-.08c.14,1.69.83,3.61-1,4.63a5.68,5.68,0,0,1-5.5-.21,2.16,2.16,0,0,1-.92-2.07c0-3.25,0-6.5,0-9.75a2.24,2.24,0,0,1,2-2.46,11.44,11.44,0,0,1,3.6,0c2,.36,2.62,2.35,1.71,4.93a2.15,2.15,0,0,1-2.1,0c-.12-.63-.26-1.31-.38-1.94A1.76,1.76,0,0,0,148.85,32.57Z"/><path class="cls-1" d="M74.89,44.21a3.89,3.89,0,0,1-3,0V32.56l-2-.52a2.84,2.84,0,0,1-.15-2.44,36.94,36.94,0,0,1,7.05-.06,2.49,2.49,0,0,1,0,2.52l-1.88.44Z"/><path class="cls-1" d="M164.51,65.53a4.1,4.1,0,0,1-2.39.13,3.24,3.24,0,0,1,0-2.45,2.46,2.46,0,0,1,2.27,0A2.43,2.43,0,0,1,164.51,65.53Z"/><path class="cls-1" d="M147.14,63.2a2.52,2.52,0,0,1,2-.07,2.68,2.68,0,0,1,.11,2.35,2.42,2.42,0,0,1-2,.14A2.39,2.39,0,0,1,147.14,63.2Z"/><path class="cls-1" d="M83.26,84.5c-3.83.75-7.7.52-11.56.55a62.34,62.34,0,0,1-12-1.07c-2-.38-3.1-1.28-2.93-3.53a21.65,21.65,0,0,0-.43-4.58c-.08,3.23.25,6.46-.31,9.71-1.73-7.24-.61-14.86-2.68-22-1.44-.4-6.34,2-7.42,3.66,3.8,5.24,3.44,12.58,8.75,16.89-.57,1-1.09.92-1.54.69a9,9,0,0,1-2.89-1.69c-3-3.51-6.79-3.81-10.91-3.41a2,2,0,0,1-2-.54l8.58-2.92C44.45,74,44.3,71.17,41.8,70.09s-4.57.94-6.86,1.3c-.35-.71.09-1,.43-1.27C41,65.93,46.7,61.8,52.62,58c2.45-1.57,5.27-1.31,7.92-1,6,.78,12,2,17.39,4.73,2.74,1.41,6.3,2.12,7.41,5.74a21.08,21.08,0,0,1,.45,7.73,7.44,7.44,0,0,1-4.05.08,20.43,20.43,0,0,1-.08-5.41l1.73-.24a4.59,4.59,0,0,0-2-4.36l.94,3.86c-.79.32-1.15-.12-1.22-.52-.66-3.9-3.66-4.86-6.88-5.64a88.52,88.52,0,0,0-14.63-2.46,1.46,1.46,0,0,0-1.56.5,6.51,6.51,0,0,1,5.11,4.48c.88,2.69.42,5.42.42,8.22a12.35,12.35,0,0,1-4.88.13V67.44L60.53,67a3.67,3.67,0,0,0-3.31-4.11c.13,2.44.19,4.87.41,7.28.31,3.31.75,6.6,1.09,9.91.14,1.28.84,1.72,2.05,1.87,7.67,1,15.33,1.62,23,.38a4.19,4.19,0,0,1,.82.07c.88,2.5.63,5.14.39,7.7-.16,1.73.32,3.58-.89,5.2-1.58,2.13-3.93,2-6.12,2.18A126.89,126.89,0,0,1,62.65,98a15.91,15.91,0,0,1-5-1,1.3,1.3,0,0,1-1-1.4c1.72.14,3.41.35,5.1.4,6.28.18,12.59.55,18.81-.69a3.73,3.73,0,0,0,2.1-5.8c-.13-.5.56-.87.17-1.5-1.87,0-2.54,1.07-2.53,2.85a18.19,18.19,0,0,1-7.14,1.19c-.75,0-1.5,0-2.25-.07-2-.16-3.69-.21-5.13-2.36-1.21-1.81-4.1-1.53-6.16-1.88-.63.34-.74.69-.51,1.24,1,.43,2.16.54,3.09,1.38A3.44,3.44,0,0,1,57.8,88.1l-.26,1c-.42-1-.95-2-.6-3,1-.55,1.51.27,2.17.51,3,1.1,6.2,1.26,9.33,1.6a30.28,30.28,0,0,0,11.42-.45,12.41,12.41,0,0,0,2.66-1.06A1.6,1.6,0,0,0,83.26,84.5ZM55.58,67.26h.18c-.1-1.88-.17-3.76-.33-5.63-.12-1.57.42-2.55,2.1-2.53s3.27.15,5.11.24c-3.83-1.09-7.37-1.06-10.64,1a60.56,60.56,0,0,0-9.41,6.87c1.66,1,2.25,2.43,3.37,3.9-.42-1.77-1.47-2.82-2.19-4.17,3.38-2.23,6.41-4.9,10.55-6.49Z"/></svg>